%TF.GenerationSoftware,Altium Limited,Altium Designer,24.0.1 (36)*%
G04 Layer_Color=16711935*
%FSLAX45Y45*%
%MOMM*%
%TF.SameCoordinates,AADBD710-655B-4C0A-A29E-FCC33305A696*%
%TF.FilePolarity,Negative*%
%TF.FileFunction,Soldermask,Bot*%
%TF.Part,Single*%
G01*
G75*
%TA.AperFunction,ComponentPad*%
%ADD42C,1.80002*%
%ADD43R,1.80002X1.80002*%
%TA.AperFunction,ViaPad*%
%ADD44C,1.20320*%
D42*
X-2774000Y-6986000D02*
D03*
X-2520000D02*
D03*
X-2266000D02*
D03*
X-24000D02*
D03*
X230000D02*
D03*
X484000D02*
D03*
X2726000D02*
D03*
X2980000D02*
D03*
X3234000D02*
D03*
X2980000Y-7240000D02*
D03*
X3234000D02*
D03*
X3488000D02*
D03*
Y-6986000D02*
D03*
X230000Y-7240000D02*
D03*
X484000D02*
D03*
X738000D02*
D03*
Y-6986000D02*
D03*
X-2520000Y-7240000D02*
D03*
X-2266000D02*
D03*
X-2012000D02*
D03*
Y-6986000D02*
D03*
D43*
X2726000Y-7240000D02*
D03*
X-24000D02*
D03*
X-2774000D02*
D03*
D44*
X-2969716Y-5397714D02*
D03*
X-3269716D02*
D03*
X-3569716D02*
D03*
X-825325Y-5401927D02*
D03*
X-525325D02*
D03*
X-225325D02*
D03*
X2530000Y-5400000D02*
D03*
X2230000D02*
D03*
X1930000D02*
D03*
X-2950000Y-5900000D02*
D03*
X-220000Y-5100000D02*
D03*
X-520000D02*
D03*
X-820000D02*
D03*
X880000Y-5900000D02*
D03*
Y-6100000D02*
D03*
Y-4800000D02*
D03*
X1180000Y-5400000D02*
D03*
X1480000Y-5100000D02*
D03*
X1180000Y-4800000D02*
D03*
Y-5100000D02*
D03*
Y-5700000D02*
D03*
Y-6100000D02*
D03*
X-520000Y-4800000D02*
D03*
X1480000Y-5400000D02*
D03*
X-220000Y-4800000D02*
D03*
X1180000Y-5900000D02*
D03*
X880000Y-5100000D02*
D03*
Y-5700000D02*
D03*
X1480000D02*
D03*
X880000Y-5400000D02*
D03*
X1480000Y-4800000D02*
D03*
Y-6100000D02*
D03*
X-820000Y-4800000D02*
D03*
X1480000Y-5900000D02*
D03*
X-1575000Y-6100000D02*
D03*
X-1275000Y-5400000D02*
D03*
Y-5900000D02*
D03*
Y-5700000D02*
D03*
X-1875000Y-6100000D02*
D03*
X-3575000Y-5100000D02*
D03*
X-1575000Y-5700000D02*
D03*
X-3275000Y-4800000D02*
D03*
X-1875000D02*
D03*
X-1275000Y-5100000D02*
D03*
X-1875000Y-5400000D02*
D03*
X-1275000Y-6100000D02*
D03*
X-3275000Y-5100000D02*
D03*
X-2975000D02*
D03*
X-1875000D02*
D03*
X-1275000Y-4800000D02*
D03*
X-1875000Y-5700000D02*
D03*
X-1575000Y-5900000D02*
D03*
X-1575000Y-5100000D02*
D03*
X-2975000Y-4800000D02*
D03*
X-1575000Y-5400000D02*
D03*
X-1875000Y-5900000D02*
D03*
X-3575000Y-4800000D02*
D03*
X-1575000D02*
D03*
X3925000Y-6100000D02*
D03*
Y-5700000D02*
D03*
Y-5900000D02*
D03*
X3625000Y-6100000D02*
D03*
X4225000D02*
D03*
X3625000Y-5900000D02*
D03*
X4225000D02*
D03*
X3625000Y-5700000D02*
D03*
X4225000D02*
D03*
X3625000Y-5400000D02*
D03*
X3925000D02*
D03*
X4225000D02*
D03*
Y-4800000D02*
D03*
X3925000D02*
D03*
X3625000D02*
D03*
X4225000Y-5100000D02*
D03*
X3925000D02*
D03*
X3625000D02*
D03*
X1925000Y-4800000D02*
D03*
X2225000D02*
D03*
X2525000D02*
D03*
X1925000Y-5100000D02*
D03*
X2225000D02*
D03*
X2525000D02*
D03*
X-200000Y-5900000D02*
D03*
X2550000D02*
D03*
X3300000Y-4950000D02*
D03*
X550000D02*
D03*
X-2200000D02*
D03*
%TF.MD5,cb693a1817b4d8cb119e604aab227c63*%
M02*
