%TF.GenerationSoftware,Altium Limited,Altium Designer,24.0.1 (36)*%
G04 Layer_Physical_Order=2*
G04 Layer_Color=16711680*
%FSLAX45Y45*%
%MOMM*%
%TF.SameCoordinates,AADBD710-655B-4C0A-A29E-FCC33305A696*%
%TF.FilePolarity,Positive*%
%TF.FileFunction,Copper,L2,Bot,Signal*%
%TF.Part,Single*%
G01*
G75*
%TA.AperFunction,Conductor*%
%ADD23C,0.50000*%
%TA.AperFunction,ComponentPad*%
%ADD24C,1.70000*%
%ADD25R,1.70000X1.70000*%
%TA.AperFunction,ViaPad*%
%ADD26C,1.00000*%
G36*
X4500000Y-7074020D02*
X3602864D01*
X3587292Y-7044020D01*
X3595163Y-7030388D01*
X3603000Y-7001140D01*
Y-6970860D01*
X3595163Y-6941612D01*
X3580023Y-6915389D01*
X3558612Y-6893977D01*
X3532388Y-6878837D01*
X3503140Y-6871000D01*
X3472860D01*
X3456649Y-6875344D01*
X3356078Y-6774772D01*
Y-5007060D01*
X3364016Y-4999121D01*
X3374548Y-4980879D01*
X3380000Y-4960532D01*
Y-4939468D01*
X3374548Y-4919121D01*
X3364016Y-4900879D01*
X3349121Y-4885984D01*
X3330879Y-4875452D01*
X3310532Y-4870000D01*
X3289468D01*
X3269121Y-4875452D01*
X3250879Y-4885984D01*
X3235984Y-4900879D01*
X3225452Y-4919121D01*
X3220000Y-4939468D01*
Y-4960532D01*
X3225452Y-4980879D01*
X3235984Y-4999121D01*
X3243923Y-5007060D01*
Y-6798000D01*
X3248192Y-6819460D01*
X3260348Y-6837653D01*
X3267577Y-6844882D01*
X3252048Y-6871779D01*
X3249140Y-6871000D01*
X3218860D01*
X3189612Y-6878837D01*
X3163389Y-6893977D01*
X3141977Y-6915389D01*
X3126837Y-6941612D01*
X3122529Y-6957690D01*
X3091471D01*
X3087163Y-6941612D01*
X3072023Y-6915389D01*
X3050612Y-6893977D01*
X3024388Y-6878837D01*
X2995140Y-6871000D01*
X2964860D01*
X2935612Y-6878837D01*
X2909389Y-6893977D01*
X2887977Y-6915389D01*
X2872837Y-6941612D01*
X2865000Y-6970860D01*
Y-7001140D01*
X2872837Y-7030388D01*
X2880708Y-7044020D01*
X2865136Y-7074020D01*
X2853700D01*
X2853699Y-7074021D01*
X2853698Y-7074020D01*
X2840998Y-7074021D01*
X2832042Y-7075803D01*
X2821492Y-7077901D01*
X2821491Y-7077902D01*
X2821489Y-7077902D01*
X2814207Y-7082769D01*
X2804953Y-7088952D01*
X2804952Y-7088953D01*
X2804951Y-7088954D01*
X2798767Y-7098209D01*
X2793902Y-7105490D01*
X2793901Y-7105492D01*
X2793900Y-7105493D01*
X2791802Y-7116044D01*
X2790021Y-7124999D01*
Y-7125000D01*
X2661980D01*
Y-7124999D01*
X2660198Y-7116044D01*
X2658100Y-7105493D01*
X2658099Y-7105492D01*
X2658099Y-7105490D01*
X2653233Y-7098209D01*
X2647050Y-7088954D01*
X2647048Y-7088953D01*
X2647047Y-7088952D01*
X2637793Y-7082769D01*
X2630511Y-7077902D01*
X2630510Y-7077902D01*
X2630508Y-7077901D01*
X2619958Y-7075803D01*
X2611002Y-7074021D01*
X2598302Y-7074020D01*
X2598301Y-7074021D01*
X2598300Y-7074020D01*
X1760000D01*
Y-4625000D01*
X4500000D01*
Y-7074020D01*
D02*
G37*
G36*
X1686145D02*
X852864D01*
X837292Y-7044020D01*
X845163Y-7030388D01*
X853000Y-7001140D01*
Y-6970860D01*
X845163Y-6941612D01*
X830023Y-6915389D01*
X808612Y-6893977D01*
X782388Y-6878837D01*
X753140Y-6871000D01*
X722860D01*
X706649Y-6875344D01*
X606078Y-6774772D01*
Y-5007060D01*
X614016Y-4999121D01*
X624548Y-4980879D01*
X630000Y-4960532D01*
Y-4939468D01*
X624548Y-4919121D01*
X614016Y-4900879D01*
X599121Y-4885984D01*
X580879Y-4875452D01*
X560532Y-4870000D01*
X539468D01*
X519121Y-4875452D01*
X500879Y-4885984D01*
X485984Y-4900879D01*
X475452Y-4919121D01*
X470000Y-4939468D01*
Y-4960532D01*
X475452Y-4980879D01*
X485984Y-4999121D01*
X493923Y-5007060D01*
Y-6798000D01*
X498192Y-6819460D01*
X510347Y-6837653D01*
X517577Y-6844882D01*
X502048Y-6871779D01*
X499140Y-6871000D01*
X468860D01*
X439612Y-6878837D01*
X413389Y-6893977D01*
X391977Y-6915389D01*
X376837Y-6941612D01*
X372529Y-6957690D01*
X341471D01*
X337163Y-6941612D01*
X322023Y-6915389D01*
X300612Y-6893977D01*
X274388Y-6878837D01*
X245140Y-6871000D01*
X214860D01*
X185612Y-6878837D01*
X159389Y-6893977D01*
X137977Y-6915389D01*
X122837Y-6941612D01*
X115000Y-6970860D01*
Y-7001140D01*
X122837Y-7030388D01*
X130708Y-7044020D01*
X115136Y-7074020D01*
X103700D01*
X103699Y-7074021D01*
X103698Y-7074020D01*
X90998Y-7074021D01*
X82042Y-7075803D01*
X71492Y-7077901D01*
X71491Y-7077902D01*
X71489Y-7077902D01*
X64207Y-7082769D01*
X54953Y-7088952D01*
X54952Y-7088953D01*
X54951Y-7088954D01*
X48767Y-7098209D01*
X43902Y-7105490D01*
X43901Y-7105492D01*
X43900Y-7105493D01*
X41802Y-7116044D01*
X40020Y-7124999D01*
Y-7125000D01*
X-88020D01*
Y-7124999D01*
X-89802Y-7116044D01*
X-91900Y-7105493D01*
X-91901Y-7105492D01*
X-91902Y-7105490D01*
X-96767Y-7098209D01*
X-102951Y-7088954D01*
X-102952Y-7088953D01*
X-102953Y-7088952D01*
X-112207Y-7082769D01*
X-119489Y-7077902D01*
X-119490Y-7077902D01*
X-119492Y-7077901D01*
X-130042Y-7075803D01*
X-138998Y-7074021D01*
X-151698Y-7074020D01*
X-151699Y-7074021D01*
X-151700Y-7074020D01*
X-990000D01*
Y-4625000D01*
X1686145D01*
Y-7074020D01*
D02*
G37*
G36*
X-1063855D02*
X-1897136D01*
X-1912708Y-7044020D01*
X-1904837Y-7030388D01*
X-1897000Y-7001140D01*
Y-6970860D01*
X-1904837Y-6941612D01*
X-1919977Y-6915389D01*
X-1941389Y-6893977D01*
X-1967612Y-6878837D01*
X-1996860Y-6871000D01*
X-2027140D01*
X-2043351Y-6875344D01*
X-2143923Y-6774772D01*
Y-5007060D01*
X-2135984Y-4999121D01*
X-2125452Y-4980879D01*
X-2120000Y-4960532D01*
Y-4939468D01*
X-2125452Y-4919121D01*
X-2135984Y-4900879D01*
X-2150879Y-4885984D01*
X-2169121Y-4875452D01*
X-2189468Y-4870000D01*
X-2210532D01*
X-2230879Y-4875452D01*
X-2249121Y-4885984D01*
X-2264016Y-4900879D01*
X-2274548Y-4919121D01*
X-2280000Y-4939468D01*
Y-4960532D01*
X-2274548Y-4980879D01*
X-2264016Y-4999121D01*
X-2256077Y-5007060D01*
Y-6798000D01*
X-2251809Y-6819460D01*
X-2239653Y-6837653D01*
X-2232424Y-6844882D01*
X-2247953Y-6871779D01*
X-2250860Y-6871000D01*
X-2281140D01*
X-2310388Y-6878837D01*
X-2336612Y-6893977D01*
X-2358023Y-6915389D01*
X-2373163Y-6941612D01*
X-2377471Y-6957690D01*
X-2408529D01*
X-2412837Y-6941612D01*
X-2427977Y-6915389D01*
X-2449389Y-6893977D01*
X-2475612Y-6878837D01*
X-2504860Y-6871000D01*
X-2535140D01*
X-2564388Y-6878837D01*
X-2590612Y-6893977D01*
X-2612023Y-6915389D01*
X-2627163Y-6941612D01*
X-2635000Y-6970860D01*
Y-7001140D01*
X-2627163Y-7030388D01*
X-2619292Y-7044020D01*
X-2634864Y-7074020D01*
X-3800000D01*
Y-4625000D01*
X-1063855D01*
Y-7074020D01*
D02*
G37*
G36*
X4500000Y-8275000D02*
X-3800000D01*
Y-7125000D01*
X-151700D01*
X-139000Y-7125000D01*
X-139000Y-7137700D01*
Y-7355000D01*
X91000D01*
Y-7137700D01*
X91000Y-7125000D01*
X103700Y-7125000D01*
X2598300D01*
X2611000Y-7125000D01*
X2611000Y-7137700D01*
Y-7355000D01*
X2841000D01*
Y-7137700D01*
X2841000Y-7125000D01*
X2853700Y-7125000D01*
X4500000D01*
Y-8275000D01*
D02*
G37*
D23*
X3300000Y-6798000D02*
X3488000Y-6986000D01*
X3300000Y-6798000D02*
Y-4950000D01*
X550000Y-6798000D02*
X738000Y-6986000D01*
X550000Y-6798000D02*
Y-4950000D01*
X-2200000Y-6798000D02*
Y-4950000D01*
Y-6798000D02*
X-2012000Y-6986000D01*
D24*
X-2774000D02*
D03*
X-2520000D02*
D03*
X-2266000D02*
D03*
X-24000D02*
D03*
X230000D02*
D03*
X484000D02*
D03*
X2726000D02*
D03*
X2980000D02*
D03*
X3234000D02*
D03*
X2980000Y-7240000D02*
D03*
X3234000D02*
D03*
X3488000D02*
D03*
Y-6986000D02*
D03*
X230000Y-7240000D02*
D03*
X484000D02*
D03*
X738000D02*
D03*
Y-6986000D02*
D03*
X-2520000Y-7240000D02*
D03*
X-2266000D02*
D03*
X-2012000D02*
D03*
Y-6986000D02*
D03*
D25*
X2726000Y-7240000D02*
D03*
X-24000D02*
D03*
X-2774000D02*
D03*
D26*
X-2969716Y-5397714D02*
D03*
X-3269716D02*
D03*
X-3569716D02*
D03*
X-825325Y-5401927D02*
D03*
X-525325D02*
D03*
X-225325D02*
D03*
X2530000Y-5400000D02*
D03*
X2230000D02*
D03*
X1930000D02*
D03*
X-2950000Y-5900000D02*
D03*
X-220000Y-5100000D02*
D03*
X-520000D02*
D03*
X-820000D02*
D03*
X880000Y-5900000D02*
D03*
Y-6100000D02*
D03*
Y-4800000D02*
D03*
X1180000Y-5400000D02*
D03*
X1480000Y-5100000D02*
D03*
X1180000Y-4800000D02*
D03*
Y-5100000D02*
D03*
Y-5700000D02*
D03*
Y-6100000D02*
D03*
X-520000Y-4800000D02*
D03*
X1480000Y-5400000D02*
D03*
X-220000Y-4800000D02*
D03*
X1180000Y-5900000D02*
D03*
X880000Y-5100000D02*
D03*
Y-5700000D02*
D03*
X1480000D02*
D03*
X880000Y-5400000D02*
D03*
X1480000Y-4800000D02*
D03*
Y-6100000D02*
D03*
X-820000Y-4800000D02*
D03*
X1480000Y-5900000D02*
D03*
X-1575000Y-6100000D02*
D03*
X-1275000Y-5400000D02*
D03*
Y-5900000D02*
D03*
Y-5700000D02*
D03*
X-1875000Y-6100000D02*
D03*
X-3575000Y-5100000D02*
D03*
X-1575000Y-5700000D02*
D03*
X-3275000Y-4800000D02*
D03*
X-1875000D02*
D03*
X-1275000Y-5100000D02*
D03*
X-1875000Y-5400000D02*
D03*
X-1275000Y-6100000D02*
D03*
X-3275000Y-5100000D02*
D03*
X-2975000D02*
D03*
X-1875000D02*
D03*
X-1275000Y-4800000D02*
D03*
X-1875000Y-5700000D02*
D03*
X-1575000Y-5900000D02*
D03*
X-1575000Y-5100000D02*
D03*
X-2975000Y-4800000D02*
D03*
X-1575000Y-5400000D02*
D03*
X-1875000Y-5900000D02*
D03*
X-3575000Y-4800000D02*
D03*
X-1575000D02*
D03*
X3925000Y-6100000D02*
D03*
Y-5700000D02*
D03*
Y-5900000D02*
D03*
X3625000Y-6100000D02*
D03*
X4225000D02*
D03*
X3625000Y-5900000D02*
D03*
X4225000D02*
D03*
X3625000Y-5700000D02*
D03*
X4225000D02*
D03*
X3625000Y-5400000D02*
D03*
X3925000D02*
D03*
X4225000D02*
D03*
Y-4800000D02*
D03*
X3925000D02*
D03*
X3625000D02*
D03*
X4225000Y-5100000D02*
D03*
X3925000D02*
D03*
X3625000D02*
D03*
X1925000Y-4800000D02*
D03*
X2225000D02*
D03*
X2525000D02*
D03*
X1925000Y-5100000D02*
D03*
X2225000D02*
D03*
X2525000D02*
D03*
X-200000Y-5900000D02*
D03*
X2550000D02*
D03*
X3300000Y-4950000D02*
D03*
X550000D02*
D03*
X-2200000D02*
D03*
%TF.MD5,2fc0a57df926311870239feb5c853079*%
M02*
