%TF.GenerationSoftware,Altium Limited,Altium Designer,24.0.1 (36)*%
G04 Layer_Physical_Order=1*
G04 Layer_Color=255*
%FSLAX45Y45*%
%MOMM*%
%TF.SameCoordinates,AADBD710-655B-4C0A-A29E-FCC33305A696*%
%TF.FilePolarity,Positive*%
%TF.FileFunction,Copper,L1,Top,Signal*%
%TF.Part,Single*%
G01*
G75*
%TA.AperFunction,SMDPad,CuDef*%
%ADD10R,0.95000X1.10000*%
%ADD11R,0.90000X0.70000*%
%ADD12R,1.20000X1.35000*%
%TA.AperFunction,ConnectorPad*%
%ADD13R,5.19999X3.49987*%
%TA.AperFunction,SMDPad,CuDef*%
%ADD14R,1.63500X2.69999*%
%TA.AperFunction,ConnectorPad*%
%AMCUSTOMSHAPE15*
4,1,30,-4.00500,-1.41000,-4.00500,1.41000,4.00500,1.41000,4.00500,-1.40000,3.99499,-1.40000,3.20500,-1.40000,3.20500,0.60000,2.80500,0.60000,2.80500,-1.40000,2.00500,-1.40000,2.00500,0.59997,1.60500,0.59997,1.60500,-1.40000,0.80500,-1.40000,0.80500,0.59997,0.40500,0.59997,0.40500,-1.40000,-0.39500,-1.40000,-0.39500,0.59997,-0.79499,0.59997,-0.79499,-1.40000,-1.59499,-1.40000,-1.59499,0.59997,-1.99499,0.59997,-1.99499,-1.40000,-2.79499,-1.40000,-2.79499,0.59997,-3.19499,0.59997,-3.19499,-1.40000,-4.00500,-1.41000,-4.00500,-1.41000,0.0*%
%ADD15CUSTOMSHAPE15*%

%ADD16O,6.06003X4.79999*%
%ADD17R,0.80000X2.79999*%
%TA.AperFunction,SMDPad,CuDef*%
%AMCUSTOMSHAPE18*
4,1,30,4.00500,1.41000,4.00500,-1.41000,-4.00500,-1.41000,-4.00500,1.40000,-3.99499,1.40000,-3.20500,1.40000,-3.20500,-0.60000,-2.80500,-0.60000,-2.80500,1.40000,-2.00500,1.40000,-2.00500,-0.59997,-1.60500,-0.59997,-1.60500,1.40000,-0.80500,1.40000,-0.80500,-0.59997,-0.40500,-0.59997,-0.40500,1.40000,0.39500,1.40000,0.39500,-0.59997,0.79499,-0.59997,0.79499,1.40000,1.59499,1.40000,1.59499,-0.59997,1.99499,-0.59997,1.99499,1.40000,2.79499,1.40000,2.79499,-0.59997,3.19499,-0.59997,3.19499,1.40000,4.00500,1.41000,4.00500,1.41000,0.0*%
%ADD18CUSTOMSHAPE18*%

%ADD19O,6.06003X4.79999*%
%ADD20R,0.80000X2.79999*%
%AMCUSTOMSHAPE21*
4,1,30,-4.00500,-1.41000,-4.00500,1.41000,4.00500,1.41000,4.00500,-1.40000,3.99499,-1.40000,3.20500,-1.40000,3.20500,0.60000,2.80500,0.60000,2.80500,-1.40000,2.00500,-1.40000,2.00500,0.59997,1.60500,0.59997,1.60500,-1.40000,0.80500,-1.40000,0.80500,0.59997,0.40500,0.59997,0.40500,-1.40000,-0.39500,-1.40000,-0.39500,0.59997,-0.79499,0.59997,-0.79499,-1.40000,-1.59499,-1.40000,-1.59499,0.59997,-1.99499,0.59997,-1.99499,-1.40000,-2.79499,-1.40000,-2.79499,0.59997,-3.19499,0.59997,-3.19499,-1.40000,-4.00500,-1.41000,-4.00500,-1.41000,0.0*%
%ADD21CUSTOMSHAPE21*%

%TA.AperFunction,ConnectorPad*%
%AMCUSTOMSHAPE22*
4,1,30,4.00500,1.41000,4.00500,-1.41000,-4.00500,-1.41000,-4.00500,1.40000,-3.99499,1.40000,-3.20500,1.40000,-3.20500,-0.60000,-2.80500,-0.60000,-2.80500,1.40000,-2.00500,1.40000,-2.00500,-0.59997,-1.60500,-0.59997,-1.60500,1.40000,-0.80500,1.40000,-0.80500,-0.59997,-0.40500,-0.59997,-0.40500,1.40000,0.39500,1.40000,0.39500,-0.59997,0.79499,-0.59997,0.79499,1.40000,1.59499,1.40000,1.59499,-0.59997,1.99499,-0.59997,1.99499,1.40000,2.79499,1.40000,2.79499,-0.59997,3.19499,-0.59997,3.19499,1.40000,4.00500,1.41000,4.00500,1.41000,0.0*%
%ADD22CUSTOMSHAPE22*%

%TA.AperFunction,Conductor*%
%ADD23C,0.50000*%
%TA.AperFunction,ComponentPad*%
%ADD24C,1.70000*%
%ADD25R,1.70000X1.70000*%
%TA.AperFunction,ViaPad*%
%ADD26C,1.00000*%
G36*
X4500000Y-6279021D02*
X4487795Y-6289517D01*
X4475332Y-6296022D01*
X4470000Y-6296818D01*
X4460126Y-6294817D01*
X4460032Y-6294817D01*
X4459946Y-6294781D01*
X4450110D01*
X4440235Y-6294745D01*
X4440148Y-6294781D01*
X4440055D01*
X4430959Y-6298548D01*
X4421830Y-6302291D01*
X4421764Y-6302357D01*
X4421677Y-6302393D01*
X4416146Y-6306089D01*
Y-6307267D01*
X3446148D01*
Y-6302246D01*
Y-5992733D01*
X3442267Y-5973224D01*
X3431216Y-5956685D01*
X3414677Y-5945634D01*
X3395168Y-5941754D01*
X3170000D01*
Y-5852500D01*
X2830000D01*
Y-5858268D01*
X2800000Y-5870694D01*
X2745828Y-5816522D01*
Y-5777278D01*
X2759751D01*
Y-5437278D01*
X2619751D01*
Y-5777278D01*
X2633673D01*
Y-5839750D01*
X2637942Y-5861210D01*
X2650098Y-5879403D01*
X2684732Y-5914037D01*
X2673252Y-5941754D01*
X1763855D01*
X1760000Y-5938590D01*
Y-4625000D01*
X4500000D01*
Y-6279021D01*
D02*
G37*
G36*
X1686145Y-5507269D02*
Y-5647268D01*
Y-6278368D01*
X1683769Y-6284569D01*
X1676479Y-6294408D01*
X1666146Y-6303868D01*
Y-6307267D01*
X696147D01*
Y-6302246D01*
Y-5992733D01*
D01*
X692267Y-5973224D01*
X681216Y-5956685D01*
X664677Y-5945634D01*
X645168Y-5941754D01*
X420000D01*
Y-5852500D01*
X80000D01*
Y-5858268D01*
X50000Y-5870694D01*
X-4172Y-5816522D01*
Y-5777278D01*
X9751D01*
Y-5437278D01*
X-130249D01*
Y-5777278D01*
X-116327D01*
Y-5839750D01*
X-112058Y-5861210D01*
X-99902Y-5879403D01*
X-65268Y-5914037D01*
X-76748Y-5941754D01*
X-975000D01*
X-990000Y-5929444D01*
Y-4625000D01*
X1686145D01*
Y-5507269D01*
D02*
G37*
G36*
X-1063855D02*
Y-5647268D01*
Y-6278368D01*
X-1066232Y-6284569D01*
X-1073521Y-6294408D01*
X-1083855Y-6303868D01*
Y-6307267D01*
X-2053853D01*
Y-6302246D01*
Y-5992733D01*
X-2057733Y-5973224D01*
X-2068784Y-5956685D01*
X-2085323Y-5945634D01*
X-2104832Y-5941754D01*
X-2330000D01*
Y-5852500D01*
X-2670000D01*
Y-5858268D01*
X-2700000Y-5870694D01*
X-2754172Y-5816522D01*
Y-5777278D01*
X-2740250D01*
Y-5437278D01*
X-2880249D01*
Y-5777278D01*
X-2866327D01*
Y-5839750D01*
X-2862058Y-5861210D01*
X-2849902Y-5879403D01*
X-2815268Y-5914037D01*
X-2826748Y-5941754D01*
X-3800000D01*
Y-4625000D01*
X-1063855D01*
Y-5507269D01*
D02*
G37*
G36*
X3395168Y-6307267D02*
X3399049Y-6326776D01*
X3410100Y-6343315D01*
X3426639Y-6354366D01*
X3446148Y-6358247D01*
X4416146D01*
X4435655Y-6354366D01*
X4450000Y-6344781D01*
X4462617Y-6347338D01*
X4500000Y-6361765D01*
Y-7400000D01*
X2875000D01*
Y-7110000D01*
X3580000D01*
Y-7056634D01*
X3580023Y-7056611D01*
X3595163Y-7030388D01*
X3603000Y-7001140D01*
Y-6970860D01*
X3595163Y-6941612D01*
X3580023Y-6915389D01*
X3580000Y-6915366D01*
Y-6862722D01*
X3580249D01*
Y-6522723D01*
X3440250D01*
Y-6692500D01*
X3166336D01*
X3156078Y-6680000D01*
Y-6047500D01*
X3170000D01*
Y-5992733D01*
X3395168D01*
Y-6307267D01*
D02*
G37*
G36*
X645168D02*
X649048Y-6326776D01*
X660100Y-6343315D01*
X676638Y-6354366D01*
X696147Y-6358247D01*
X1666146D01*
X1672740Y-6356935D01*
X1685740Y-6367604D01*
Y-7400000D01*
X1197500D01*
Y-7395000D01*
X1042500D01*
Y-7400000D01*
X125000D01*
Y-7110000D01*
X830000D01*
Y-7056634D01*
X830023Y-7056611D01*
X845163Y-7030388D01*
X853000Y-7001140D01*
Y-6970860D01*
X845163Y-6941612D01*
X830023Y-6915389D01*
X830000Y-6915366D01*
Y-6862722D01*
X830249D01*
Y-6522723D01*
X690250D01*
Y-6692500D01*
X413837D01*
X405590Y-6682451D01*
X406077Y-6680000D01*
Y-6047500D01*
X420000D01*
Y-5992733D01*
X645168D01*
Y-6307267D01*
D02*
G37*
G36*
X-2104832D02*
X-2100952Y-6326776D01*
X-2089901Y-6343315D01*
X-2073362Y-6354366D01*
X-2053853Y-6358247D01*
X-1083855D01*
X-1077260Y-6356935D01*
X-1064260Y-6367604D01*
Y-7400000D01*
X-2625000D01*
Y-7110000D01*
X-1920000D01*
Y-7056634D01*
X-1919977Y-7056611D01*
X-1904837Y-7030388D01*
X-1897000Y-7001140D01*
Y-6970860D01*
X-1904837Y-6941612D01*
X-1919977Y-6915389D01*
X-1920000Y-6915366D01*
Y-6862722D01*
X-1919751D01*
Y-6522723D01*
X-2059751D01*
Y-6692500D01*
X-2336163D01*
X-2344410Y-6682451D01*
X-2343923Y-6680000D01*
Y-6047500D01*
X-2330000D01*
Y-5992733D01*
X-2104832D01*
Y-6307267D01*
D02*
G37*
G36*
X2778541Y-6001809D02*
X2800000Y-6006077D01*
X2830000D01*
Y-6047500D01*
X3043923D01*
Y-6656772D01*
X2940347Y-6760347D01*
X2928192Y-6778540D01*
X2923923Y-6800000D01*
Y-6885586D01*
X2909389Y-6893977D01*
X2887977Y-6915389D01*
X2872837Y-6941612D01*
X2865000Y-6970860D01*
Y-7001140D01*
X2872837Y-7030388D01*
X2881863Y-7046020D01*
X2875000Y-7059020D01*
X2855491Y-7062901D01*
X2838952Y-7073952D01*
X2827901Y-7090491D01*
X2824021Y-7110000D01*
Y-7400000D01*
X2827901Y-7419509D01*
X2838952Y-7436048D01*
X2855491Y-7447099D01*
X2875000Y-7450980D01*
X4500000D01*
Y-8275000D01*
X-3800000D01*
Y-7400000D01*
Y-5992733D01*
X-2735042D01*
X-2721460Y-6001809D01*
X-2700000Y-6006077D01*
X-2670000D01*
Y-6047500D01*
X-2456077D01*
Y-6656772D01*
X-2559653Y-6760347D01*
X-2571809Y-6778540D01*
X-2576077Y-6800000D01*
Y-6885586D01*
X-2590612Y-6893977D01*
X-2612023Y-6915389D01*
X-2627163Y-6941612D01*
X-2635000Y-6970860D01*
Y-7001140D01*
X-2627163Y-7030388D01*
X-2618138Y-7046020D01*
X-2625000Y-7059020D01*
X-2644509Y-7062901D01*
X-2661048Y-7073952D01*
X-2672099Y-7090491D01*
X-2675980Y-7110000D01*
Y-7125000D01*
X-2889000D01*
Y-7355000D01*
X-2675980D01*
Y-7400000D01*
X-2672099Y-7419509D01*
X-2661048Y-7436048D01*
X-2644509Y-7447099D01*
X-2625000Y-7450980D01*
X-1064260D01*
X-1044751Y-7447099D01*
X-1028212Y-7436048D01*
X-1017161Y-7419509D01*
X-1013280Y-7400000D01*
X-975000D01*
Y-6792732D01*
X-986145D01*
Y-6652732D01*
X-975000D01*
Y-5992733D01*
X14958D01*
X28540Y-6001809D01*
X50000Y-6006077D01*
X80000D01*
Y-6047500D01*
X293923D01*
Y-6656772D01*
X190347Y-6760347D01*
X178191Y-6778540D01*
X173923Y-6800000D01*
Y-6885586D01*
X159389Y-6893977D01*
X137977Y-6915389D01*
X122837Y-6941612D01*
X115000Y-6970860D01*
Y-7001140D01*
X122837Y-7030388D01*
X131863Y-7046020D01*
X125000Y-7059020D01*
X105491Y-7062901D01*
X88952Y-7073952D01*
X77901Y-7090491D01*
X74020Y-7110000D01*
Y-7125000D01*
X-139000D01*
Y-7355000D01*
X-80077D01*
Y-7376000D01*
X-77889Y-7387000D01*
X-88556Y-7400000D01*
X-74111D01*
X-63653Y-7415653D01*
X39637Y-7518942D01*
X57830Y-7531098D01*
X79290Y-7535367D01*
X905000D01*
Y-7560000D01*
X1042500D01*
Y-7565000D01*
X1197500D01*
Y-7450980D01*
X1685740D01*
X1705249Y-7447099D01*
X1721788Y-7436048D01*
X1732839Y-7419509D01*
X1736720Y-7400000D01*
X1763855D01*
Y-6792732D01*
Y-6652732D01*
Y-5992733D01*
X2764958D01*
X2778541Y-6001809D01*
D02*
G37*
%LPC*%
G36*
X3390000Y-4664007D02*
X2810001D01*
Y-5073993D01*
X3390000D01*
Y-4664007D01*
D02*
G37*
G36*
X639999D02*
X60001D01*
Y-5073993D01*
X639999D01*
Y-4664007D01*
D02*
G37*
G36*
X-2110001D02*
X-2689999D01*
Y-5073993D01*
X-2110001D01*
Y-4664007D01*
D02*
G37*
G36*
X2741140Y-6871000D02*
X2710860D01*
X2681612Y-6878837D01*
X2655389Y-6893977D01*
X2633977Y-6915389D01*
X2618837Y-6941612D01*
X2611000Y-6970860D01*
Y-7001140D01*
X2618837Y-7030388D01*
X2633977Y-7056611D01*
X2655389Y-7078023D01*
X2681612Y-7093163D01*
X2710860Y-7101000D01*
X2741140D01*
X2770388Y-7093163D01*
X2796612Y-7078023D01*
X2818023Y-7056611D01*
X2833163Y-7030388D01*
X2841000Y-7001140D01*
Y-6970860D01*
X2833163Y-6941612D01*
X2818023Y-6915389D01*
X2796612Y-6893977D01*
X2770388Y-6878837D01*
X2741140Y-6871000D01*
D02*
G37*
G36*
X-8860D02*
X-39140D01*
X-68388Y-6878837D01*
X-94611Y-6893977D01*
X-116023Y-6915389D01*
X-131163Y-6941612D01*
X-139000Y-6970860D01*
Y-7001140D01*
X-131163Y-7030388D01*
X-116023Y-7056611D01*
X-94611Y-7078023D01*
X-68388Y-7093163D01*
X-39140Y-7101000D01*
X-8860D01*
X20388Y-7093163D01*
X46612Y-7078023D01*
X68023Y-7056611D01*
X83163Y-7030388D01*
X91000Y-7001140D01*
Y-6970860D01*
X83163Y-6941612D01*
X68023Y-6915389D01*
X46612Y-6893977D01*
X20388Y-6878837D01*
X-8860Y-6871000D01*
D02*
G37*
G36*
X-2758860D02*
X-2789140D01*
X-2818388Y-6878837D01*
X-2844612Y-6893977D01*
X-2866023Y-6915389D01*
X-2881163Y-6941612D01*
X-2889000Y-6970860D01*
Y-7001140D01*
X-2881163Y-7030388D01*
X-2866023Y-7056611D01*
X-2844612Y-7078023D01*
X-2818388Y-7093163D01*
X-2789140Y-7101000D01*
X-2758860D01*
X-2729612Y-7093163D01*
X-2703389Y-7078023D01*
X-2681977Y-7056611D01*
X-2666837Y-7030388D01*
X-2659000Y-7001140D01*
Y-6970860D01*
X-2666837Y-6941612D01*
X-2681977Y-6915389D01*
X-2703389Y-6893977D01*
X-2729612Y-6878837D01*
X-2758860Y-6871000D01*
D02*
G37*
%LPD*%
D10*
X1120000Y-7340000D02*
D03*
Y-7480000D02*
D03*
D11*
X980000Y-7495000D02*
D03*
Y-7325000D02*
D03*
D12*
X-2140000Y-6790000D02*
D03*
X-2300000D02*
D03*
X3370000D02*
D03*
X3210000D02*
D03*
X2920000Y-5950000D02*
D03*
X3080000D02*
D03*
X610000Y-6790000D02*
D03*
X450000D02*
D03*
X170000Y-5950000D02*
D03*
X330000D02*
D03*
X-2580000D02*
D03*
X-2420000D02*
D03*
D13*
X3100000Y-5631000D02*
D03*
Y-4869000D02*
D03*
X350000Y-5631000D02*
D03*
Y-4869000D02*
D03*
X-2400000Y-5631000D02*
D03*
Y-4869000D02*
D03*
D14*
X2948260Y-6530000D02*
D03*
X3251739D02*
D03*
X2948261Y-6200000D02*
D03*
X3251740D02*
D03*
X198260Y-6530000D02*
D03*
X501740D02*
D03*
X198260Y-6200000D02*
D03*
X501740D02*
D03*
X-2551740Y-6530000D02*
D03*
X-2248260D02*
D03*
X-2551740Y-6200000D02*
D03*
X-2248260D02*
D03*
D15*
X3989743Y-6693256D02*
D03*
D16*
X3931153Y-5907253D02*
D03*
X-3231153Y-6392748D02*
D03*
D17*
X3510250Y-6692722D02*
D03*
X-2810249Y-5607278D02*
D03*
D18*
X2210257Y-5606745D02*
D03*
X-539743D02*
D03*
D19*
X2268847Y-6392748D02*
D03*
X1181153Y-5907253D02*
D03*
X-481153Y-6392748D02*
D03*
X-1568847Y-5907253D02*
D03*
D20*
X2689751Y-5607278D02*
D03*
X760249Y-6692722D02*
D03*
X-60249Y-5607278D02*
D03*
X-1989751Y-6692722D02*
D03*
D21*
X1239743Y-6693256D02*
D03*
X-1510257D02*
D03*
D22*
X-3289743Y-5606745D02*
D03*
D23*
X956435Y-7481434D02*
X1003566D01*
X-24000Y-7376000D02*
X79290Y-7479290D01*
X954290D01*
X1003566Y-7481434D02*
X1005000Y-7480000D01*
X954290Y-7479290D02*
X956435Y-7481434D01*
X-24000Y-7376000D02*
Y-7240000D01*
X1005000Y-7480000D02*
X1120000D01*
X3100000Y-6680000D02*
Y-5970000D01*
X2980000Y-6986000D02*
Y-6800000D01*
X3100000Y-6680000D01*
X-2400000Y-6680000D02*
Y-5970000D01*
X-2520000Y-6800000D02*
X-2400000Y-6680000D01*
X-2520000Y-6986000D02*
Y-6800000D01*
X230000Y-6986000D02*
Y-6800000D01*
X350000Y-6680000D02*
Y-5970000D01*
X230000Y-6800000D02*
X350000Y-6680000D01*
X2689751Y-5839750D02*
Y-5607278D01*
Y-5839750D02*
X2800000Y-5950000D01*
X2920000D01*
X3495250Y-6800000D02*
X3510250Y-6785000D01*
Y-6692722D01*
X3380000Y-6800000D02*
X3495250D01*
X3080000Y-5950000D02*
X3100000Y-5970000D01*
X3227000Y-6979000D02*
X3234000Y-6986000D01*
X3227000Y-6979000D02*
Y-6807000D01*
X-60249Y-5839750D02*
Y-5607278D01*
Y-5839750D02*
X50000Y-5950000D01*
X170000D01*
X745249Y-6800000D02*
X760249Y-6785000D01*
Y-6692722D01*
X630000Y-6800000D02*
X745249D01*
X330000Y-5950000D02*
X350000Y-5970000D01*
X477000Y-6979000D02*
X484000Y-6986000D01*
X477000Y-6979000D02*
Y-6807000D01*
X-2273000Y-6979000D02*
Y-6807000D01*
Y-6979000D02*
X-2266000Y-6986000D01*
X-2420000Y-5950000D02*
X-2400000Y-5970000D01*
X-2120000Y-6800000D02*
X-2004751D01*
X-1989751Y-6785000D02*
Y-6692722D01*
X-2004751Y-6800000D02*
X-1989751Y-6785000D01*
X-2700000Y-5950000D02*
X-2580000D01*
X-2810249Y-5839750D02*
X-2700000Y-5950000D01*
X-2810249Y-5839750D02*
Y-5607278D01*
D24*
X-2774000Y-6986000D02*
D03*
X-2520000D02*
D03*
X-2266000D02*
D03*
X-24000D02*
D03*
X230000D02*
D03*
X484000D02*
D03*
X2726000D02*
D03*
X2980000D02*
D03*
X3234000D02*
D03*
X2980000Y-7240000D02*
D03*
X3234000D02*
D03*
X3488000D02*
D03*
Y-6986000D02*
D03*
X230000Y-7240000D02*
D03*
X484000D02*
D03*
X738000D02*
D03*
Y-6986000D02*
D03*
X-2520000Y-7240000D02*
D03*
X-2266000D02*
D03*
X-2012000D02*
D03*
Y-6986000D02*
D03*
D25*
X2726000Y-7240000D02*
D03*
X-24000D02*
D03*
X-2774000D02*
D03*
D26*
X-2969716Y-5397714D02*
D03*
X-3269716D02*
D03*
X-3569716D02*
D03*
X-825325Y-5401927D02*
D03*
X-525325D02*
D03*
X-225325D02*
D03*
X2530000Y-5400000D02*
D03*
X2230000D02*
D03*
X1930000D02*
D03*
X-2950000Y-5900000D02*
D03*
X-220000Y-5100000D02*
D03*
X-520000D02*
D03*
X-820000D02*
D03*
X880000Y-5900000D02*
D03*
Y-6100000D02*
D03*
Y-4800000D02*
D03*
X1180000Y-5400000D02*
D03*
X1480000Y-5100000D02*
D03*
X1180000Y-4800000D02*
D03*
Y-5100000D02*
D03*
Y-5700000D02*
D03*
Y-6100000D02*
D03*
X-520000Y-4800000D02*
D03*
X1480000Y-5400000D02*
D03*
X-220000Y-4800000D02*
D03*
X1180000Y-5900000D02*
D03*
X880000Y-5100000D02*
D03*
Y-5700000D02*
D03*
X1480000D02*
D03*
X880000Y-5400000D02*
D03*
X1480000Y-4800000D02*
D03*
Y-6100000D02*
D03*
X-820000Y-4800000D02*
D03*
X1480000Y-5900000D02*
D03*
X-1575000Y-6100000D02*
D03*
X-1275000Y-5400000D02*
D03*
Y-5900000D02*
D03*
Y-5700000D02*
D03*
X-1875000Y-6100000D02*
D03*
X-3575000Y-5100000D02*
D03*
X-1575000Y-5700000D02*
D03*
X-3275000Y-4800000D02*
D03*
X-1875000D02*
D03*
X-1275000Y-5100000D02*
D03*
X-1875000Y-5400000D02*
D03*
X-1275000Y-6100000D02*
D03*
X-3275000Y-5100000D02*
D03*
X-2975000D02*
D03*
X-1875000D02*
D03*
X-1275000Y-4800000D02*
D03*
X-1875000Y-5700000D02*
D03*
X-1575000Y-5900000D02*
D03*
X-1575000Y-5100000D02*
D03*
X-2975000Y-4800000D02*
D03*
X-1575000Y-5400000D02*
D03*
X-1875000Y-5900000D02*
D03*
X-3575000Y-4800000D02*
D03*
X-1575000D02*
D03*
X3925000Y-6100000D02*
D03*
Y-5700000D02*
D03*
Y-5900000D02*
D03*
X3625000Y-6100000D02*
D03*
X4225000D02*
D03*
X3625000Y-5900000D02*
D03*
X4225000D02*
D03*
X3625000Y-5700000D02*
D03*
X4225000D02*
D03*
X3625000Y-5400000D02*
D03*
X3925000D02*
D03*
X4225000D02*
D03*
Y-4800000D02*
D03*
X3925000D02*
D03*
X3625000D02*
D03*
X4225000Y-5100000D02*
D03*
X3925000D02*
D03*
X3625000D02*
D03*
X1925000Y-4800000D02*
D03*
X2225000D02*
D03*
X2525000D02*
D03*
X1925000Y-5100000D02*
D03*
X2225000D02*
D03*
X2525000D02*
D03*
X-200000Y-5900000D02*
D03*
X2550000D02*
D03*
X3300000Y-4950000D02*
D03*
X550000D02*
D03*
X-2200000D02*
D03*
%TF.MD5,c6e799375380266de4a5adb958cb076b*%
M02*
