%TF.GenerationSoftware,Altium Limited,Altium Designer,24.0.1 (36)*%
G04 Layer_Color=8388736*
%FSLAX45Y45*%
%MOMM*%
%TF.SameCoordinates,1D19F893-C717-4D0B-B0CE-957F46A24576*%
%TF.FilePolarity,Negative*%
%TF.FileFunction,Soldermask,Top*%
%TF.Part,Single*%
G01*
G75*
%TA.AperFunction,NonConductor*%
%ADD80C,0.25000*%
%TA.AperFunction,SMDPad,CuDef*%
%ADD81C,1.20320*%
%ADD82R,1.15320X1.30320*%
%ADD83R,1.30320X1.15320*%
%ADD84R,1.10320X0.90320*%
%ADD85R,0.65004X1.20002*%
%ADD86R,0.40002X1.20002*%
%ADD87O,2.24820X0.79121*%
%ADD88O,2.15341X0.77160*%
%ADD89R,2.80159X1.73660*%
%ADD90R,0.90160X0.90160*%
%ADD91R,0.30160X0.60660*%
%ADD92R,0.60660X0.30160*%
%ADD93R,1.80160X1.80160*%
%ADD94R,0.90320X1.10320*%
%ADD95O,1.60002X0.37003*%
%ADD96O,0.37003X1.60002*%
%ADD97R,1.60320X1.40320*%
%ADD98R,1.00320X1.00320*%
%ADD99R,1.40320X0.80320*%
%ADD100R,1.05321X2.20320*%
%ADD101R,1.15321X1.40320*%
%ADD102R,2.67320X1.18321*%
%ADD103R,2.67320X3.80319*%
%ADD104C,1.70320*%
%ADD105O,0.80320X1.80320*%
%ADD106R,3.40319X2.70319*%
%ADD107R,2.35321X3.52321*%
%TA.AperFunction,ComponentPad*%
%ADD108O,1.30002X1.90002*%
%ADD109O,1.20002X2.10002*%
%ADD110C,2.00320*%
%ADD111R,2.00320X2.00320*%
%ADD112C,1.95320*%
%ADD113R,1.95320X1.95320*%
%ADD114R,1.95320X1.95320*%
%ADD115C,1.60002*%
%TA.AperFunction,ViaPad*%
%ADD116C,0.20320*%
%ADD117C,0.70320*%
%ADD118C,0.80320*%
G36*
X607976Y-459929D02*
X608476Y-459976D01*
X608489Y-459980D01*
X608502Y-459981D01*
X608968Y-460123D01*
X609439Y-460263D01*
X609450Y-460269D01*
X609463Y-460273D01*
X609887Y-460499D01*
X610327Y-460732D01*
X610338Y-460741D01*
X610349Y-460746D01*
X610727Y-461057D01*
X611107Y-461365D01*
X611115Y-461375D01*
X611126Y-461384D01*
X611442Y-461769D01*
X611749Y-462139D01*
X611755Y-462150D01*
X611763Y-462160D01*
X611986Y-462577D01*
X612227Y-463022D01*
X612231Y-463035D01*
X612237Y-463046D01*
X612374Y-463499D01*
X612523Y-463982D01*
X612524Y-463996D01*
X612528Y-464008D01*
X612575Y-464484D01*
X612627Y-464982D01*
X612677Y-474982D01*
X612676Y-474994D01*
X612678Y-475009D01*
X612627Y-475518D01*
X612584Y-475982D01*
X612580Y-475995D01*
X612579Y-476009D01*
X612437Y-476474D01*
X612297Y-476945D01*
X612290Y-476957D01*
X612287Y-476970D01*
X612074Y-477367D01*
X611828Y-477833D01*
X611818Y-477845D01*
X611813Y-477856D01*
X611535Y-478194D01*
X611195Y-478613D01*
X611183Y-478623D01*
X611175Y-478633D01*
X601178Y-488622D01*
X601177Y-488624D01*
X601175Y-488625D01*
D01*
X601145Y-488650D01*
X600400Y-489261D01*
X599514Y-489734D01*
X599513Y-489735D01*
X599512Y-489735D01*
X598669Y-489991D01*
X598553Y-490026D01*
X598552D01*
X598551Y-490026D01*
X597896Y-490091D01*
X597553Y-490124D01*
X557002D01*
X556002Y-490026D01*
X555041Y-489734D01*
X554155Y-489261D01*
X553378Y-488624D01*
X552741Y-487847D01*
X552267Y-486961D01*
X551976Y-486000D01*
X551877Y-485000D01*
Y-465007D01*
X551976Y-464008D01*
X552267Y-463046D01*
X552741Y-462160D01*
X553378Y-461384D01*
X554155Y-460746D01*
X555041Y-460273D01*
X556002Y-459981D01*
X557002Y-459883D01*
X607502D01*
X607976Y-459929D01*
D02*
G37*
G36*
X625030Y-487326D02*
X625045Y-487325D01*
X635043Y-487383D01*
X635544Y-487436D01*
X636012Y-487482D01*
X636026Y-487486D01*
X636042Y-487488D01*
X636527Y-487638D01*
X636974Y-487773D01*
X636987Y-487780D01*
X637002Y-487785D01*
X637437Y-488021D01*
X637860Y-488247D01*
X637871Y-488257D01*
X637885Y-488264D01*
X638252Y-488569D01*
X638637Y-488884D01*
X638646Y-488896D01*
X638658Y-488906D01*
X638971Y-489291D01*
X639274Y-489661D01*
X639280Y-489673D01*
X639291Y-489686D01*
X639528Y-490136D01*
X639747Y-490547D01*
X639752Y-490561D01*
X639759Y-490575D01*
X639900Y-491051D01*
X640039Y-491508D01*
X640040Y-491523D01*
X640045Y-491538D01*
X640091Y-492036D01*
X640137Y-492508D01*
Y-543011D01*
X640039Y-544011D01*
X639747Y-544972D01*
X639274Y-545858D01*
X638637Y-546635D01*
X637860Y-547272D01*
X636974Y-547745D01*
X636012Y-548037D01*
X635013Y-548136D01*
X615015D01*
X614016Y-548037D01*
X613054Y-547745D01*
X612168Y-547272D01*
X611391Y-546635D01*
X610754Y-545858D01*
X610281Y-544972D01*
X609989Y-544011D01*
X609891Y-543011D01*
Y-502465D01*
X609890Y-502462D01*
X609989Y-501463D01*
X609989Y-501461D01*
Y-501460D01*
X610139Y-500966D01*
X610280Y-500501D01*
X610280Y-500500D01*
X610281Y-500499D01*
X610587Y-499925D01*
X610753Y-499615D01*
X610753Y-499614D01*
X610754Y-499613D01*
X611251Y-499007D01*
X611390Y-498838D01*
X611390Y-498837D01*
X611391Y-498836D01*
X611393Y-498835D01*
X621390Y-488828D01*
X621402Y-488818D01*
X621413Y-488805D01*
X621805Y-488486D01*
X622166Y-488190D01*
X622180Y-488183D01*
X622193Y-488172D01*
X622640Y-487937D01*
X623052Y-487716D01*
X623067Y-487711D01*
X623082Y-487704D01*
X623561Y-487561D01*
X624013Y-487424D01*
X624029Y-487422D01*
X624045Y-487418D01*
X624521Y-487373D01*
X625013Y-487325D01*
X625030Y-487326D01*
D02*
G37*
G36*
X825502Y-487376D02*
X825979Y-487421D01*
X825992Y-487425D01*
X826004Y-487426D01*
X826457Y-487563D01*
X826942Y-487708D01*
X826954Y-487714D01*
X826966Y-487718D01*
X827362Y-487929D01*
X827830Y-488177D01*
X827842Y-488186D01*
X827852Y-488191D01*
X828201Y-488477D01*
X828610Y-488810D01*
X828619Y-488820D01*
X828629Y-488828D01*
X838627Y-498827D01*
X838628Y-498828D01*
X839266Y-499605D01*
X839739Y-500491D01*
X840031Y-501452D01*
X840130Y-502452D01*
X840129Y-502455D01*
Y-543001D01*
X840031Y-544000D01*
X839739Y-544962D01*
X839266Y-545848D01*
X838628Y-546625D01*
X837852Y-547262D01*
X836966Y-547735D01*
X836004Y-548027D01*
X835005Y-548125D01*
X815005D01*
X814005Y-548027D01*
X813044Y-547735D01*
X812158Y-547262D01*
X811381Y-546625D01*
X810744Y-545848D01*
X810270Y-544962D01*
X809979Y-544000D01*
X809880Y-543001D01*
Y-492503D01*
X809927Y-492028D01*
X809973Y-491529D01*
X809977Y-491516D01*
X809979Y-491503D01*
X810120Y-491037D01*
X810260Y-490566D01*
X810266Y-490555D01*
X810270Y-490542D01*
X810497Y-490118D01*
X810729Y-489677D01*
X810738Y-489667D01*
X810744Y-489656D01*
X811054Y-489278D01*
X811363Y-488898D01*
X811372Y-488890D01*
X811381Y-488879D01*
X811766Y-488563D01*
X812136Y-488256D01*
X812148Y-488250D01*
X812158Y-488242D01*
X812574Y-488019D01*
X813019Y-487778D01*
X813033Y-487774D01*
X813044Y-487768D01*
X813496Y-487631D01*
X813980Y-487482D01*
X813993Y-487481D01*
X814005Y-487477D01*
X814481Y-487430D01*
X814979Y-487378D01*
X824979Y-487327D01*
X824991Y-487328D01*
X825005Y-487327D01*
X825502Y-487376D01*
D02*
G37*
G36*
X894003Y-459984D02*
X894964Y-460275D01*
X895850Y-460749D01*
X896627Y-461386D01*
X897264Y-462163D01*
X897738Y-463049D01*
X898029Y-464010D01*
X898128Y-465010D01*
Y-485007D01*
X898029Y-486007D01*
X897738Y-486969D01*
X897264Y-487854D01*
X896627Y-488631D01*
X895850Y-489269D01*
X894964Y-489742D01*
X894003Y-490034D01*
X893003Y-490132D01*
X852454D01*
X852451Y-490132D01*
X851451Y-490034D01*
X850780Y-489830D01*
X850491Y-489742D01*
X850490Y-489742D01*
D01*
X850429Y-489709D01*
X849605Y-489269D01*
X848828Y-488631D01*
X848827Y-488630D01*
X838830Y-478630D01*
X838823Y-478622D01*
X838813Y-478614D01*
X838483Y-478207D01*
X838193Y-477854D01*
X838188Y-477844D01*
X838180Y-477834D01*
X837942Y-477383D01*
X837720Y-476968D01*
X837716Y-476957D01*
X837711Y-476946D01*
X837574Y-476486D01*
X837428Y-476007D01*
X837427Y-475994D01*
X837424Y-475983D01*
X837380Y-475523D01*
X837330Y-475007D01*
X837331Y-474994D01*
X837330Y-474983D01*
X837378Y-464985D01*
X837430Y-464488D01*
X837477Y-464010D01*
X837480Y-463999D01*
X837481Y-463986D01*
X837628Y-463511D01*
X837768Y-463049D01*
X837774Y-463038D01*
X837778Y-463026D01*
X838009Y-462598D01*
X838242Y-462163D01*
X838250Y-462153D01*
X838255Y-462143D01*
X838556Y-461780D01*
X838879Y-461386D01*
X838889Y-461378D01*
X838896Y-461369D01*
X839254Y-461079D01*
X839656Y-460749D01*
X839667Y-460743D01*
X839676Y-460735D01*
X840091Y-460516D01*
X840542Y-460275D01*
X840554Y-460272D01*
X840564Y-460266D01*
X841013Y-460132D01*
X841503Y-459984D01*
X841516Y-459983D01*
X841527Y-459979D01*
X841974Y-459937D01*
X842503Y-459885D01*
X893003D01*
X894003Y-459984D01*
D02*
G37*
G36*
X636000Y-201976D02*
X636961Y-202267D01*
X637847Y-202741D01*
X638624Y-203378D01*
X639261Y-204155D01*
X639735Y-205041D01*
X640026Y-206002D01*
X640125Y-207002D01*
Y-257502D01*
X640078Y-257977D01*
X640031Y-258476D01*
X640027Y-258489D01*
X640026Y-258502D01*
X639885Y-258968D01*
X639744Y-259439D01*
X639738Y-259451D01*
X639735Y-259463D01*
X639508Y-259887D01*
X639276Y-260328D01*
X639267Y-260338D01*
X639261Y-260349D01*
X638951Y-260727D01*
X638642Y-261107D01*
X638632Y-261115D01*
X638624Y-261126D01*
X638238Y-261442D01*
X637869Y-261749D01*
X637857Y-261755D01*
X637847Y-261763D01*
X637431Y-261986D01*
X636985Y-262227D01*
X636972Y-262231D01*
X636961Y-262237D01*
X636509Y-262374D01*
X636025Y-262523D01*
X636012Y-262524D01*
X636000Y-262528D01*
X635523Y-262575D01*
X635026Y-262627D01*
X625026Y-262678D01*
X625014Y-262677D01*
X625000Y-262678D01*
X624503Y-262629D01*
X624026Y-262584D01*
X624013Y-262580D01*
X624000Y-262579D01*
X623548Y-262442D01*
X623063Y-262297D01*
X623051Y-262291D01*
X623039Y-262288D01*
X622643Y-262076D01*
X622175Y-261829D01*
X622163Y-261819D01*
X622153Y-261814D01*
X621804Y-261528D01*
X621394Y-261195D01*
X621386Y-261185D01*
X621376Y-261177D01*
X611378Y-251178D01*
X611376Y-251177D01*
X610739Y-250400D01*
X610265Y-249514D01*
X609974Y-248553D01*
X609875Y-247553D01*
X609875Y-247550D01*
Y-207002D01*
X609974Y-206002D01*
X610265Y-205041D01*
X610739Y-204155D01*
X611376Y-203378D01*
X612153Y-202741D01*
X613039Y-202267D01*
X614000Y-201976D01*
X615000Y-201877D01*
X635000D01*
X636000Y-201976D01*
D02*
G37*
G36*
X598553Y-259974D02*
X599514Y-260266D01*
X600400Y-260739D01*
X601177Y-261376D01*
X611177Y-271377D01*
X611185Y-271386D01*
X611195Y-271395D01*
X611513Y-271787D01*
X611814Y-272153D01*
X611820Y-272164D01*
X611828Y-272175D01*
X612061Y-272615D01*
X612287Y-273039D01*
X612291Y-273052D01*
X612297Y-273063D01*
X612431Y-273512D01*
X612579Y-274000D01*
X612580Y-274015D01*
X612584Y-274026D01*
X612626Y-274476D01*
X612678Y-275000D01*
X612676Y-275014D01*
X612677Y-275026D01*
X612627Y-285026D01*
X612575Y-285529D01*
X612528Y-286000D01*
X612525Y-286012D01*
X612523Y-286026D01*
X612372Y-286516D01*
X612237Y-286961D01*
X612231Y-286972D01*
X612227Y-286985D01*
X611980Y-287441D01*
X611763Y-287847D01*
X611755Y-287857D01*
X611749Y-287869D01*
X611422Y-288262D01*
X611126Y-288624D01*
X611116Y-288632D01*
X611107Y-288643D01*
X610712Y-288964D01*
X610349Y-289261D01*
X610338Y-289267D01*
X610327Y-289276D01*
X609887Y-289508D01*
X609463Y-289735D01*
X609450Y-289739D01*
X609439Y-289745D01*
X608968Y-289885D01*
X608502Y-290026D01*
X608489Y-290028D01*
X608476Y-290031D01*
X607976Y-290078D01*
X607502Y-290125D01*
X557002D01*
X556002Y-290026D01*
X555041Y-289735D01*
X554155Y-289261D01*
X553378Y-288624D01*
X552741Y-287847D01*
X552267Y-286961D01*
X551976Y-286000D01*
X551877Y-285000D01*
Y-265000D01*
X551976Y-264000D01*
X552267Y-263039D01*
X552741Y-262153D01*
X553378Y-261376D01*
X554155Y-260739D01*
X555041Y-260266D01*
X556002Y-259974D01*
X557002Y-259876D01*
X597550D01*
X597553Y-259875D01*
X598553Y-259974D01*
D02*
G37*
G36*
X836004Y-201981D02*
X836966Y-202272D01*
X837852Y-202746D01*
X838628Y-203383D01*
X839266Y-204160D01*
X839739Y-205046D01*
X840031Y-206007D01*
X840129Y-207007D01*
Y-247554D01*
X840130Y-247557D01*
X840031Y-248557D01*
X840031Y-248557D01*
Y-248558D01*
X839881Y-249053D01*
X839740Y-249518D01*
X839739Y-249518D01*
X839739Y-249519D01*
X839266Y-250405D01*
X838628Y-251182D01*
X838627Y-251183D01*
X828629Y-261186D01*
X828619Y-261194D01*
X828609Y-261206D01*
X828206Y-261533D01*
X827853Y-261823D01*
X827841Y-261830D01*
X827829Y-261839D01*
X827382Y-262075D01*
X826967Y-262297D01*
X826953Y-262301D01*
X826940Y-262308D01*
X826486Y-262443D01*
X826006Y-262589D01*
X825990Y-262591D01*
X825978Y-262595D01*
X825526Y-262637D01*
X825006Y-262688D01*
X824991Y-262687D01*
X824977Y-262688D01*
X814977Y-262634D01*
X814475Y-262582D01*
X814005Y-262536D01*
X813992Y-262532D01*
X813978Y-262531D01*
X813488Y-262379D01*
X813044Y-262244D01*
X813032Y-262238D01*
X813018Y-262234D01*
X812567Y-261990D01*
X812158Y-261771D01*
X812147Y-261762D01*
X812135Y-261756D01*
X811745Y-261433D01*
X811381Y-261134D01*
X811373Y-261123D01*
X811362Y-261114D01*
X811047Y-260727D01*
X810744Y-260357D01*
X810737Y-260345D01*
X810728Y-260334D01*
X810499Y-259900D01*
X810270Y-259471D01*
X810266Y-259458D01*
X810260Y-259446D01*
X810120Y-258975D01*
X809979Y-258510D01*
X809977Y-258496D01*
X809973Y-258483D01*
X809927Y-257985D01*
X809880Y-257510D01*
Y-207007D01*
X809979Y-206007D01*
X810270Y-205046D01*
X810744Y-204160D01*
X811381Y-203383D01*
X812158Y-202746D01*
X813044Y-202272D01*
X814005Y-201981D01*
X815005Y-201882D01*
X835005D01*
X836004Y-201981D01*
D02*
G37*
G36*
X852448Y-259888D02*
X892995D01*
X893995Y-259987D01*
X894957Y-260278D01*
X895843Y-260752D01*
X896619Y-261389D01*
X897257Y-262166D01*
X897730Y-263052D01*
X898022Y-264013D01*
X898120Y-265013D01*
Y-285005D01*
X898022Y-286005D01*
X897730Y-286966D01*
X897257Y-287852D01*
X896619Y-288629D01*
X895843Y-289266D01*
X894957Y-289740D01*
X893995Y-290031D01*
X892995Y-290130D01*
X842495D01*
X842020Y-290083D01*
X841522Y-290037D01*
X841509Y-290033D01*
X841495Y-290031D01*
X841030Y-289890D01*
X840559Y-289750D01*
X840547Y-289744D01*
X840534Y-289740D01*
X840105Y-289511D01*
X839671Y-289282D01*
X839660Y-289273D01*
X839648Y-289266D01*
X839278Y-288963D01*
X838891Y-288648D01*
X838882Y-288637D01*
X838871Y-288629D01*
X838562Y-288253D01*
X838249Y-287875D01*
X838243Y-287863D01*
X838234Y-287852D01*
X838005Y-287424D01*
X837771Y-286992D01*
X837767Y-286978D01*
X837761Y-286966D01*
X837624Y-286516D01*
X837474Y-286032D01*
X837473Y-286018D01*
X837469Y-286005D01*
X837423Y-285535D01*
X837370Y-285033D01*
X837317Y-275038D01*
X837318Y-275024D01*
X837317Y-275009D01*
X837366Y-274516D01*
X837410Y-274037D01*
X837415Y-274023D01*
X837416Y-274009D01*
X837553Y-273557D01*
X837697Y-273074D01*
X837704Y-273061D01*
X837708Y-273048D01*
X837925Y-272641D01*
X838165Y-272186D01*
X838175Y-272174D01*
X838181Y-272162D01*
X838462Y-271820D01*
X838799Y-271406D01*
X838811Y-271396D01*
X838819Y-271386D01*
X848819Y-261391D01*
X848821Y-261389D01*
X849597Y-260752D01*
X849597Y-260752D01*
X849598Y-260751D01*
X850096Y-260485D01*
X850483Y-260278D01*
X850484Y-260278D01*
X850484Y-260278D01*
X851446Y-259986D01*
X852446Y-259888D01*
X852448Y-259888D01*
D02*
G37*
D80*
X-775000Y100000D02*
X-574997Y-100003D01*
D81*
X-3608750Y-978750D02*
D03*
X-1300000Y-1075000D02*
D03*
X225000Y-1050000D02*
D03*
X675000Y-650000D02*
D03*
X500000Y-825000D02*
D03*
X350000Y-900000D02*
D03*
X-400000Y-950000D02*
D03*
X-625000Y-900000D02*
D03*
X-1024998Y-995002D02*
D03*
X-1150000Y-1175000D02*
D03*
X-1375000Y-1300000D02*
D03*
X-3150000Y-1350000D02*
D03*
X-3275000Y-1225000D02*
D03*
X-3875000Y-975000D02*
D03*
X-3116443Y-710000D02*
D03*
D82*
X-2749999Y-344999D02*
D03*
Y-204999D02*
D03*
X1025000Y-155000D02*
D03*
Y-295000D02*
D03*
X2500000Y-1250000D02*
D03*
Y-1110000D02*
D03*
X2979490Y-1634500D02*
D03*
Y-1494500D02*
D03*
X2970000Y-1980000D02*
D03*
Y-1840000D02*
D03*
X2025000Y-2043724D02*
D03*
Y-2183724D02*
D03*
X-270510Y-1634500D02*
D03*
Y-1494500D02*
D03*
X-280000Y-1840000D02*
D03*
Y-1980000D02*
D03*
X1025000Y-455000D02*
D03*
Y-595000D02*
D03*
X-1225000Y-2183724D02*
D03*
Y-2043724D02*
D03*
X-750000Y-1110000D02*
D03*
Y-1250000D02*
D03*
X-174999Y645002D02*
D03*
Y504997D02*
D03*
X-1885004Y409999D02*
D03*
Y270000D02*
D03*
X-4015000Y-1115000D02*
D03*
Y-1255000D02*
D03*
X-3535510Y-1639500D02*
D03*
Y-1499500D02*
D03*
X-3545000Y-1845000D02*
D03*
Y-1985000D02*
D03*
X-4490000Y-2188724D02*
D03*
Y-2048724D02*
D03*
X-2700002Y-1889999D02*
D03*
Y-2029999D02*
D03*
D83*
X655000Y-125000D02*
D03*
X795000D02*
D03*
X-429999Y-374999D02*
D03*
X-569999D02*
D03*
X-1420001Y575001D02*
D03*
X-1280001D02*
D03*
X-1720002Y574999D02*
D03*
X-1580002D02*
D03*
X-1669998Y-150002D02*
D03*
X-1529998D02*
D03*
X-1670001Y-25001D02*
D03*
X-1530002D02*
D03*
X-1179998Y724999D02*
D03*
X-1319998D02*
D03*
X981986Y-1352148D02*
D03*
X1121985D02*
D03*
D84*
X-150000Y-2734999D02*
D03*
Y-2565002D02*
D03*
X2325000Y-1095000D02*
D03*
Y-1265000D02*
D03*
X2675000Y-1265000D02*
D03*
Y-1095000D02*
D03*
X1650001Y-1684999D02*
D03*
Y-1515002D02*
D03*
X-575000Y-1095000D02*
D03*
Y-1265000D02*
D03*
X-925000Y-1265000D02*
D03*
Y-1095000D02*
D03*
X-3149998Y309999D02*
D03*
Y140001D02*
D03*
X-3449999Y309999D02*
D03*
Y140001D02*
D03*
X-4190000Y-1270000D02*
D03*
Y-1100000D02*
D03*
X-3150002Y-2684997D02*
D03*
Y-2515000D02*
D03*
X-3275002Y-2340002D02*
D03*
Y-2509999D02*
D03*
X-3840000Y-1100000D02*
D03*
Y-1270000D02*
D03*
X1260000Y-2834999D02*
D03*
Y-2665002D02*
D03*
Y-2395003D02*
D03*
Y-2565000D02*
D03*
X-1975005Y-1849999D02*
D03*
Y-2019996D02*
D03*
X-1975000Y-1719997D02*
D03*
Y-1550000D02*
D03*
X100002Y-1515000D02*
D03*
X-1800000Y-2019997D02*
D03*
X100002Y-1684997D02*
D03*
X-1800000Y-1850000D02*
D03*
D85*
X1101205Y448912D02*
D03*
X1181189D02*
D03*
X1661199D02*
D03*
X1741209D02*
D03*
D86*
X1246188D02*
D03*
X1296201D02*
D03*
X1346213D02*
D03*
X1396200D02*
D03*
X1446213D02*
D03*
X1496200D02*
D03*
X1546187D02*
D03*
X1596200D02*
D03*
D87*
X2777241Y-1770500D02*
D03*
Y-1643500D02*
D03*
Y-1516500D02*
D03*
Y-1389500D02*
D03*
X2222759Y-1770500D02*
D03*
Y-1643500D02*
D03*
Y-1516500D02*
D03*
Y-1389500D02*
D03*
X-1027241D02*
D03*
Y-1516500D02*
D03*
Y-1643500D02*
D03*
Y-1770500D02*
D03*
X-472759Y-1389500D02*
D03*
Y-1516500D02*
D03*
Y-1643500D02*
D03*
Y-1770500D02*
D03*
X-4292241Y-1394500D02*
D03*
Y-1521500D02*
D03*
Y-1648500D02*
D03*
Y-1775500D02*
D03*
X-3737759Y-1394500D02*
D03*
Y-1521500D02*
D03*
Y-1648500D02*
D03*
Y-1775500D02*
D03*
D88*
X2770510Y-2304224D02*
D03*
Y-2177224D02*
D03*
Y-2050224D02*
D03*
Y-1923224D02*
D03*
X2229490Y-2304224D02*
D03*
Y-2177224D02*
D03*
Y-2050224D02*
D03*
Y-1923224D02*
D03*
X-1020510D02*
D03*
Y-2050224D02*
D03*
Y-2177224D02*
D03*
Y-2304224D02*
D03*
X-479490Y-1923224D02*
D03*
Y-2050224D02*
D03*
Y-2177224D02*
D03*
Y-2304224D02*
D03*
X-2954490Y-338501D02*
D03*
X-3495510Y-84501D02*
D03*
Y-211501D02*
D03*
Y-338501D02*
D03*
Y-465501D02*
D03*
X-2954490Y-211501D02*
D03*
Y-465501D02*
D03*
Y-84501D02*
D03*
X-4285510Y-1928225D02*
D03*
Y-2055225D02*
D03*
Y-2182225D02*
D03*
Y-2309225D02*
D03*
X-3744490Y-1928225D02*
D03*
Y-2055225D02*
D03*
Y-2182225D02*
D03*
Y-2309225D02*
D03*
D89*
X1489991Y-2456754D02*
D03*
Y-2760233D02*
D03*
X314992Y-2735235D02*
D03*
Y-2431756D02*
D03*
X416976Y-1921743D02*
D03*
Y-1618263D02*
D03*
X-1900004Y-2233260D02*
D03*
Y-2536739D02*
D03*
X-2800002D02*
D03*
Y-2233260D02*
D03*
D90*
X1649645Y-1795056D02*
D03*
X1650357Y-1954949D02*
D03*
X-3299655Y145041D02*
D03*
X-3300341Y304959D02*
D03*
X-1799289Y-1709893D02*
D03*
X-1800000Y-1550000D02*
D03*
X99644Y-1795052D02*
D03*
X100355Y-1954945D02*
D03*
D91*
X665005Y-517748D02*
D03*
X705010D02*
D03*
X744990D02*
D03*
X784995D02*
D03*
Y-232252D02*
D03*
X744990D02*
D03*
X705010D02*
D03*
X665005D02*
D03*
D92*
X867748Y-434995D02*
D03*
Y-394990D02*
D03*
Y-355010D02*
D03*
Y-315005D02*
D03*
X582252D02*
D03*
Y-355010D02*
D03*
Y-394990D02*
D03*
Y-434995D02*
D03*
D93*
X725000Y-375000D02*
D03*
D94*
X-1084999Y850001D02*
D03*
X-915002D02*
D03*
X-1695006Y114999D02*
D03*
X-1525004D02*
D03*
X1235002Y310001D02*
D03*
X1065000D02*
D03*
X-2160004Y-2709998D02*
D03*
X-1990001D02*
D03*
X1735001Y310001D02*
D03*
X1564999D02*
D03*
D95*
X-1174985Y475011D02*
D03*
Y424999D02*
D03*
Y375011D02*
D03*
Y324999D02*
D03*
Y275012D02*
D03*
Y224999D02*
D03*
Y175012D02*
D03*
Y124999D02*
D03*
Y75012D02*
D03*
Y24999D02*
D03*
Y-24988D02*
D03*
Y-75000D02*
D03*
X-325000D02*
D03*
Y-24988D02*
D03*
Y24999D02*
D03*
Y75012D02*
D03*
Y124999D02*
D03*
Y175012D02*
D03*
Y224999D02*
D03*
Y275012D02*
D03*
Y324999D02*
D03*
Y375011D02*
D03*
Y424999D02*
D03*
Y475011D02*
D03*
D96*
X-1024998Y-224987D02*
D03*
X-974986D02*
D03*
X-924999D02*
D03*
X-874986D02*
D03*
X-824999D02*
D03*
X-774986D02*
D03*
X-724999D02*
D03*
X-674986D02*
D03*
X-624999D02*
D03*
X-574987D02*
D03*
X-524999D02*
D03*
X-474987D02*
D03*
Y624998D02*
D03*
X-524999D02*
D03*
X-574987D02*
D03*
X-624999D02*
D03*
X-674986D02*
D03*
X-724999D02*
D03*
X-774986D02*
D03*
X-824999D02*
D03*
X-874986D02*
D03*
X-924999D02*
D03*
X-974986D02*
D03*
X-1024998D02*
D03*
D97*
X-1500000Y254998D02*
D03*
X-1720015Y425000D02*
D03*
Y254998D02*
D03*
X-1500000Y425000D02*
D03*
D98*
X-3000345Y304944D02*
D03*
X-2999659Y145051D02*
D03*
D99*
X894991Y-2503495D02*
D03*
Y-2598491D02*
D03*
Y-2408499D02*
D03*
X634992D02*
D03*
Y-2503495D02*
D03*
Y-2598491D02*
D03*
D100*
X847986Y-2803500D02*
D03*
X681997D02*
D03*
D101*
X1049999Y-2330000D02*
D03*
Y-2670005D02*
D03*
D102*
X750000Y-1770003D02*
D03*
Y-1540006D02*
D03*
Y-2000000D02*
D03*
D103*
X1316979Y-1770003D02*
D03*
D104*
X1375000Y-1200000D02*
D03*
X1775000Y-2450000D02*
D03*
X-1800000Y-1351030D02*
D03*
D105*
X-2540567Y-1935018D02*
D03*
X-2413567D02*
D03*
X-2286567D02*
D03*
X-2159567D02*
D03*
X-2413567Y-2535017D02*
D03*
X-2286567D02*
D03*
X-2159567D02*
D03*
X-2540567D02*
D03*
D106*
X-2350067Y-2235018D02*
D03*
D107*
X-2208716Y-1459998D02*
D03*
X-2791290D02*
D03*
D108*
X988708Y923917D02*
D03*
X1853705D02*
D03*
D109*
X988708Y503903D02*
D03*
X1853705D02*
D03*
D110*
X2118998Y-2777003D02*
D03*
Y-2523003D02*
D03*
X2372998Y-2777003D02*
D03*
Y-2523003D02*
D03*
X2626998Y-2777003D02*
D03*
Y-2523003D02*
D03*
X2880998D02*
D03*
X-369004D02*
D03*
X-623004D02*
D03*
Y-2777003D02*
D03*
X-877004Y-2523003D02*
D03*
Y-2777003D02*
D03*
X-1131004Y-2523003D02*
D03*
Y-2777003D02*
D03*
X-3619001Y-2523003D02*
D03*
X-3873001D02*
D03*
Y-2777003D02*
D03*
X-4127001Y-2523003D02*
D03*
Y-2777003D02*
D03*
X-4381001Y-2523003D02*
D03*
Y-2777003D02*
D03*
D111*
X2880998D02*
D03*
X-369004D02*
D03*
X-3619001D02*
D03*
D112*
X2200000Y550000D02*
D03*
Y804000D02*
D03*
X654000Y850000D02*
D03*
X400000Y596000D02*
D03*
Y850000D02*
D03*
X146000Y596000D02*
D03*
Y850000D02*
D03*
D113*
X2200000Y296000D02*
D03*
D114*
X654000Y596000D02*
D03*
D115*
X-3950000Y-700028D02*
D03*
Y-450013D02*
D03*
Y-200029D02*
D03*
Y599987D02*
D03*
Y349972D02*
D03*
Y849971D02*
D03*
X2450000Y800034D02*
D03*
Y550025D02*
D03*
Y300013D02*
D03*
Y50023D02*
D03*
Y-199986D02*
D03*
Y-449976D02*
D03*
D116*
X-2270000Y-410000D02*
D03*
X1730000D02*
D03*
D117*
X-1326716Y350000D02*
D03*
X475000Y-300000D02*
D03*
X-1750000Y-150000D02*
D03*
Y-25000D02*
D03*
X525000Y-225000D02*
D03*
X-875000Y450000D02*
D03*
X-1450000Y650000D02*
D03*
X-775000Y100000D02*
D03*
X525000Y-125000D02*
D03*
X-975000Y125000D02*
D03*
X-1050000Y175000D02*
D03*
Y75000D02*
D03*
X125000Y100000D02*
D03*
X-725000Y50000D02*
D03*
X-675000Y0D02*
D03*
X-625000Y-50000D02*
D03*
X-575000Y-100000D02*
D03*
X1140000Y-600000D02*
D03*
Y-460000D02*
D03*
Y-290000D02*
D03*
X1130000Y-160000D02*
D03*
X-330000Y540000D02*
D03*
X-410000Y-230000D02*
D03*
X-2225000Y475000D02*
D03*
X-3431962Y-985000D02*
D03*
X-3425000Y-1200000D02*
D03*
X-1500000Y-325000D02*
D03*
X-1350000Y-675000D02*
D03*
X-425000Y425000D02*
D03*
X-950000Y750000D02*
D03*
X-1149999Y850001D02*
D03*
X-1319998Y794998D02*
D03*
X-1720002Y645002D02*
D03*
X-2000000Y325000D02*
D03*
X-1400000Y250000D02*
D03*
X-650000Y-400000D02*
D03*
X-300000Y-175000D02*
D03*
X-245002Y645002D02*
D03*
X675000Y-425000D02*
D03*
X775000D02*
D03*
Y-325000D02*
D03*
X675000D02*
D03*
X1275000Y-1375000D02*
D03*
Y-1475000D02*
D03*
X1125000D02*
D03*
X950000Y-1775000D02*
D03*
X-1099998Y624998D02*
D03*
X-1025000Y425000D02*
D03*
X875000Y-125000D02*
D03*
X-2725000Y425000D02*
D03*
X-2625000Y375000D02*
D03*
X450000Y125000D02*
D03*
X275000D02*
D03*
Y-100000D02*
D03*
X125000Y-50000D02*
D03*
X300000Y-500000D02*
D03*
X175000Y-575000D02*
D03*
X-1300000Y425000D02*
D03*
X-1925000Y525000D02*
D03*
X-925000D02*
D03*
X-875000Y-725000D02*
D03*
X-175000Y-800000D02*
D03*
X-1250000D02*
D03*
X-1175000Y-650000D02*
D03*
X-925000Y-575000D02*
D03*
X-25000Y-650000D02*
D03*
X-950000Y-875000D02*
D03*
X-1100000D02*
D03*
X-225000Y-375000D02*
D03*
X-1450000Y-450000D02*
D03*
X-75000D02*
D03*
X-975000Y-500000D02*
D03*
D118*
X-2540000Y-2680000D02*
D03*
X-3110000Y200000D02*
D03*
X1930000Y-2050000D02*
D03*
X790000Y-2510000D02*
D03*
X-280000Y-2080000D02*
D03*
X-1320000Y-2050000D02*
D03*
Y-2190000D02*
D03*
X-3500000Y-2090000D02*
D03*
X-3600000Y-2200000D02*
D03*
X-3620000Y-1830000D02*
D03*
X-3780000D02*
D03*
X-3700000D02*
D03*
X-3620000Y-1760000D02*
D03*
X-3780000D02*
D03*
X-3700000D02*
D03*
X-3540000D02*
D03*
Y-1830000D02*
D03*
X2970000D02*
D03*
X2890000D02*
D03*
X2730000D02*
D03*
X2810000D02*
D03*
X2890000Y-1760000D02*
D03*
X2730000D02*
D03*
X2810000D02*
D03*
X2970000D02*
D03*
X-370000Y-1830000D02*
D03*
X-530000D02*
D03*
X-450000D02*
D03*
X-370000Y-1760000D02*
D03*
X-530000D02*
D03*
X-450000D02*
D03*
X-290000D02*
D03*
Y-1830000D02*
D03*
X-150000Y-2450000D02*
D03*
X-1475000Y825000D02*
D03*
X1125000Y-1750000D02*
D03*
X1275000Y-1600000D02*
D03*
X1125000D02*
D03*
X1325000Y-2150000D02*
D03*
Y-2050000D02*
D03*
X1425000Y-2150000D02*
D03*
Y-2050000D02*
D03*
X2025000Y-2300000D02*
D03*
X1050000Y-1875000D02*
D03*
X-3300000Y-2200000D02*
D03*
X-2270000Y-1580000D02*
D03*
X-2150000Y-1460000D02*
D03*
X-2270000D02*
D03*
X-2150000Y-1340000D02*
D03*
X-2270000D02*
D03*
X-1900000Y-2260000D02*
D03*
X-1810000Y-2200000D02*
D03*
X-1980000D02*
D03*
X560000Y-2740000D02*
D03*
Y-2850000D02*
D03*
X510000Y-2510000D02*
D03*
Y-2400000D02*
D03*
X630000Y-2290000D02*
D03*
X530000D02*
D03*
X430000D02*
D03*
X330000D02*
D03*
X230000D02*
D03*
X-4460000Y-1650000D02*
D03*
X-4145000Y-1645000D02*
D03*
X-4540000Y-1650000D02*
D03*
Y-1750000D02*
D03*
Y-1550000D02*
D03*
X-1175000Y-1645000D02*
D03*
X-880000Y-1640000D02*
D03*
X-1280000Y-1650000D02*
D03*
Y-1750000D02*
D03*
Y-1550000D02*
D03*
X1960000D02*
D03*
Y-1750000D02*
D03*
Y-1650000D02*
D03*
X2370000Y-1640000D02*
D03*
X2060000Y-1650000D02*
D03*
X3010000Y-2120000D02*
D03*
X2920000Y-2220000D02*
D03*
X-300000Y-2225000D02*
D03*
X-3544997Y225000D02*
D03*
X-3100000Y-350000D02*
D03*
X-1019260Y-1255740D02*
D03*
X-4275000Y-1275000D02*
D03*
X-4475000Y-1950000D02*
D03*
X-1825000Y-2550000D02*
D03*
X-1975000D02*
D03*
X-1925000Y-2700000D02*
D03*
X-2625000Y-2275000D02*
D03*
Y-2200000D02*
D03*
X-2450000Y-2300000D02*
D03*
X-2250000D02*
D03*
Y-2175000D02*
D03*
X-2450000D02*
D03*
X-1680003Y-2019997D02*
D03*
X1650001Y-1450001D02*
D03*
X2235000Y-1265000D02*
D03*
X1659767Y-2760233D02*
D03*
X315235Y-2855235D02*
D03*
X620000Y-1650000D02*
D03*
X940000Y-1540000D02*
D03*
X1750000Y250000D02*
D03*
X1000002Y310001D02*
D03*
X-4490000Y-2285000D02*
D03*
%TF.MD5,268e077238593d3899a24e23eb9122c5*%
M02*
