%TF.GenerationSoftware,Altium Limited,Altium Designer,24.0.1 (36)*%
G04 Layer_Physical_Order=2*
G04 Layer_Color=32768*
%FSLAX45Y45*%
%MOMM*%
%TF.SameCoordinates,1D19F893-C717-4D0B-B0CE-957F46A24576*%
%TF.FilePolarity,Negative*%
%TF.FileFunction,Copper,L2,Inr,Plane*%
%TF.Part,Single*%
G01*
G75*
%TA.AperFunction,NonConductor*%
%ADD58C,1.01600*%
%TA.AperFunction,ComponentPad*%
%ADD59C,1.50002*%
%ADD60C,1.42000*%
%ADD61C,1.40000*%
%ADD62C,1.30002*%
%TA.AperFunction,ViaPad*%
%ADD63C,3.40000*%
%ADD64C,0.65000*%
%ADD65C,0.70000*%
G36*
X1717070Y590289D02*
X1729807Y585081D01*
X1739624Y575439D01*
X1745061Y562798D01*
X1745185Y555919D01*
X1745060Y549041D01*
X1739622Y536401D01*
X1729805Y526760D01*
X1717068Y521552D01*
X1703308Y521552D01*
X1690572Y526761D01*
X1680755Y536403D01*
X1675318Y549043D01*
X1675194Y555922D01*
X1675194Y555922D01*
X1675318Y562801D01*
X1680756Y575441D01*
X1690574Y585082D01*
X1703311Y590290D01*
X1717070Y590289D01*
D02*
G37*
G36*
X1139068D02*
X1151804Y585081D01*
X1161621Y575439D01*
X1167058Y562798D01*
X1167183Y555919D01*
X1167058Y549041D01*
X1161620Y536401D01*
X1151802Y526760D01*
X1139066Y521552D01*
X1125306Y521552D01*
X1112570Y526761D01*
X1102753Y536403D01*
X1097316Y549043D01*
X1097192Y555922D01*
X1097191Y555922D01*
X1097316Y562801D01*
X1102754Y575441D01*
X1112572Y585082D01*
X1125308Y590290D01*
X1139068Y590289D01*
D02*
G37*
D58*
X1125308Y590290D02*
X1139068Y590289D01*
X1151804Y585081D01*
X1161621Y575439D01*
X1167058Y562798D01*
X1167183Y555919D01*
X1167058Y549041D02*
X1167183Y555919D01*
X1161620Y536401D02*
X1167058Y549041D01*
X1151802Y526760D02*
X1161620Y536401D01*
X1139066Y521552D02*
X1151802Y526760D01*
X1125306Y521552D02*
X1139066Y521552D01*
X1112570Y526761D02*
X1125306Y521552D01*
X1102753Y536403D02*
X1112570Y526761D01*
X1097316Y549043D02*
X1102753Y536403D01*
X1097192Y555922D02*
X1097316Y549043D01*
X1097191Y555922D02*
X1097192Y555922D01*
X1097191Y555922D02*
X1097316Y562801D01*
X1102754Y575441D01*
X1112572Y585082D01*
X1125308Y590290D01*
X1703311D02*
X1717070Y590289D01*
X1729807Y585081D01*
X1739624Y575439D01*
X1745061Y562798D01*
X1745185Y555919D01*
X1745060Y549041D02*
X1745185Y555919D01*
X1739622Y536401D02*
X1745060Y549041D01*
X1729805Y526760D02*
X1739622Y536401D01*
X1717068Y521552D02*
X1729805Y526760D01*
X1703308Y521552D02*
X1717068Y521552D01*
X1690572Y526761D02*
X1703308Y521552D01*
X1680755Y536403D02*
X1690572Y526761D01*
X1675318Y549043D02*
X1680755Y536403D01*
X1675194Y555922D02*
X1675318Y549043D01*
X1675194Y555922D02*
X1675194Y555922D01*
X1675194Y555922D02*
X1675318Y562801D01*
X1680756Y575441D01*
X1690574Y585082D01*
X1703311Y590290D01*
X3200000Y-2975000D02*
Y1075000D01*
X-4675000D02*
X3200000D01*
X-4675000Y-2975000D02*
Y1075000D01*
Y-2975000D02*
X3200000D01*
D59*
X2119000Y-2523003D02*
D03*
X2373000D02*
D03*
X2627000Y-2522993D02*
D03*
X2881000Y-2523003D02*
D03*
X-369002D02*
D03*
Y-2777003D02*
D03*
X-623002Y-2522993D02*
D03*
X-877002Y-2523003D02*
D03*
X-1131002D02*
D03*
X-3618998D02*
D03*
Y-2777003D02*
D03*
X-3872998Y-2522993D02*
D03*
X-4126998Y-2523003D02*
D03*
X-4380998D02*
D03*
D60*
X2200000Y550000D02*
D03*
Y804000D02*
D03*
Y296000D02*
D03*
X654000Y596000D02*
D03*
D61*
Y850000D02*
D03*
X400000Y596000D02*
D03*
X146000D02*
D03*
Y850000D02*
D03*
D62*
X-3950000Y-700002D02*
D03*
Y-450000D02*
D03*
Y600000D02*
D03*
Y349998D02*
D03*
X2450000Y550007D02*
D03*
Y300000D02*
D03*
Y49998D02*
D03*
Y-199999D02*
D03*
Y-450001D02*
D03*
D63*
X-2270000Y-410000D02*
D03*
X1730000D02*
D03*
D64*
X-1326716Y350000D02*
D03*
X-875000Y450000D02*
D03*
X-775000Y100000D02*
D03*
X-1050000Y175000D02*
D03*
Y75000D02*
D03*
X125000Y100000D02*
D03*
X-725000Y50000D02*
D03*
X-675000Y0D02*
D03*
X-625000Y-50000D02*
D03*
X-575000Y-100000D02*
D03*
X1140000Y-600000D02*
D03*
Y-290000D02*
D03*
X-330000Y540000D02*
D03*
X-410000Y-230000D02*
D03*
X-2225000Y475000D02*
D03*
X-3431962Y-985000D02*
D03*
X-3425000Y-1200000D02*
D03*
X-1500000Y-325000D02*
D03*
X-1350000Y-675000D02*
D03*
X1275000Y-1375000D02*
D03*
Y-1475000D02*
D03*
X1125000D02*
D03*
X950000Y-1775000D02*
D03*
X-1099998Y624998D02*
D03*
X-1025000Y425000D02*
D03*
X875000Y-125000D02*
D03*
X-2725000Y425000D02*
D03*
X-2625000Y375000D02*
D03*
X450000Y125000D02*
D03*
X275000D02*
D03*
Y-100000D02*
D03*
X125000Y-50000D02*
D03*
X300000Y-500000D02*
D03*
X175000Y-575000D02*
D03*
X-1300000Y425000D02*
D03*
X-1925000Y525000D02*
D03*
X-925000D02*
D03*
X-875000Y-725000D02*
D03*
X-175000Y-800000D02*
D03*
X-1250000D02*
D03*
X-1175000Y-650000D02*
D03*
X-925000Y-575000D02*
D03*
X-25000Y-650000D02*
D03*
X-950000Y-875000D02*
D03*
X-1100000D02*
D03*
X-225000Y-375000D02*
D03*
X-1450000Y-450000D02*
D03*
X-75000D02*
D03*
X-975000Y-500000D02*
D03*
D65*
X-1320000Y-2190000D02*
D03*
X-3600000Y-2200000D02*
D03*
X-3620000Y-1830000D02*
D03*
X-3780000D02*
D03*
X-3700000D02*
D03*
X-3620000Y-1760000D02*
D03*
X-3780000D02*
D03*
X-3700000D02*
D03*
X-3540000D02*
D03*
Y-1830000D02*
D03*
X2970000D02*
D03*
X2890000D02*
D03*
X2730000D02*
D03*
X2810000D02*
D03*
X2890000Y-1760000D02*
D03*
X2730000D02*
D03*
X2810000D02*
D03*
X2970000D02*
D03*
X-370000Y-1830000D02*
D03*
X-530000D02*
D03*
X-450000D02*
D03*
X-370000Y-1760000D02*
D03*
X-530000D02*
D03*
X-450000D02*
D03*
X-290000D02*
D03*
Y-1830000D02*
D03*
X-150000Y-2450000D02*
D03*
X-1475000Y825000D02*
D03*
X1125000Y-1750000D02*
D03*
X1275000Y-1600000D02*
D03*
X1125000D02*
D03*
X1325000Y-2150000D02*
D03*
Y-2050000D02*
D03*
X1425000Y-2150000D02*
D03*
Y-2050000D02*
D03*
X2025000Y-2300000D02*
D03*
X1050000Y-1875000D02*
D03*
X-2270000Y-1580000D02*
D03*
X-2150000Y-1460000D02*
D03*
X-2270000D02*
D03*
X-2150000Y-1340000D02*
D03*
X-2270000D02*
D03*
X-1900000Y-2260000D02*
D03*
X-1810000Y-2200000D02*
D03*
X-1980000D02*
D03*
X560000Y-2740000D02*
D03*
Y-2850000D02*
D03*
X510000Y-2510000D02*
D03*
Y-2400000D02*
D03*
X630000Y-2290000D02*
D03*
X530000D02*
D03*
X430000D02*
D03*
X330000D02*
D03*
X230000D02*
D03*
X2920000Y-2220000D02*
D03*
X-300000Y-2225000D02*
D03*
X-4490000Y-2285000D02*
D03*
%TF.MD5,df7b57fc91575627a7aa11860453e3d0*%
M02*
