%TF.GenerationSoftware,Altium Limited,Altium Designer,24.0.1 (36)*%
G04 Layer_Physical_Order=1*
G04 Layer_Color=255*
%FSLAX45Y45*%
%MOMM*%
%TF.SameCoordinates,1D19F893-C717-4D0B-B0CE-957F46A24576*%
%TF.FilePolarity,Positive*%
%TF.FileFunction,Copper,L1,Top,Signal*%
%TF.Part,Single*%
G01*
G75*
%TA.AperFunction,SMDPad,CuDef*%
%ADD10C,1.00000*%
%ADD11R,0.95000X1.10000*%
%ADD12R,1.10000X0.95000*%
%ADD13R,0.90000X0.70000*%
%ADD14R,0.55001X1.10000*%
%ADD15R,0.30000X1.10000*%
%ADD16O,2.04500X0.58801*%
%ADD17O,1.95021X0.56840*%
%ADD18R,2.69999X1.63500*%
%ADD19R,0.80000X0.80000*%
%AMCUSTOMSHAPE20*
4,1,6,-0.25276,-0.09996,-0.25276,0.09996,0.25225,0.09996,0.25276,-0.00004,0.15276,-0.09996,-0.25276,-0.09996,-0.25276,-0.09996,0.0*%
%ADD20CUSTOMSHAPE20*%

%AMCUSTOMSHAPE21*
4,1,6,-0.25276,0.10000,0.15276,0.10000,0.25276,0.00000,0.25225,-0.10000,-0.25276,-0.10000,-0.25276,0.10000,-0.25276,0.10000,0.0*%
%ADD21CUSTOMSHAPE21*%

%AMCUSTOMSHAPE22*
4,1,6,-0.10000,0.25276,0.10000,0.25276,0.10000,-0.25225,0.00000,-0.25276,-0.10000,-0.15276,-0.10000,0.25276,-0.10000,0.25276,0.0*%
%ADD22CUSTOMSHAPE22*%

%AMCUSTOMSHAPE23*
4,1,6,0.10000,0.25278,0.10000,-0.15273,0.00000,-0.25278,-0.10000,-0.25225,-0.10000,0.25278,0.10000,0.25278,0.10000,0.25278,0.0*%
%ADD23CUSTOMSHAPE23*%

%AMCUSTOMSHAPE24*
4,1,6,0.25277,0.09996,0.25277,-0.09996,-0.25223,-0.09996,-0.25277,-0.00001,-0.15274,0.09996,0.25277,0.09996,0.25277,0.09996,0.0*%
%ADD24CUSTOMSHAPE24*%

%AMCUSTOMSHAPE25*
4,1,6,0.25274,-0.09999,-0.15277,-0.09999,-0.25274,0.00001,-0.25226,0.09999,0.25274,0.09999,0.25274,-0.09999,0.25274,-0.09999,0.0*%
%ADD25CUSTOMSHAPE25*%

%AMCUSTOMSHAPE26*
4,1,6,0.10000,-0.25274,-0.10000,-0.25274,-0.10000,0.25223,0.00000,0.25274,0.10000,0.15274,0.10000,-0.25274,0.10000,-0.25274,0.0*%
%ADD26CUSTOMSHAPE26*%

%AMCUSTOMSHAPE27*
4,1,6,-0.09999,-0.25281,-0.09999,0.15270,0.00001,0.25281,0.09999,0.25222,0.09999,-0.25281,-0.09999,-0.25281,-0.09999,-0.25281,0.0*%
%ADD27CUSTOMSHAPE27*%

%ADD28R,0.20000X0.50500*%
%ADD29R,0.50500X0.20000*%
%ADD30R,1.70000X1.70000*%
%ADD31R,0.70000X0.90000*%
%ADD32O,1.50000X0.27000*%
%ADD33O,0.27000X1.50000*%
%ADD34R,1.40000X1.20000*%
%ADD35R,1.20000X0.60000*%
%ADD36R,0.85001X2.00000*%
%ADD37R,0.95001X1.20000*%
%ADD38R,2.47000X0.98001*%
%ADD39R,2.47000X3.59999*%
%ADD40C,1.50000*%
%ADD41O,0.60000X1.60000*%
%ADD42R,3.19999X2.50000*%
%ADD43R,2.15001X3.32001*%
%TA.AperFunction,Conductor*%
%ADD44C,0.20000*%
%ADD45C,0.30000*%
%ADD46C,0.25000*%
%ADD47C,0.50000*%
%TA.AperFunction,ComponentPad*%
%ADD48O,1.20000X1.80000*%
%ADD49O,1.10000X2.00000*%
%ADD50C,1.80000*%
%ADD51R,1.80000X1.80000*%
%ADD52C,1.75000*%
%ADD53R,1.75000X1.75000*%
%ADD54R,1.75000X1.75000*%
%ADD55C,1.50000*%
%TA.AperFunction,ViaPad*%
%ADD56C,0.50000*%
%ADD57C,0.60000*%
G36*
X3200000Y-2975000D02*
X-4675000D01*
Y1075000D01*
X3200000D01*
Y-2975000D01*
D02*
G37*
%LPC*%
G36*
X-1466049Y870000D02*
X-1483951D01*
X-1500491Y863149D01*
X-1508052Y855588D01*
X-1749999D01*
X-1750000Y855588D01*
X-1761705Y853259D01*
X-1771629Y846629D01*
X-1771629Y846628D01*
X-2739128Y-120870D01*
X-2745758Y-130794D01*
X-2746595Y-134999D01*
X-2812499D01*
Y-180913D01*
X-2853617D01*
X-2854095Y-180197D01*
X-2868458Y-170600D01*
X-2885399Y-167230D01*
X-3023580D01*
X-3040522Y-170600D01*
X-3054884Y-180197D01*
X-3064481Y-194559D01*
X-3067851Y-211501D01*
X-3064481Y-228443D01*
X-3054884Y-242805D01*
X-3040522Y-252402D01*
X-3023580Y-255772D01*
X-2885399D01*
X-2868458Y-252402D01*
X-2854095Y-242805D01*
X-2853617Y-242089D01*
X-2812499D01*
Y-274999D01*
X-2687499D01*
Y-175455D01*
X-2686911Y-172499D01*
X-2686911Y-172497D01*
Y-155169D01*
X-1737330Y794412D01*
X-1508052D01*
X-1500491Y786851D01*
X-1483951Y780000D01*
X-1466049D01*
X-1449510Y786851D01*
X-1436851Y799509D01*
X-1430000Y816049D01*
Y833951D01*
X-1436851Y850490D01*
X-1449510Y863149D01*
X-1466049Y870000D01*
D02*
G37*
G36*
X159494Y952500D02*
X132506D01*
X106436Y945515D01*
X83064Y932020D01*
X63980Y912936D01*
X50485Y889564D01*
X43500Y863494D01*
Y836506D01*
X50485Y810437D01*
X63980Y787064D01*
X83064Y767980D01*
X106436Y754485D01*
X132506Y747500D01*
X159494D01*
X185564Y754485D01*
X208936Y767980D01*
X228020Y787064D01*
X241515Y810437D01*
X248500Y836506D01*
Y863494D01*
X241515Y889564D01*
X228020Y912936D01*
X208936Y932020D01*
X185564Y945515D01*
X159494Y952500D01*
D02*
G37*
G36*
X667494D02*
X640506D01*
X614436Y945515D01*
X591064Y932020D01*
X571980Y912936D01*
X558485Y889564D01*
X551500Y863494D01*
Y836506D01*
X558485Y810437D01*
X571980Y787064D01*
X591064Y767980D01*
X614436Y754485D01*
X640506Y747500D01*
X667494D01*
X693564Y754485D01*
X706182Y761771D01*
X756931Y711022D01*
X751492Y698501D01*
X745875Y698500D01*
X551500D01*
Y493500D01*
X756500D01*
Y685320D01*
X759999Y688308D01*
X769200Y691689D01*
X774510Y687726D01*
Y485558D01*
X689453Y400501D01*
X-250349D01*
X-252380Y401858D01*
X-263500Y404070D01*
X-386500D01*
X-397620Y401858D01*
X-407047Y395559D01*
X-413346Y386132D01*
X-415558Y375011D01*
X-413346Y363891D01*
X-407047Y354464D01*
Y345546D01*
X-413346Y336119D01*
X-415558Y324999D01*
X-413346Y313879D01*
X-407047Y304452D01*
Y295559D01*
X-413346Y286132D01*
X-415558Y275012D01*
X-413346Y263892D01*
X-407047Y254465D01*
Y245546D01*
X-413346Y236119D01*
X-415558Y224999D01*
X-413346Y213879D01*
X-407047Y204452D01*
Y195559D01*
X-413346Y186132D01*
X-415558Y175012D01*
X-413346Y163892D01*
X-407047Y154465D01*
Y145546D01*
X-413346Y136119D01*
X-415558Y124999D01*
X-413346Y113879D01*
X-407047Y104452D01*
Y95559D01*
X-413346Y86132D01*
X-415558Y75012D01*
X-413346Y63892D01*
X-407047Y54465D01*
Y45547D01*
X-413346Y36120D01*
X-415558Y24999D01*
X-413346Y13879D01*
X-407047Y4452D01*
Y-4441D01*
X-413346Y-13868D01*
X-415558Y-24988D01*
X-413346Y-36108D01*
X-407047Y-45535D01*
Y-54453D01*
X-413346Y-63880D01*
X-415558Y-75000D01*
X-413346Y-86120D01*
X-407047Y-95548D01*
X-397620Y-101847D01*
X-386500Y-104059D01*
X-263500D01*
X-263190Y-103997D01*
X-250489Y-114420D01*
Y-343921D01*
X-258910Y-352342D01*
X-265000Y-367043D01*
Y-382957D01*
X-258910Y-397658D01*
X-247658Y-408910D01*
X-232957Y-415000D01*
X-217044D01*
X-213190Y-413404D01*
X-200490Y-421889D01*
Y-768921D01*
X-208910Y-777342D01*
X-215000Y-792043D01*
Y-807956D01*
X-208910Y-822658D01*
X-197658Y-833910D01*
X-182956Y-840000D01*
X-167043D01*
X-152342Y-833910D01*
X-141090Y-822658D01*
X-135000Y-807956D01*
Y-792043D01*
X-141090Y-777342D01*
X-149510Y-768921D01*
Y-729498D01*
X-136810Y-724237D01*
X164311Y-1025358D01*
X160000Y-1041442D01*
Y-1058557D01*
X164430Y-1075089D01*
X172987Y-1089911D01*
X185090Y-1102013D01*
X199911Y-1110570D01*
X216443Y-1115000D01*
X233558D01*
X250089Y-1110570D01*
X264911Y-1102013D01*
X277013Y-1089911D01*
X285339Y-1075490D01*
X1585079D01*
X2009589Y-1500000D01*
X2044112Y-1534524D01*
X2045352Y-1535352D01*
D01*
X2052382Y-1540049D01*
X2062137Y-1541990D01*
X2113541D01*
X2117898Y-1548511D01*
X2132585Y-1558324D01*
X2149909Y-1561770D01*
X2295609D01*
X2312933Y-1558324D01*
X2327620Y-1548511D01*
X2337433Y-1533824D01*
X2340879Y-1516500D01*
X2337433Y-1499176D01*
X2327620Y-1484489D01*
X2312933Y-1474675D01*
X2295609Y-1471229D01*
X2149909D01*
X2132585Y-1474675D01*
X2117898Y-1484489D01*
X2113541Y-1491010D01*
X2072695D01*
X1613660Y-1031976D01*
X1605391Y-1026451D01*
X1595637Y-1024510D01*
X285339D01*
X277013Y-1010089D01*
X264911Y-997987D01*
X250089Y-989430D01*
X233558Y-985000D01*
X216443D01*
X200358Y-989310D01*
X-99510Y-689442D01*
Y-496890D01*
X-86810Y-488404D01*
X-82957Y-490000D01*
X-67044D01*
X-63190Y-488404D01*
X-50489Y-496890D01*
Y-618921D01*
X-58910Y-627342D01*
X-65000Y-642043D01*
Y-657957D01*
X-58910Y-672658D01*
X-47658Y-683910D01*
X-32956Y-690000D01*
X-17043D01*
X-2342Y-683910D01*
X8910Y-672658D01*
X15000Y-657957D01*
Y-642043D01*
X8910Y-627342D01*
X490Y-618922D01*
Y-604498D01*
X13190Y-599238D01*
X289310Y-875358D01*
X285000Y-891442D01*
Y-908557D01*
X289430Y-925089D01*
X297987Y-939911D01*
X310089Y-952013D01*
X324911Y-960570D01*
X341443Y-965000D01*
X358558D01*
X374642Y-960690D01*
X381976Y-968024D01*
X390246Y-973549D01*
X400000Y-975490D01*
X1612079D01*
X2044113Y-1407524D01*
X2052382Y-1413049D01*
X2062137Y-1414990D01*
X2113541D01*
X2117898Y-1421511D01*
X2132585Y-1431324D01*
X2149909Y-1434770D01*
X2295609D01*
X2312933Y-1431324D01*
X2327620Y-1421511D01*
X2337433Y-1406824D01*
X2340879Y-1389500D01*
X2337433Y-1372176D01*
X2327620Y-1357489D01*
X2312933Y-1347675D01*
X2295609Y-1344229D01*
X2149909D01*
X2132585Y-1347675D01*
X2117898Y-1357489D01*
X2113541Y-1364010D01*
X2072695D01*
X1640660Y-931976D01*
X1632391Y-926451D01*
X1622637Y-924510D01*
X421156D01*
X413425Y-914435D01*
X415000Y-908557D01*
Y-891442D01*
X410570Y-874911D01*
X402013Y-860089D01*
X389911Y-847987D01*
X375089Y-839430D01*
X358558Y-835000D01*
X341443D01*
X325358Y-839310D01*
X50490Y-564442D01*
Y100000D01*
X48550Y109754D01*
X43024Y118024D01*
X-78068Y239116D01*
X-72807Y251816D01*
X424664D01*
X513290Y163190D01*
X512113Y156641D01*
X508636Y150490D01*
X481079D01*
X472658Y158910D01*
X457957Y165000D01*
X442044D01*
X427342Y158910D01*
X416090Y147658D01*
X410000Y132957D01*
Y117043D01*
X416090Y102342D01*
X427342Y91090D01*
X434344Y88190D01*
X431817Y75490D01*
X360558D01*
X315000Y121048D01*
Y132957D01*
X308910Y147658D01*
X297658Y158910D01*
X282957Y165000D01*
X267043D01*
X252342Y158910D01*
X241090Y147658D01*
X235000Y132957D01*
Y117043D01*
X241090Y102342D01*
X252342Y91090D01*
X267043Y85000D01*
X278952D01*
X331976Y31976D01*
X340246Y26451D01*
X350000Y24510D01*
X1130468D01*
X1200061Y-45082D01*
X1208330Y-50608D01*
X1218084Y-52548D01*
X1991501D01*
X2156963Y-218010D01*
X2165232Y-223536D01*
X2174987Y-225476D01*
X2363655D01*
X2366134Y-234725D01*
X2377983Y-255247D01*
X2394739Y-272004D01*
X2415262Y-283853D01*
X2438152Y-289986D01*
X2461849D01*
X2484739Y-283853D01*
X2505261Y-272004D01*
X2522018Y-255247D01*
X2533867Y-234725D01*
X2540000Y-211835D01*
Y-188138D01*
X2533867Y-165248D01*
X2522018Y-144725D01*
X2505261Y-127969D01*
X2484739Y-116120D01*
X2461849Y-109987D01*
X2438152D01*
X2415262Y-116120D01*
X2394739Y-127969D01*
X2377983Y-144725D01*
X2366134Y-165248D01*
X2363655Y-174497D01*
X2185545D01*
X2020083Y-9035D01*
X2011813Y-3509D01*
X2002059Y-1569D01*
X1228643D01*
X1159050Y68024D01*
X1150781Y73549D01*
X1141026Y75490D01*
X468183D01*
X465657Y88190D01*
X472658Y91090D01*
X481079Y99510D01*
X1164442D01*
X1231978Y31974D01*
X1240248Y26449D01*
X1250002Y24508D01*
X2363662D01*
X2366134Y15285D01*
X2377983Y-5238D01*
X2394739Y-21994D01*
X2415262Y-33843D01*
X2438152Y-39977D01*
X2461849D01*
X2484739Y-33843D01*
X2505261Y-21994D01*
X2522018Y-5238D01*
X2533867Y15285D01*
X2540000Y38175D01*
Y61872D01*
X2533867Y84762D01*
X2522018Y105284D01*
X2505261Y122041D01*
X2484739Y133890D01*
X2461849Y140023D01*
X2438152D01*
X2415262Y133890D01*
X2394739Y122041D01*
X2377983Y105284D01*
X2366134Y84762D01*
X2363649Y75488D01*
X1260561D01*
X1194637Y141410D01*
X1195814Y147959D01*
X1199291Y154110D01*
X1329600D01*
X1339355Y156051D01*
X1347624Y161576D01*
X1411931Y225883D01*
X1417457Y234153D01*
X1419397Y243907D01*
Y342221D01*
X1420859Y343421D01*
X1471569D01*
X1481323Y345361D01*
X1489592Y350887D01*
X1502299Y363593D01*
X1514999Y358332D01*
Y250002D01*
X1614999D01*
Y370001D01*
X1624008Y378912D01*
X1703699D01*
Y496336D01*
X1712680Y505316D01*
X1717068D01*
X1720019Y506538D01*
X1723213Y506524D01*
X1735950Y511732D01*
X1738219Y513980D01*
X1741181Y515175D01*
X1750998Y524817D01*
X1752247Y527756D01*
X1754537Y529984D01*
X1759975Y542624D01*
X1760018Y545818D01*
X1761294Y548746D01*
X1761418Y555625D01*
X1761303Y555918D01*
X1761418Y556213D01*
X1761294Y563092D01*
X1760019Y566020D01*
X1759975Y569214D01*
X1754538Y581854D01*
X1752249Y584082D01*
X1751000Y587022D01*
X1741183Y596664D01*
X1738221Y597860D01*
X1735953Y600108D01*
X1723217Y605317D01*
X1720022Y605303D01*
X1717071Y606525D01*
X1703311Y606526D01*
X1700360Y605303D01*
X1697166Y605318D01*
X1684429Y600110D01*
X1682160Y597862D01*
X1679198Y596666D01*
X1669380Y587025D01*
X1668132Y584085D01*
X1665842Y581857D01*
X1660404Y569217D01*
X1660361Y566024D01*
X1659085Y563095D01*
X1659024Y559731D01*
X1650330Y554872D01*
X1646278Y554516D01*
X1631885Y568909D01*
X1757389Y694412D01*
X2099999D01*
X2100000Y694412D01*
X2111705Y696741D01*
X2121629Y703371D01*
X2139076Y720818D01*
X2160436Y708485D01*
X2186506Y701500D01*
X2213494D01*
X2239563Y708485D01*
X2262936Y721980D01*
X2282020Y741064D01*
X2295515Y764436D01*
X2302500Y790506D01*
Y817494D01*
X2295515Y843563D01*
X2282020Y866936D01*
X2262936Y886020D01*
X2239563Y899515D01*
X2213494Y906500D01*
X2186506D01*
X2160436Y899515D01*
X2137064Y886020D01*
X2117980Y866936D01*
X2104485Y843563D01*
X2097500Y817494D01*
Y790506D01*
X2102730Y770988D01*
X2087330Y755588D01*
X1744719D01*
X1733013Y753259D01*
X1723090Y746629D01*
X1723090Y746628D01*
X1575958Y599497D01*
X1253761D01*
X1242056Y597168D01*
X1232132Y590538D01*
X1196098Y554503D01*
X1192028Y554863D01*
X1183353Y559719D01*
X1183292Y563092D01*
X1182016Y566020D01*
X1181973Y569214D01*
X1176536Y581854D01*
X1174247Y584082D01*
X1172998Y587022D01*
X1163181Y596664D01*
X1160219Y597860D01*
X1157950Y600108D01*
X1145214Y605317D01*
X1142020Y605303D01*
X1139068Y606525D01*
X1125308Y606526D01*
X1122357Y605303D01*
X1119163Y605318D01*
X1106427Y600110D01*
X1104158Y597862D01*
X1101196Y596666D01*
X1091378Y587025D01*
X1090129Y584085D01*
X1087840Y581857D01*
X1082402Y569217D01*
X1082358Y566024D01*
X1081083Y563095D01*
X1080958Y556217D01*
X1081016Y556069D01*
X1080955Y555922D01*
X1081016Y555776D01*
X1080958Y555629D01*
X1081082Y548750D01*
X1082358Y545822D01*
X1082401Y542628D01*
X1087838Y529987D01*
X1090127Y527759D01*
X1091376Y524819D01*
X1101193Y515178D01*
X1104155Y513982D01*
X1106424Y511733D01*
X1119160Y506525D01*
X1122354Y506539D01*
X1125306Y505316D01*
X1138689Y505316D01*
Y378912D01*
X1175993D01*
X1185002Y370001D01*
Y250490D01*
X562290D01*
X475958Y336822D01*
X481218Y349522D01*
X700011D01*
X709766Y351462D01*
X718035Y356988D01*
X818024Y456976D01*
X823549Y465246D01*
X825490Y475000D01*
Y704000D01*
X823549Y713755D01*
X818024Y722024D01*
X742229Y797818D01*
X749515Y810437D01*
X756500Y836506D01*
Y863494D01*
X749515Y889564D01*
X736020Y912936D01*
X716936Y932020D01*
X693564Y945515D01*
X667494Y952500D01*
D02*
G37*
G36*
X-1109998Y787499D02*
X-1249998D01*
Y662499D01*
X-1137027D01*
X-1131766Y649799D01*
X-1133909Y647656D01*
X-1139998Y632955D01*
Y617042D01*
X-1133909Y602340D01*
X-1122656Y591088D01*
X-1107955Y584998D01*
X-1092042D01*
X-1077340Y591088D01*
X-1071469Y596960D01*
X-1054057D01*
Y563498D01*
X-1051845Y552378D01*
X-1045546Y542951D01*
X-1036119Y536652D01*
X-1024998Y534440D01*
X-1013878Y536652D01*
X-1004451Y542951D01*
X-998152Y552378D01*
X-995940Y563498D01*
Y686498D01*
X-996960Y691625D01*
Y710354D01*
X-999094Y721084D01*
X-1005172Y730180D01*
X-1019817Y744825D01*
X-1028913Y750903D01*
X-1039643Y753037D01*
X-1109998D01*
Y787499D01*
D02*
G37*
G36*
X-825000Y1025490D02*
X-3600000D01*
X-3609754Y1023549D01*
X-3618024Y1018024D01*
X-3885558Y750490D01*
X-4025000D01*
X-4034755Y748549D01*
X-4043024Y743024D01*
X-4093024Y693024D01*
X-4098549Y684755D01*
X-4100490Y675000D01*
Y500000D01*
X-4098549Y490246D01*
X-4093024Y481976D01*
X-4019149Y408102D01*
X-4022018Y405233D01*
X-4033866Y384711D01*
X-4040000Y361821D01*
Y338124D01*
X-4033866Y315234D01*
X-4022018Y294711D01*
X-4005261Y277955D01*
X-3984739Y266106D01*
X-3961849Y259973D01*
X-3938151D01*
X-3915261Y266106D01*
X-3894739Y277955D01*
X-3877982Y294711D01*
X-3866133Y315234D01*
X-3860000Y338124D01*
Y361821D01*
X-3866133Y384711D01*
X-3877982Y405233D01*
X-3894739Y421990D01*
X-3915261Y433839D01*
X-3938151Y439972D01*
X-3961849D01*
X-3975316Y436364D01*
X-4049510Y510558D01*
Y574563D01*
X-4036810Y576235D01*
X-4033866Y565249D01*
X-4022018Y544726D01*
X-4005261Y527969D01*
X-3984739Y516121D01*
X-3961849Y509987D01*
X-3938151D01*
X-3915261Y516121D01*
X-3894739Y527969D01*
X-3877982Y544726D01*
X-3866133Y565249D01*
X-3860000Y588139D01*
Y604910D01*
X-3857115Y606837D01*
X-3564442Y899510D01*
X-965002D01*
Y790001D01*
X-901050D01*
X-850489Y739440D01*
Y719680D01*
X-863189Y712892D01*
X-863866Y713345D01*
X-874986Y715556D01*
X-886106Y713345D01*
X-895533Y707045D01*
X-904452D01*
X-913879Y713345D01*
X-924999Y715556D01*
X-936119Y713345D01*
X-945546Y707045D01*
X-951845Y697618D01*
X-954057Y686498D01*
Y563498D01*
X-952234Y554334D01*
X-958910Y547658D01*
X-965000Y532957D01*
Y517043D01*
X-958910Y502342D01*
X-947658Y491090D01*
X-932956Y485000D01*
X-917043D01*
X-913183Y486599D01*
X-912406Y486262D01*
X-905557Y476011D01*
X-908910Y472658D01*
X-915000Y457957D01*
Y442044D01*
X-908910Y427342D01*
X-897658Y416090D01*
X-882957Y410000D01*
X-867043D01*
X-852342Y416090D01*
X-841090Y427342D01*
X-835000Y442044D01*
Y457957D01*
X-841090Y472658D01*
X-849503Y481072D01*
Y530321D01*
X-836803Y537109D01*
X-836119Y536652D01*
X-824999Y534440D01*
X-813879Y536652D01*
X-804452Y542951D01*
X-795533D01*
X-786106Y536652D01*
X-774986Y534440D01*
X-763866Y536652D01*
X-754439Y542951D01*
X-745546D01*
X-736119Y536652D01*
X-724999Y534440D01*
X-713879Y536652D01*
X-704452Y542951D01*
X-695534D01*
X-686107Y536652D01*
X-674986Y534440D01*
X-663866Y536652D01*
X-654439Y542951D01*
X-645546D01*
X-636119Y536652D01*
X-624999Y534440D01*
X-613879Y536652D01*
X-604452Y542951D01*
X-595534D01*
X-586107Y536652D01*
X-574987Y534440D01*
X-563867Y536652D01*
X-554440Y542951D01*
X-545547D01*
X-536120Y536652D01*
X-524999Y534440D01*
X-513879Y536652D01*
X-504452Y542951D01*
X-495534D01*
X-486107Y536652D01*
X-474987Y534440D01*
X-463867Y536652D01*
X-454440Y542951D01*
X-448140Y552378D01*
X-445928Y563498D01*
Y686498D01*
X-448140Y697618D01*
X-449497Y699649D01*
Y714455D01*
X-439442Y724510D01*
X-110558D01*
X-50490Y664442D01*
Y525000D01*
X-48549Y515246D01*
X-43024Y506976D01*
X31976Y431976D01*
X40246Y426451D01*
X50000Y424510D01*
X254000D01*
X263755Y426451D01*
X272024Y431976D01*
X347818Y507771D01*
X360436Y500485D01*
X386506Y493500D01*
X413494D01*
X439564Y500485D01*
X462936Y513980D01*
X482020Y533064D01*
X495515Y556437D01*
X502500Y582506D01*
Y609494D01*
X495515Y635564D01*
X482020Y658936D01*
X462936Y678020D01*
X439564Y691515D01*
X413494Y698500D01*
X386506D01*
X360436Y691515D01*
X337064Y678020D01*
X317980Y658936D01*
X304485Y635564D01*
X297500Y609494D01*
Y582506D01*
X304485Y556437D01*
X311771Y543818D01*
X243442Y475490D01*
X60558D01*
X490Y535558D01*
Y675000D01*
X-1451Y684754D01*
X-6976Y693024D01*
X-81976Y768024D01*
X-90245Y773549D01*
X-100000Y775490D01*
X-450000D01*
X-459754Y773549D01*
X-468024Y768024D01*
X-493011Y743037D01*
X-498536Y734768D01*
X-500477Y725013D01*
Y719663D01*
X-513177Y712875D01*
X-513879Y713345D01*
X-524999Y715556D01*
X-536120Y713345D01*
X-536797Y712892D01*
X-549497Y719680D01*
Y739455D01*
X-489442Y799510D01*
X-93558D01*
X57771Y648182D01*
X50485Y635564D01*
X43500Y609494D01*
Y582506D01*
X50485Y556437D01*
X63980Y533064D01*
X83064Y513980D01*
X106436Y500485D01*
X132506Y493500D01*
X159494D01*
X185564Y500485D01*
X208936Y513980D01*
X228020Y533064D01*
X241515Y556437D01*
X248500Y582506D01*
Y609494D01*
X241515Y635564D01*
X228020Y658936D01*
X208936Y678020D01*
X185564Y691515D01*
X159494Y698500D01*
X132506D01*
X106436Y691515D01*
X93818Y684230D01*
X-64976Y843024D01*
X-73245Y848549D01*
X-83000Y850490D01*
X-500000D01*
X-509755Y848549D01*
X-518024Y843024D01*
X-593010Y768037D01*
X-598536Y759768D01*
X-600476Y750013D01*
Y719663D01*
X-613176Y712875D01*
X-613879Y713345D01*
X-624999Y715556D01*
X-636119Y713345D01*
X-645546Y707045D01*
X-654439D01*
X-663866Y713345D01*
X-674986Y715556D01*
X-686107Y713345D01*
X-686809Y712875D01*
X-699509Y719663D01*
Y899999D01*
X-701450Y909754D01*
X-706975Y918023D01*
X-806976Y1018024D01*
X-815245Y1023549D01*
X-825000Y1025490D01*
D02*
G37*
G36*
X2213494Y652500D02*
X2186506D01*
X2160436Y645515D01*
X2137064Y632020D01*
X2117980Y612936D01*
X2104485Y589563D01*
X2097500Y563494D01*
Y536506D01*
X2104485Y510436D01*
X2117980Y487064D01*
X2137064Y467980D01*
X2160436Y454485D01*
X2186506Y447500D01*
X2213494D01*
X2239563Y454485D01*
X2262936Y467980D01*
X2282020Y487064D01*
X2294817Y509229D01*
X2369631D01*
X2377983Y494764D01*
X2394739Y478007D01*
X2415262Y466158D01*
X2438152Y460025D01*
X2461849D01*
X2484739Y466158D01*
X2505261Y478007D01*
X2522018Y494764D01*
X2533867Y515286D01*
X2540000Y538176D01*
Y561873D01*
X2533867Y584763D01*
X2522018Y605286D01*
X2505261Y622042D01*
X2484739Y633891D01*
X2461849Y640025D01*
X2438152D01*
X2415262Y633891D01*
X2394739Y622042D01*
X2377983Y605286D01*
X2369617Y590796D01*
X2294803D01*
X2282020Y612936D01*
X2262936Y632020D01*
X2239563Y645515D01*
X2213494Y652500D01*
D02*
G37*
G36*
X-322044Y580000D02*
X-337957D01*
X-352658Y573910D01*
X-363910Y562658D01*
X-370000Y547956D01*
Y532043D01*
X-363910Y517342D01*
X-363338Y516770D01*
X-368599Y504070D01*
X-386500D01*
X-397620Y501858D01*
X-407047Y495559D01*
X-413346Y486131D01*
X-415558Y475011D01*
X-413346Y463891D01*
X-407047Y454464D01*
X-397620Y448165D01*
X-386500Y445953D01*
X-263500D01*
X-258373Y446973D01*
X-237499D01*
Y434998D01*
X-112499D01*
Y574997D01*
X-237499D01*
Y503050D01*
X-258373D01*
X-263500Y504070D01*
X-296239D01*
X-296662Y516770D01*
X-296090Y517342D01*
X-290000Y532043D01*
Y547956D01*
X-296090Y562658D01*
X-307342Y573910D01*
X-322044Y580000D01*
D02*
G37*
G36*
X-1210001Y637501D02*
X-1350001D01*
Y512501D01*
X-1328037D01*
Y499999D01*
X-1325903Y489269D01*
X-1319825Y480173D01*
X-1315340Y475688D01*
X-1318320Y460707D01*
X-1322658Y458910D01*
X-1333910Y447658D01*
X-1340000Y432956D01*
Y417043D01*
X-1333910Y402342D01*
X-1334079Y399604D01*
X-1338107Y388577D01*
X-1349374Y383910D01*
X-1360626Y372658D01*
X-1362976Y366985D01*
X-1377957Y364005D01*
X-1406976Y393024D01*
X-1415000Y398386D01*
Y500000D01*
X-1494518D01*
Y527498D01*
X-1496458Y537253D01*
X-1501984Y545522D01*
X-1510002Y553541D01*
Y637499D01*
X-1650002D01*
Y512499D01*
X-1585484D01*
X-1585000Y500000D01*
X-1585000D01*
Y350000D01*
X-1452462D01*
X-1450000Y349510D01*
X-1435558D01*
X-1344375Y258327D01*
X-1338272Y254250D01*
X-1336950Y251799D01*
X-1335796Y246078D01*
X-1335505Y239733D01*
X-1434750Y140488D01*
X-1475004D01*
Y174998D01*
X-1575004D01*
Y54999D01*
X-1475004D01*
Y89509D01*
X-1424192D01*
X-1414437Y91449D01*
X-1408777Y95231D01*
X-1400681Y85367D01*
X-1451903Y34144D01*
X-1460002Y37499D01*
Y37499D01*
X-1600001D01*
Y-87501D01*
X-1599998Y-87502D01*
Y-212502D01*
X-1459998D01*
Y-137494D01*
X-1452747Y-136051D01*
X-1444478Y-130526D01*
X-1387223Y-73271D01*
X-1375490Y-78131D01*
Y-439442D01*
X-1398267Y-462219D01*
X-1404671Y-459892D01*
X-1410000Y-455991D01*
Y-442044D01*
X-1416090Y-427342D01*
X-1427342Y-416090D01*
X-1442043Y-410000D01*
X-1457956D01*
X-1472658Y-416090D01*
X-1483910Y-427342D01*
X-1490000Y-442044D01*
Y-453952D01*
X-1885558Y-849510D01*
X-4150000D01*
X-4159754Y-851451D01*
X-4168024Y-856976D01*
X-4443024Y-1131976D01*
X-4448549Y-1140245D01*
X-4450490Y-1150000D01*
Y-1334591D01*
X-4448549Y-1344346D01*
X-4443024Y-1352615D01*
X-4408831Y-1386808D01*
X-4410361Y-1394500D01*
X-4406915Y-1411824D01*
X-4397102Y-1426511D01*
X-4382415Y-1436325D01*
X-4365091Y-1439771D01*
X-4219391D01*
X-4202067Y-1436325D01*
X-4187380Y-1426511D01*
X-4177567Y-1411824D01*
X-4174121Y-1394500D01*
X-4177567Y-1377176D01*
X-4187380Y-1362489D01*
X-4202067Y-1352676D01*
X-4219391Y-1349230D01*
X-4365091D01*
X-4372783Y-1350760D01*
X-4399510Y-1324033D01*
Y-1160558D01*
X-4139442Y-900490D01*
X-3900490D01*
Y-914661D01*
X-3914911Y-922987D01*
X-3927013Y-935089D01*
X-3935570Y-949911D01*
X-3940000Y-966443D01*
Y-983558D01*
X-3935570Y-1000089D01*
X-3927013Y-1014911D01*
X-3914911Y-1027013D01*
X-3900089Y-1035570D01*
X-3893633Y-1037300D01*
X-3895305Y-1050000D01*
X-3900000D01*
Y-1074510D01*
X-3952500D01*
Y-1045000D01*
X-4077500D01*
Y-1074511D01*
X-4130000D01*
Y-1050000D01*
X-4250000D01*
Y-1150000D01*
X-4130000D01*
Y-1125490D01*
X-4077500D01*
Y-1185000D01*
X-3952500D01*
Y-1125490D01*
X-3900000D01*
Y-1150000D01*
X-3780000D01*
Y-1125490D01*
X-3300490D01*
Y-1164661D01*
X-3314911Y-1172987D01*
X-3327013Y-1185089D01*
X-3335570Y-1199911D01*
X-3340000Y-1216443D01*
Y-1233558D01*
X-3335570Y-1250089D01*
X-3327013Y-1264911D01*
X-3314911Y-1277013D01*
X-3300089Y-1285570D01*
X-3283558Y-1290000D01*
X-3266443D01*
X-3249911Y-1285570D01*
X-3235089Y-1277013D01*
X-3222987Y-1264911D01*
X-3214430Y-1250089D01*
X-3210000Y-1233558D01*
Y-1216443D01*
X-3214430Y-1199911D01*
X-3222987Y-1185089D01*
X-3235089Y-1172987D01*
X-3249510Y-1164661D01*
Y-1125490D01*
X-1900000D01*
X-1890246Y-1123549D01*
X-1881976Y-1118024D01*
X-1281976Y-518024D01*
X-1276451Y-509754D01*
X-1274510Y-500000D01*
Y-106342D01*
X-1268123Y-100554D01*
X-1257032Y-95548D01*
X-1247605Y-101847D01*
X-1236485Y-104059D01*
X-1125490D01*
Y-631816D01*
X-1138190Y-634343D01*
X-1141090Y-627342D01*
X-1152342Y-616090D01*
X-1167043Y-610000D01*
X-1182956D01*
X-1197658Y-616090D01*
X-1208910Y-627342D01*
X-1215000Y-642043D01*
Y-657957D01*
X-1208910Y-672658D01*
X-1200490Y-681079D01*
Y-781817D01*
X-1213190Y-784343D01*
X-1216090Y-777342D01*
X-1227342Y-766090D01*
X-1242043Y-760000D01*
X-1257957D01*
X-1272658Y-766090D01*
X-1283910Y-777342D01*
X-1290000Y-792043D01*
Y-807956D01*
X-1283910Y-822658D01*
X-1275490Y-831079D01*
Y-1003844D01*
X-1285565Y-1011575D01*
X-1291442Y-1010000D01*
X-1308557D01*
X-1325089Y-1014430D01*
X-1339911Y-1022987D01*
X-1352013Y-1035089D01*
X-1360570Y-1049911D01*
X-1365000Y-1066442D01*
Y-1083557D01*
X-1360570Y-1100089D01*
X-1352013Y-1114911D01*
X-1339911Y-1127013D01*
X-1325089Y-1135570D01*
X-1308557Y-1140000D01*
X-1291442D01*
X-1285565Y-1138425D01*
X-1275490Y-1146156D01*
Y-1366591D01*
X-1273549Y-1376345D01*
X-1268024Y-1384614D01*
X-1143831Y-1508807D01*
X-1145361Y-1516500D01*
X-1141915Y-1533824D01*
X-1132102Y-1548511D01*
X-1117415Y-1558324D01*
X-1100091Y-1561770D01*
X-954391D01*
X-937067Y-1558324D01*
X-922380Y-1548511D01*
X-912567Y-1533824D01*
X-909121Y-1516500D01*
X-912567Y-1499176D01*
X-922380Y-1484489D01*
X-937067Y-1474675D01*
X-954391Y-1471229D01*
X-1100091D01*
X-1107783Y-1472760D01*
X-1224510Y-1356033D01*
Y-1197132D01*
X-1211810Y-1195461D01*
X-1210570Y-1200089D01*
X-1202013Y-1214911D01*
X-1200490Y-1216434D01*
Y-1325000D01*
X-1198549Y-1334755D01*
X-1193024Y-1343024D01*
X-1145067Y-1390981D01*
X-1141915Y-1406824D01*
X-1132102Y-1421511D01*
X-1117415Y-1431324D01*
X-1100091Y-1434770D01*
X-954391D01*
X-937067Y-1431324D01*
X-922380Y-1421511D01*
X-912567Y-1406824D01*
X-909121Y-1389500D01*
X-912567Y-1372176D01*
X-922380Y-1357489D01*
X-937067Y-1347675D01*
X-954391Y-1344229D01*
X-1100091D01*
X-1116466Y-1347487D01*
X-1149510Y-1314442D01*
Y-1240000D01*
X-1141442D01*
X-1124911Y-1235570D01*
X-1110089Y-1227013D01*
X-1097987Y-1214911D01*
X-1089430Y-1200089D01*
X-1085000Y-1183557D01*
Y-1166442D01*
X-1089430Y-1149911D01*
X-1097987Y-1135089D01*
X-1110089Y-1122987D01*
X-1124911Y-1114430D01*
X-1141442Y-1110000D01*
X-1149510D01*
Y-893184D01*
X-1136810Y-890657D01*
X-1133910Y-897658D01*
X-1122658Y-908910D01*
X-1107957Y-915000D01*
X-1092044D01*
X-1077342Y-908910D01*
X-1066090Y-897658D01*
X-1063188Y-890653D01*
X-1050488Y-893179D01*
Y-934663D01*
X-1064909Y-942989D01*
X-1077011Y-955091D01*
X-1085569Y-969912D01*
X-1089998Y-986444D01*
Y-1003559D01*
X-1085569Y-1020091D01*
X-1077011Y-1034912D01*
X-1064909Y-1047014D01*
X-1050088Y-1055572D01*
X-1033556Y-1060001D01*
X-1016441D01*
X-1000356Y-1055691D01*
X-985351Y-1070697D01*
X-985000Y-1072463D01*
Y-1145000D01*
X-865000D01*
Y-1120490D01*
X-812500D01*
Y-1180000D01*
X-687500D01*
Y-1120490D01*
X-635000D01*
Y-1145000D01*
X-515000D01*
Y-1045000D01*
X-635000D01*
Y-1069510D01*
X-687500D01*
Y-1040000D01*
X-812500D01*
Y-1069510D01*
X-865000D01*
Y-1045000D01*
X-939955D01*
X-941976Y-1041976D01*
X-964309Y-1019644D01*
X-959999Y-1003559D01*
Y-986444D01*
X-964428Y-969912D01*
X-972986Y-955091D01*
X-985088Y-942989D01*
X-999509Y-934663D01*
Y-893187D01*
X-986809Y-890660D01*
X-983910Y-897658D01*
X-972658Y-908910D01*
X-957956Y-915000D01*
X-942043D01*
X-927342Y-908910D01*
X-918921Y-900490D01*
X-690000D01*
Y-908557D01*
X-685570Y-925089D01*
X-677013Y-939911D01*
X-664911Y-952013D01*
X-650089Y-960570D01*
X-633558Y-965000D01*
X-616443D01*
X-599911Y-960570D01*
X-585089Y-952013D01*
X-584562Y-951486D01*
X-125490Y-1410558D01*
Y-2164442D01*
X-239782Y-2278735D01*
X-278950D01*
X-281476Y-2266035D01*
X-274509Y-2263149D01*
X-261851Y-2250491D01*
X-255000Y-2233951D01*
Y-2216049D01*
X-261851Y-2199510D01*
X-274509Y-2186851D01*
X-291049Y-2180000D01*
X-301742D01*
X-326147Y-2155596D01*
X-336070Y-2148965D01*
X-347776Y-2146637D01*
X-347777Y-2146637D01*
X-378617D01*
X-379095Y-2145921D01*
X-393458Y-2136324D01*
X-410399Y-2132954D01*
X-548580D01*
X-565522Y-2136324D01*
X-579884Y-2145921D01*
X-581712Y-2148656D01*
X-594412Y-2144804D01*
Y-1953812D01*
X-580363D01*
X-579884Y-1954528D01*
X-565522Y-1964125D01*
X-548580Y-1967495D01*
X-410399D01*
X-393458Y-1964125D01*
X-379095Y-1954528D01*
X-369498Y-1940166D01*
X-366129Y-1923224D01*
X-368971Y-1908936D01*
X-362100Y-1896236D01*
X-342500D01*
Y-1910000D01*
X-217500D01*
Y-1889020D01*
X-213764Y-1880000D01*
Y-1710000D01*
X-210088Y-1704500D01*
X-208010D01*
Y-1564500D01*
X-208010D01*
X-208010Y-1551800D01*
Y-1424500D01*
X-300053D01*
X-303010Y-1423912D01*
X-303012Y-1423912D01*
X-321554D01*
X-354859Y-1390607D01*
X-354639Y-1389500D01*
X-358085Y-1372176D01*
X-367898Y-1357489D01*
X-382585Y-1347675D01*
X-399909Y-1344229D01*
X-533709D01*
X-544412Y-1333525D01*
Y-1315000D01*
X-515000D01*
Y-1215000D01*
X-635000D01*
Y-1315000D01*
X-605588D01*
Y-1346194D01*
X-605588Y-1346195D01*
X-603259Y-1357901D01*
X-596629Y-1367824D01*
X-588237Y-1376216D01*
X-590879Y-1389500D01*
X-587433Y-1406824D01*
X-577620Y-1421511D01*
X-562933Y-1431324D01*
X-545609Y-1434770D01*
X-399909D01*
X-397659Y-1434323D01*
X-355853Y-1476128D01*
X-345930Y-1482759D01*
X-334225Y-1485087D01*
X-333244Y-1494943D01*
X-333524Y-1498744D01*
X-345700Y-1505612D01*
X-348930Y-1505155D01*
X-357611Y-1501559D01*
X-358085Y-1499176D01*
X-367898Y-1484489D01*
X-382585Y-1474675D01*
X-399909Y-1471229D01*
X-545609D01*
X-562933Y-1474675D01*
X-564491Y-1475716D01*
X-637777D01*
X-653385Y-1478821D01*
X-666616Y-1487661D01*
X-666616Y-1487662D01*
X-728839Y-1549884D01*
X-737679Y-1563115D01*
X-740784Y-1578723D01*
X-740784Y-1578724D01*
Y-2428558D01*
X-740784Y-2428559D01*
X-737679Y-2444166D01*
X-728839Y-2457397D01*
X-714594Y-2471642D01*
X-720848Y-2482475D01*
X-728004Y-2509180D01*
Y-2536827D01*
X-720848Y-2563532D01*
X-707025Y-2587475D01*
X-687475Y-2607024D01*
X-663533Y-2620847D01*
X-636828Y-2628003D01*
X-609181D01*
X-582476Y-2620847D01*
X-558533Y-2607024D01*
X-538983Y-2587475D01*
X-525160Y-2563532D01*
X-518004Y-2536827D01*
Y-2509180D01*
X-525160Y-2482475D01*
X-535669Y-2464273D01*
X-525506Y-2456475D01*
X-477327Y-2504655D01*
X-477326Y-2504655D01*
X-473480Y-2507225D01*
X-474004Y-2509180D01*
Y-2536827D01*
X-466848Y-2563532D01*
X-453025Y-2587475D01*
X-433475Y-2607024D01*
X-409533Y-2620847D01*
X-382828Y-2628003D01*
X-355181D01*
X-328476Y-2620847D01*
X-304533Y-2607024D01*
X-284983Y-2587475D01*
X-271160Y-2563532D01*
X-264004Y-2536827D01*
Y-2509180D01*
X-271160Y-2482475D01*
X-284983Y-2458532D01*
X-304533Y-2438983D01*
X-328476Y-2425159D01*
X-355181Y-2418004D01*
X-382828D01*
X-409533Y-2425159D01*
X-433475Y-2438983D01*
X-444980Y-2450487D01*
X-535238Y-2360228D01*
X-530378Y-2348495D01*
X-410399D01*
X-393458Y-2345125D01*
X-379095Y-2335528D01*
X-375210Y-2329714D01*
X-229224D01*
X-219470Y-2327774D01*
X-211200Y-2322248D01*
X-81976Y-2193024D01*
X-76451Y-2184755D01*
X-74510Y-2175000D01*
Y-1400000D01*
X-76451Y-1390245D01*
X-81976Y-1381976D01*
X-558317Y-905635D01*
X-557628Y-895114D01*
X-545729Y-890318D01*
X-460039Y-976008D01*
X-452013Y-989911D01*
X-439911Y-1002013D01*
X-426008Y-1010039D01*
X-50490Y-1385558D01*
Y-2689442D01*
X-70557Y-2709509D01*
X-90001D01*
Y-2684999D01*
X-210000D01*
Y-2709509D01*
X-264004D01*
Y-2672004D01*
X-474004D01*
Y-2882003D01*
X-264004D01*
Y-2760489D01*
X-210000D01*
Y-2784999D01*
X-90001D01*
Y-2760489D01*
X-59999D01*
X-50245Y-2758548D01*
X-41975Y-2753023D01*
X-6976Y-2718024D01*
X-1451Y-2709754D01*
X490Y-2700000D01*
Y-1375000D01*
X-1451Y-1365245D01*
X-6976Y-1356976D01*
X-360304Y-1003648D01*
X-360089Y-1002012D01*
X-347987Y-989911D01*
X-339430Y-975089D01*
X-335000Y-958557D01*
Y-941442D01*
X-339430Y-924911D01*
X-347987Y-910089D01*
X-360089Y-897987D01*
X-374911Y-889430D01*
X-391442Y-885000D01*
X-408557D01*
X-425089Y-889430D01*
X-439911Y-897987D01*
X-452013Y-910089D01*
X-453648Y-910304D01*
X-799509Y-564443D01*
Y-319652D01*
X-786809Y-312864D01*
X-786106Y-313334D01*
X-774986Y-315545D01*
X-763866Y-313334D01*
X-754439Y-307034D01*
X-745546D01*
X-736119Y-313334D01*
X-724999Y-315545D01*
X-713879Y-313334D01*
X-704452Y-307034D01*
X-695534D01*
X-686107Y-313334D01*
X-674986Y-315545D01*
X-663866Y-313334D01*
X-654439Y-307034D01*
X-645546D01*
X-636119Y-313334D01*
X-624999Y-315545D01*
X-613879Y-313334D01*
X-604452Y-307034D01*
X-595534D01*
X-586107Y-313334D01*
X-574987Y-315545D01*
X-563867Y-313334D01*
X-554439Y-307034D01*
X-548140Y-297607D01*
X-545928Y-286487D01*
Y-163488D01*
X-548140Y-152367D01*
X-549504Y-150327D01*
Y-131072D01*
X-541090Y-122658D01*
X-535000Y-107957D01*
Y-92044D01*
X-541090Y-77342D01*
X-552342Y-66090D01*
X-567044Y-60000D01*
X-573267D01*
X-583260Y-58259D01*
X-585000Y-48267D01*
Y-42043D01*
X-591090Y-27342D01*
X-602342Y-16090D01*
X-617043Y-10000D01*
X-623267D01*
X-633260Y-8260D01*
X-635000Y1733D01*
Y7957D01*
X-641090Y22658D01*
X-652342Y33910D01*
X-667043Y40000D01*
X-673267D01*
X-683259Y41740D01*
X-685000Y51733D01*
Y57956D01*
X-691090Y72658D01*
X-702342Y83910D01*
X-717044Y90000D01*
X-723267D01*
X-733260Y91740D01*
X-735000Y101733D01*
Y107957D01*
X-741090Y122658D01*
X-752342Y133910D01*
X-767043Y140000D01*
X-782957D01*
X-797658Y133910D01*
X-808910Y122658D01*
X-815000Y107957D01*
Y92044D01*
X-808910Y77342D01*
X-800490Y68921D01*
Y-130313D01*
X-813190Y-137101D01*
X-813879Y-136641D01*
X-824999Y-134429D01*
X-836119Y-136641D01*
X-845546Y-142940D01*
X-854439D01*
X-863866Y-136641D01*
X-874986Y-134429D01*
X-886106Y-136641D01*
X-895533Y-142940D01*
X-904452D01*
X-913879Y-136641D01*
X-924999Y-134429D01*
X-936119Y-136641D01*
X-945546Y-142940D01*
X-954439D01*
X-963866Y-136641D01*
X-974986Y-134429D01*
X-986106Y-136641D01*
X-995533Y-142940D01*
X-1004451D01*
X-1013878Y-136641D01*
X-1024998Y-134429D01*
X-1036119Y-136641D01*
X-1045546Y-142940D01*
X-1051845Y-152367D01*
X-1054057Y-163488D01*
Y-286487D01*
X-1051845Y-297607D01*
X-1050488Y-299638D01*
Y-856821D01*
X-1063188Y-859347D01*
X-1066090Y-852342D01*
X-1074510Y-843921D01*
Y-90216D01*
X-1076451Y-80462D01*
X-1081976Y-72192D01*
X-1085733Y-68435D01*
X-1086639Y-63880D01*
X-1092938Y-54453D01*
Y-45535D01*
X-1086639Y-36108D01*
X-1084427Y-24988D01*
X-1086639Y-13868D01*
X-1092938Y-4441D01*
Y4452D01*
X-1086639Y13879D01*
X-1084427Y24999D01*
X-1086639Y36119D01*
X-1075519Y40356D01*
X-1072681Y41113D01*
X-1072658Y41090D01*
X-1057956Y35000D01*
X-1042043D01*
X-1027342Y41090D01*
X-1016090Y52342D01*
X-1010000Y67044D01*
Y82957D01*
X-1016090Y97658D01*
X-1027342Y108910D01*
X-1042043Y115000D01*
X-1057956D01*
X-1072658Y108910D01*
X-1081073Y100496D01*
X-1100326D01*
X-1102366Y101859D01*
X-1113486Y104070D01*
X-1236485D01*
X-1247605Y101859D01*
X-1249636Y100502D01*
X-1274988D01*
X-1284742Y98561D01*
X-1293012Y93036D01*
X-1448268Y-62220D01*
X-1460002Y-57360D01*
Y-32207D01*
X-1456717D01*
X-1446963Y-30267D01*
X-1438693Y-24741D01*
X-1265769Y148183D01*
X-1247631D01*
X-1247605Y148165D01*
X-1236485Y145953D01*
X-1113486D01*
X-1102366Y148165D01*
X-1100344Y149516D01*
X-1081084D01*
X-1072658Y141090D01*
X-1057956Y135000D01*
X-1042043D01*
X-1027342Y141090D01*
X-1016090Y152342D01*
X-1010000Y167043D01*
Y182956D01*
X-1016090Y197658D01*
X-1027342Y208910D01*
X-1042043Y215000D01*
X-1057956D01*
X-1072658Y208910D01*
X-1072662Y208907D01*
X-1075514Y209665D01*
X-1086639Y213879D01*
X-1084427Y224999D01*
X-1086639Y236119D01*
X-1092938Y245546D01*
Y254465D01*
X-1086639Y263892D01*
X-1084427Y275012D01*
X-1086639Y286132D01*
X-1092938Y295559D01*
Y304452D01*
X-1086639Y313879D01*
X-1084427Y324999D01*
X-1086639Y336119D01*
X-1092938Y345546D01*
Y354464D01*
X-1086639Y363891D01*
X-1084427Y375011D01*
X-1086639Y386132D01*
X-1092938Y395559D01*
Y404452D01*
X-1086639Y413879D01*
X-1084427Y424999D01*
X-1084798Y426861D01*
X-1074174Y432364D01*
X-1065000Y424985D01*
Y417043D01*
X-1058910Y402342D01*
X-1047658Y391090D01*
X-1032957Y385000D01*
X-1017043D01*
X-1002342Y391090D01*
X-991090Y402342D01*
X-985000Y417043D01*
Y432956D01*
X-991090Y447658D01*
X-1002342Y458910D01*
X-1017043Y465000D01*
X-1025347D01*
X-1055185Y494837D01*
X-1064281Y500915D01*
X-1075011Y503050D01*
X-1108358D01*
X-1113486Y504070D01*
X-1200793D01*
X-1210001Y512501D01*
Y637501D01*
D02*
G37*
G36*
X-3389999Y359999D02*
X-3509999D01*
Y259999D01*
X-3389999D01*
Y279470D01*
X-3355341D01*
Y249959D01*
X-3245341D01*
Y359959D01*
X-3355341D01*
Y330449D01*
X-3389999D01*
Y359999D01*
D02*
G37*
G36*
X-2717043Y465000D02*
X-2732956D01*
X-2747658Y458910D01*
X-2758910Y447658D01*
X-2765000Y432956D01*
Y417043D01*
X-2764623Y416135D01*
X-2933940Y246818D01*
X-2945345Y253374D01*
X-2945345Y261224D01*
Y359944D01*
X-3055345D01*
Y330434D01*
X-3089998D01*
Y359999D01*
X-3209998D01*
Y259999D01*
X-3089998D01*
Y279454D01*
X-3055345D01*
Y249944D01*
X-2957515D01*
X-2948775Y249944D01*
X-2942219Y238539D01*
X-2980707Y200051D01*
X-3054659D01*
Y90051D01*
X-2975850D01*
X-2969061Y77351D01*
X-2970305Y75490D01*
X-3194056D01*
X-3244655Y126089D01*
Y200041D01*
X-3354655D01*
Y90041D01*
X-3280703D01*
X-3222638Y31976D01*
X-3214368Y26451D01*
X-3204614Y24510D01*
X-2950000D01*
X-2940246Y26451D01*
X-2931976Y31976D01*
X-2628952Y335000D01*
X-2617044D01*
X-2602342Y341090D01*
X-2591090Y352342D01*
X-2585000Y367043D01*
Y382957D01*
X-2591090Y397658D01*
X-2602342Y408910D01*
X-2617044Y415000D01*
X-2632957D01*
X-2647658Y408910D01*
X-2658910Y397658D01*
X-2665000Y382957D01*
Y371048D01*
X-2932926Y103122D01*
X-2944659Y107982D01*
Y164003D01*
X-2723663Y385000D01*
X-2717043D01*
X-2702342Y391090D01*
X-2691090Y402342D01*
X-2685000Y417043D01*
Y432956D01*
X-2691090Y447658D01*
X-2702342Y458910D01*
X-2717043Y465000D01*
D02*
G37*
G36*
X2461849Y390012D02*
X2438152D01*
X2415262Y383879D01*
X2394739Y372030D01*
X2377983Y355274D01*
X2366134Y334751D01*
X2360000Y311861D01*
Y288164D01*
X2366134Y265274D01*
X2377983Y244752D01*
X2394739Y227995D01*
X2415262Y216146D01*
X2438152Y210013D01*
X2461849D01*
X2484739Y216146D01*
X2505261Y227995D01*
X2522018Y244752D01*
X2533867Y265274D01*
X2540000Y288164D01*
Y311861D01*
X2533867Y334751D01*
X2522018Y355274D01*
X2505261Y372030D01*
X2484739Y383879D01*
X2461849Y390012D01*
D02*
G37*
G36*
X2302500Y398500D02*
X2097500D01*
Y193500D01*
X2302500D01*
Y398500D01*
D02*
G37*
G36*
X-1822504Y340000D02*
X-1947504D01*
Y200000D01*
X-1822504D01*
Y229508D01*
X-1805015D01*
Y179998D01*
X-1755635D01*
X-1745006Y174998D01*
Y54999D01*
X-1645006D01*
Y174998D01*
X-1635015Y179998D01*
Y329998D01*
X-1805015D01*
Y280487D01*
X-1822504D01*
Y340000D01*
D02*
G37*
G36*
X-2217044Y515000D02*
X-2232957D01*
X-2247658Y508910D01*
X-2258910Y497658D01*
X-2265000Y482957D01*
Y471048D01*
X-2795059Y-59011D01*
X-2850210D01*
X-2854095Y-53197D01*
X-2868458Y-43600D01*
X-2885399Y-40230D01*
X-3023580D01*
X-3040522Y-43600D01*
X-3054884Y-53197D01*
X-3064481Y-67559D01*
X-3067851Y-84501D01*
X-3064481Y-101443D01*
X-3054884Y-115805D01*
X-3040522Y-125402D01*
X-3023580Y-128772D01*
X-2885399D01*
X-2868458Y-125402D01*
X-2854095Y-115805D01*
X-2850210Y-109991D01*
X-2784501D01*
X-2774746Y-108050D01*
X-2766477Y-102525D01*
X-2228952Y435000D01*
X-2217044D01*
X-2202342Y441090D01*
X-2191090Y452342D01*
X-2185000Y467044D01*
Y482957D01*
X-2191090Y497658D01*
X-2202342Y508910D01*
X-2217044Y515000D01*
D02*
G37*
G36*
X-3426419Y-40230D02*
X-3564600D01*
X-3581542Y-43600D01*
X-3595904Y-53197D01*
X-3605501Y-67559D01*
X-3608871Y-84501D01*
X-3605501Y-101443D01*
X-3595904Y-115805D01*
X-3581542Y-125402D01*
X-3564600Y-128772D01*
X-3426419D01*
X-3409478Y-125402D01*
X-3395115Y-115805D01*
X-3385518Y-101443D01*
X-3382148Y-84501D01*
X-3385518Y-67559D01*
X-3395115Y-53197D01*
X-3409478Y-43600D01*
X-3426419Y-40230D01*
D02*
G37*
G36*
X132957Y140000D02*
X117043D01*
X102342Y133910D01*
X91090Y122658D01*
X85000Y107957D01*
Y92044D01*
X91090Y77342D01*
X102342Y66090D01*
X117043Y60000D01*
X128952D01*
X231976Y-43024D01*
X240245Y-48549D01*
X250000Y-50490D01*
X256817D01*
X259343Y-63190D01*
X252342Y-66090D01*
X241090Y-77342D01*
X235000Y-92044D01*
Y-107957D01*
X241090Y-122658D01*
X250994Y-132563D01*
Y-196986D01*
X238984Y-202714D01*
X238782Y-202734D01*
X150490Y-114442D01*
Y-81079D01*
X158910Y-72658D01*
X165000Y-57956D01*
Y-42043D01*
X158910Y-27342D01*
X147658Y-16090D01*
X132957Y-10000D01*
X117043D01*
X102342Y-16090D01*
X91090Y-27342D01*
X85000Y-42043D01*
Y-57956D01*
X91090Y-72658D01*
X99510Y-81079D01*
Y-125000D01*
X101451Y-134754D01*
X106976Y-143024D01*
X456976Y-493024D01*
X465246Y-498549D01*
X475000Y-500490D01*
X555201D01*
X557002Y-501236D01*
X587046D01*
X597668Y-502344D01*
X598779Y-512969D01*
Y-543011D01*
X603535Y-554491D01*
X615015Y-559247D01*
X635013D01*
X639248Y-557492D01*
X640005Y-557998D01*
Y-557998D01*
X809995D01*
Y-557998D01*
X810768Y-557482D01*
X815005Y-559237D01*
X835005D01*
X846485Y-554481D01*
X851241Y-543001D01*
Y-512977D01*
X852339Y-502339D01*
X862974Y-501243D01*
X893003D01*
X899510Y-505592D01*
Y-525000D01*
X901451Y-534754D01*
X906976Y-543024D01*
X931976Y-568024D01*
X940245Y-573549D01*
X950000Y-575489D01*
X962500D01*
Y-665000D01*
X1087500D01*
Y-625490D01*
X1108921D01*
X1117342Y-633910D01*
X1132043Y-640000D01*
X1147957D01*
X1162658Y-633910D01*
X1173910Y-622658D01*
X1180000Y-607957D01*
Y-592044D01*
X1173910Y-577342D01*
X1162658Y-566090D01*
X1147957Y-560000D01*
X1132043D01*
X1117342Y-566090D01*
X1108921Y-574510D01*
X1087500D01*
Y-525000D01*
X992358D01*
X989894Y-524510D01*
X960558D01*
X950490Y-514442D01*
Y-461652D01*
X948549Y-451897D01*
X943024Y-443628D01*
X916367Y-416971D01*
X908097Y-411445D01*
X907998Y-411426D01*
Y-409995D01*
X900805D01*
X898343Y-409505D01*
X867748D01*
X865286Y-409995D01*
X827498D01*
Y-459995D01*
X827497D01*
X827498Y-459995D01*
X827221Y-462660D01*
X826267Y-464932D01*
Y-464934D01*
X825059Y-475066D01*
X814924Y-476267D01*
X814922D01*
X812650Y-477222D01*
X809995Y-477498D01*
X809995Y-477498D01*
Y-477498D01*
X640005D01*
Y-477498D01*
X640005Y-477498D01*
X637366Y-477223D01*
X635108Y-476272D01*
X635106D01*
X624971Y-475066D01*
X623738Y-464927D01*
Y-464925D01*
X622779Y-462642D01*
X622502Y-459995D01*
X622502Y-459995D01*
X622502D01*
Y-330010D01*
X542002D01*
Y-409505D01*
X520553D01*
X301973Y-190925D01*
Y-129595D01*
X308910Y-122658D01*
X315000Y-107957D01*
Y-92044D01*
X308910Y-77342D01*
X297658Y-66090D01*
X290657Y-63190D01*
X293183Y-50490D01*
X723335D01*
X725000Y-62500D01*
X725000Y-63190D01*
Y-187500D01*
X714164Y-192002D01*
X640005D01*
Y-272502D01*
X809995D01*
Y-272502D01*
X809995Y-272502D01*
X812617Y-272778D01*
X814918Y-273746D01*
X814920D01*
X825056Y-274959D01*
X826259Y-285092D01*
X828651Y-290780D01*
X831015Y-296486D01*
X831058Y-296504D01*
X831076Y-296547D01*
X836799Y-298882D01*
X842495Y-301241D01*
X892995D01*
X904476Y-296486D01*
X909231Y-285005D01*
Y-265013D01*
X904476Y-253532D01*
X892995Y-248777D01*
X862974D01*
X852331Y-247671D01*
X851241Y-237044D01*
Y-207007D01*
X850489Y-205193D01*
Y-187500D01*
X865000D01*
Y-166366D01*
X867044Y-165000D01*
X882957D01*
X897658Y-158910D01*
X908910Y-147658D01*
X915000Y-132957D01*
Y-117043D01*
X908910Y-102342D01*
X897658Y-91090D01*
X882957Y-85000D01*
X877134D01*
X865000Y-73147D01*
Y-63190D01*
X865000Y-62500D01*
X866665Y-50490D01*
X1109226D01*
X1171872Y-113136D01*
X1180141Y-118661D01*
X1189896Y-120601D01*
X1934554D01*
X2281952Y-468000D01*
X2290221Y-473525D01*
X2299976Y-475465D01*
X2363655D01*
X2366134Y-484714D01*
X2377983Y-505237D01*
X2394739Y-521993D01*
X2415262Y-533842D01*
X2438152Y-539976D01*
X2461849D01*
X2484739Y-533842D01*
X2505261Y-521993D01*
X2522018Y-505237D01*
X2533867Y-484714D01*
X2540000Y-461824D01*
Y-438127D01*
X2533867Y-415237D01*
X2522018Y-394715D01*
X2505261Y-377958D01*
X2484739Y-366109D01*
X2461849Y-359976D01*
X2438152D01*
X2415262Y-366109D01*
X2394739Y-377958D01*
X2377983Y-394715D01*
X2366134Y-415237D01*
X2363655Y-424486D01*
X2310534D01*
X1963136Y-77088D01*
X1954867Y-71562D01*
X1945112Y-69622D01*
X1200454D01*
X1137808Y-6976D01*
X1129539Y-1451D01*
X1119784Y490D01*
X260558D01*
X165000Y96048D01*
Y107957D01*
X158910Y122658D01*
X147658Y133910D01*
X132957Y140000D01*
D02*
G37*
G36*
X-3426419Y-167230D02*
X-3564600D01*
X-3581542Y-170600D01*
X-3595904Y-180197D01*
X-3596383Y-180913D01*
X-3736501D01*
X-3748206Y-183242D01*
X-3758130Y-189872D01*
X-3862670Y-294412D01*
X-4024999D01*
X-4025000Y-294412D01*
X-4036705Y-296741D01*
X-4046629Y-303371D01*
X-4121629Y-378371D01*
X-4128259Y-388295D01*
X-4130588Y-400000D01*
X-4130588Y-400001D01*
Y-624999D01*
X-4130588Y-625000D01*
X-4128259Y-636705D01*
X-4121629Y-646629D01*
X-4063967Y-704290D01*
X-4054044Y-710921D01*
X-4042339Y-713249D01*
X-4042337Y-713249D01*
X-4039632D01*
X-4033866Y-734766D01*
X-4022018Y-755289D01*
X-4015496Y-761810D01*
X-4020756Y-774510D01*
X-4200000D01*
X-4209755Y-776451D01*
X-4218024Y-781976D01*
X-4543024Y-1106976D01*
X-4548549Y-1115245D01*
X-4550490Y-1125000D01*
Y-1361591D01*
X-4548549Y-1371345D01*
X-4543024Y-1379615D01*
X-4408831Y-1513807D01*
X-4410361Y-1521500D01*
X-4406915Y-1538824D01*
X-4397102Y-1553511D01*
X-4382415Y-1563325D01*
X-4365091Y-1566771D01*
X-4219391D01*
X-4202067Y-1563325D01*
X-4187380Y-1553511D01*
X-4177567Y-1538824D01*
X-4174121Y-1521500D01*
X-4177567Y-1504176D01*
X-4187380Y-1489489D01*
X-4202067Y-1479676D01*
X-4219391Y-1476230D01*
X-4365091D01*
X-4372783Y-1477760D01*
X-4499510Y-1351033D01*
Y-1135558D01*
X-4189442Y-825490D01*
X-3991559D01*
X-3991421Y-825517D01*
X-3908579D01*
X-3908441Y-825490D01*
X-1925000D01*
X-1915245Y-823549D01*
X-1906976Y-818024D01*
X-1481976Y-393024D01*
X-1476451Y-384754D01*
X-1474510Y-375000D01*
Y-356079D01*
X-1466090Y-347658D01*
X-1460000Y-332957D01*
Y-317044D01*
X-1466090Y-302342D01*
X-1477342Y-291090D01*
X-1492043Y-285000D01*
X-1507957D01*
X-1522658Y-291090D01*
X-1533910Y-302342D01*
X-1540000Y-317044D01*
Y-332957D01*
X-1533910Y-347658D01*
X-1525490Y-356079D01*
Y-364442D01*
X-1935558Y-774510D01*
X-3072778D01*
X-3076308Y-762759D01*
X-3076329Y-761810D01*
X-3064430Y-749911D01*
X-3055872Y-735089D01*
X-3051443Y-718558D01*
Y-701443D01*
X-3055872Y-684911D01*
X-3064430Y-670089D01*
X-3076532Y-657987D01*
X-3091353Y-649430D01*
X-3107885Y-645000D01*
X-3125000D01*
X-3141532Y-649430D01*
X-3156353Y-657987D01*
X-3168455Y-670089D01*
X-3177013Y-684911D01*
X-3181442Y-701443D01*
Y-718558D01*
X-3177013Y-735089D01*
X-3168455Y-749911D01*
X-3156556Y-761810D01*
X-3156578Y-762759D01*
X-3160107Y-774510D01*
X-3879243D01*
X-3884504Y-761810D01*
X-3877982Y-755289D01*
X-3866133Y-734766D01*
X-3860000Y-711876D01*
Y-688179D01*
X-3866133Y-665289D01*
X-3877982Y-644767D01*
X-3894739Y-628010D01*
X-3915261Y-616161D01*
X-3938151Y-610028D01*
X-3961849D01*
X-3984739Y-616161D01*
X-4005261Y-628010D01*
X-4022017Y-644766D01*
X-4036790Y-644952D01*
X-4069412Y-612330D01*
Y-412670D01*
X-4012330Y-355588D01*
X-3991851D01*
X-3988448Y-368288D01*
X-4005261Y-377995D01*
X-4022018Y-394752D01*
X-4033866Y-415274D01*
X-4040000Y-438164D01*
Y-461861D01*
X-4033866Y-484751D01*
X-4022018Y-505274D01*
X-4005261Y-522030D01*
X-3984739Y-533879D01*
X-3961849Y-540013D01*
X-3938151D01*
X-3915261Y-533879D01*
X-3894739Y-522030D01*
X-3877982Y-505274D01*
X-3866133Y-484751D01*
X-3864368Y-478162D01*
X-3847575D01*
X-3847574Y-478162D01*
X-3835869Y-475833D01*
X-3825945Y-469203D01*
X-3725831Y-369089D01*
X-3596383D01*
X-3595904Y-369805D01*
X-3581542Y-379402D01*
X-3564600Y-382772D01*
X-3426419D01*
X-3409478Y-379402D01*
X-3395115Y-369805D01*
X-3385518Y-355443D01*
X-3382148Y-338501D01*
X-3385518Y-321559D01*
X-3395115Y-307197D01*
X-3409478Y-297600D01*
X-3426419Y-294230D01*
X-3564600D01*
X-3581542Y-297600D01*
X-3595904Y-307197D01*
X-3596383Y-307913D01*
X-3738500D01*
X-3738501Y-307913D01*
X-3750206Y-310242D01*
X-3760130Y-316872D01*
X-3854465Y-411207D01*
X-3855208Y-411466D01*
X-3869686Y-409121D01*
X-3877982Y-394752D01*
X-3894739Y-377995D01*
X-3911552Y-368288D01*
X-3908149Y-355588D01*
X-3850001D01*
X-3850000Y-355588D01*
X-3838295Y-353259D01*
X-3828371Y-346629D01*
X-3723831Y-242089D01*
X-3596383D01*
X-3595904Y-242805D01*
X-3581542Y-252402D01*
X-3564600Y-255772D01*
X-3426419D01*
X-3409478Y-252402D01*
X-3395115Y-242805D01*
X-3385518Y-228443D01*
X-3382148Y-211501D01*
X-3385518Y-194559D01*
X-3395115Y-180197D01*
X-3409478Y-170600D01*
X-3426419Y-167230D01*
D02*
G37*
G36*
X-474987Y-134429D02*
X-486107Y-136641D01*
X-495534Y-142940D01*
X-501833Y-152367D01*
X-504045Y-163488D01*
Y-286487D01*
X-501833Y-297607D01*
X-500477Y-299638D01*
Y-337499D01*
X-499999Y-339901D01*
Y-437499D01*
X-359999D01*
Y-312499D01*
X-449497D01*
Y-299638D01*
X-448140Y-297607D01*
X-445928Y-286487D01*
Y-268600D01*
X-433228Y-263340D01*
X-432658Y-263910D01*
X-417956Y-270000D01*
X-402043D01*
X-387342Y-263910D01*
X-376090Y-252658D01*
X-370000Y-237957D01*
Y-222043D01*
X-376090Y-207342D01*
X-387342Y-196090D01*
X-402043Y-190000D01*
X-417956D01*
X-432658Y-196090D01*
X-433228Y-196660D01*
X-445928Y-191400D01*
Y-163488D01*
X-448140Y-152367D01*
X-454440Y-142940D01*
X-463867Y-136641D01*
X-474987Y-134429D01*
D02*
G37*
G36*
X597553Y-248764D02*
X557002D01*
X545521Y-253520D01*
X540766Y-265000D01*
Y-285000D01*
X545521Y-296481D01*
X557002Y-301236D01*
X607502D01*
X613169Y-298889D01*
X618924Y-296539D01*
X618942Y-296498D01*
X618983Y-296481D01*
X621341Y-290787D01*
X623738Y-285083D01*
X623788Y-275083D01*
X623772Y-275042D01*
X623789Y-275000D01*
X621423Y-269290D01*
X619091Y-263578D01*
X619050Y-263561D01*
X619033Y-263520D01*
X609033Y-253520D01*
X597553Y-248764D01*
D02*
G37*
G36*
X1087500Y-225000D02*
X962500D01*
Y-328952D01*
X961932Y-329521D01*
X867748D01*
X865286Y-330010D01*
X827498D01*
Y-380010D01*
X865286D01*
X867748Y-380500D01*
X972490D01*
X982244Y-378560D01*
X990514Y-373034D01*
X998548Y-365000D01*
X1087500D01*
Y-315490D01*
X1108921D01*
X1117342Y-323910D01*
X1132043Y-330000D01*
X1147957D01*
X1162658Y-323910D01*
X1173910Y-312658D01*
X1180000Y-297956D01*
Y-282043D01*
X1173910Y-267342D01*
X1162658Y-256090D01*
X1147957Y-250000D01*
X1132043D01*
X1117342Y-256090D01*
X1108921Y-264510D01*
X1087500D01*
Y-225000D01*
D02*
G37*
G36*
X-1917043Y565000D02*
X-1932957D01*
X-1947658Y558910D01*
X-1958910Y547658D01*
X-1965000Y532957D01*
Y521048D01*
X-2643024Y-156976D01*
X-2648549Y-165245D01*
X-2650490Y-175000D01*
Y-364442D01*
X-2726059Y-440011D01*
X-2850210D01*
X-2854095Y-434197D01*
X-2868458Y-424600D01*
X-2885399Y-421230D01*
X-3023580D01*
X-3040522Y-424600D01*
X-3054884Y-434197D01*
X-3064481Y-448559D01*
X-3067851Y-465501D01*
X-3064481Y-482443D01*
X-3054884Y-496805D01*
X-3040522Y-506402D01*
X-3023580Y-509772D01*
X-2885399D01*
X-2868458Y-506402D01*
X-2854095Y-496805D01*
X-2850210Y-490991D01*
X-2715501D01*
X-2705746Y-489050D01*
X-2697477Y-483525D01*
X-2606976Y-393024D01*
X-2601451Y-384754D01*
X-2599510Y-375000D01*
Y-185558D01*
X-1928952Y485000D01*
X-1917043D01*
X-1902342Y491090D01*
X-1891090Y502342D01*
X-1885000Y517043D01*
Y532957D01*
X-1891090Y547658D01*
X-1902342Y558910D01*
X-1917043Y565000D01*
D02*
G37*
G36*
X-3426419Y-421230D02*
X-3564600D01*
X-3581542Y-424600D01*
X-3595904Y-434197D01*
X-3605501Y-448559D01*
X-3608871Y-465501D01*
X-3605501Y-482443D01*
X-3595904Y-496805D01*
X-3581542Y-506402D01*
X-3564600Y-509772D01*
X-3426419D01*
X-3409478Y-506402D01*
X-3395115Y-496805D01*
X-3385518Y-482443D01*
X-3382148Y-465501D01*
X-3385518Y-448559D01*
X-3395115Y-434197D01*
X-3409478Y-424600D01*
X-3426419Y-421230D01*
D02*
G37*
G36*
X1746251Y-245000D02*
X1713749D01*
X1681871Y-251341D01*
X1651843Y-263779D01*
X1624818Y-281836D01*
X1601836Y-304819D01*
X1583779Y-331843D01*
X1571341Y-361871D01*
X1565000Y-393749D01*
Y-426251D01*
X1571341Y-458129D01*
X1583779Y-488157D01*
X1601836Y-515181D01*
X1624818Y-538164D01*
X1651843Y-556221D01*
X1681871Y-568659D01*
X1713749Y-575000D01*
X1746251D01*
X1778129Y-568659D01*
X1808157Y-556221D01*
X1835181Y-538164D01*
X1858164Y-515181D01*
X1876221Y-488157D01*
X1888659Y-458129D01*
X1895000Y-426251D01*
Y-393749D01*
X1888659Y-361871D01*
X1876221Y-331843D01*
X1858164Y-304819D01*
X1835181Y-281836D01*
X1808157Y-263779D01*
X1778129Y-251341D01*
X1746251Y-245000D01*
D02*
G37*
G36*
X-2253749D02*
X-2286251D01*
X-2318129Y-251341D01*
X-2348157Y-263779D01*
X-2375181Y-281836D01*
X-2398164Y-304819D01*
X-2416221Y-331843D01*
X-2428659Y-361871D01*
X-2435000Y-393749D01*
Y-426251D01*
X-2428659Y-458129D01*
X-2416221Y-488157D01*
X-2398164Y-515181D01*
X-2375181Y-538164D01*
X-2348157Y-556221D01*
X-2318129Y-568659D01*
X-2286251Y-575000D01*
X-2253749D01*
X-2221871Y-568659D01*
X-2191843Y-556221D01*
X-2164819Y-538164D01*
X-2141836Y-515181D01*
X-2123779Y-488157D01*
X-2111341Y-458129D01*
X-2105000Y-426251D01*
Y-393749D01*
X-2111341Y-361871D01*
X-2123779Y-331843D01*
X-2141836Y-304819D01*
X-2164819Y-281836D01*
X-2191843Y-263779D01*
X-2221871Y-251341D01*
X-2253749Y-245000D01*
D02*
G37*
G36*
X307956Y-460000D02*
X292043D01*
X277342Y-466090D01*
X266090Y-477342D01*
X260000Y-492043D01*
Y-507957D01*
X266090Y-522658D01*
X277342Y-533910D01*
X292043Y-540000D01*
X303952D01*
X511703Y-747751D01*
X510177Y-753695D01*
X505991Y-760000D01*
X491443D01*
X474911Y-764430D01*
X460089Y-772987D01*
X447987Y-785089D01*
X444733Y-790725D01*
X428862Y-792815D01*
X215000Y-578952D01*
Y-567044D01*
X208910Y-552342D01*
X197658Y-541090D01*
X182956Y-535000D01*
X167043D01*
X152342Y-541090D01*
X141090Y-552342D01*
X135000Y-567044D01*
Y-582957D01*
X141090Y-597658D01*
X152342Y-608910D01*
X167043Y-615000D01*
X178952D01*
X431976Y-868024D01*
X440245Y-873549D01*
X450000Y-875490D01*
X458566D01*
X460089Y-877013D01*
X474911Y-885570D01*
X491443Y-890000D01*
X508558D01*
X525089Y-885570D01*
X539911Y-877013D01*
X541434Y-875490D01*
X1639442D01*
X1876976Y-1113024D01*
X1885246Y-1118549D01*
X1895000Y-1120490D01*
X2265000D01*
Y-1145000D01*
X2385000D01*
Y-1120490D01*
X2437500D01*
Y-1180000D01*
X2562500D01*
Y-1120490D01*
X2615000D01*
Y-1145000D01*
X2735000D01*
Y-1045000D01*
X2615000D01*
Y-1069510D01*
X2562500D01*
Y-1040000D01*
X2437500D01*
Y-1069510D01*
X2385000D01*
Y-1045000D01*
X2265000D01*
Y-1069510D01*
X1905558D01*
X1668024Y-831976D01*
X1659755Y-826451D01*
X1650000Y-824510D01*
X565000D01*
Y-816442D01*
X560570Y-799911D01*
X553803Y-788190D01*
X557472Y-778822D01*
X560374Y-775490D01*
X1664442D01*
X1906976Y-1018024D01*
X1915246Y-1023549D01*
X1925000Y-1025490D01*
X2739442D01*
X3064510Y-1350558D01*
Y-2224442D01*
X3010218Y-2278735D01*
X2874790D01*
X2870905Y-2272921D01*
X2856542Y-2263324D01*
X2839601Y-2259954D01*
X2701420D01*
X2684478Y-2263324D01*
X2670116Y-2272921D01*
X2668288Y-2275656D01*
X2655588Y-2271804D01*
Y-2209645D01*
X2668288Y-2205793D01*
X2670116Y-2208528D01*
X2684478Y-2218125D01*
X2701420Y-2221495D01*
X2839601D01*
X2856542Y-2218125D01*
X2864579Y-2212755D01*
X2875000Y-2220559D01*
Y-2228951D01*
X2881851Y-2245490D01*
X2894510Y-2258149D01*
X2911049Y-2265000D01*
X2928951D01*
X2945490Y-2258149D01*
X2958149Y-2245490D01*
X2965000Y-2228951D01*
Y-2211049D01*
X2958149Y-2194509D01*
X2945490Y-2181851D01*
X2928951Y-2175000D01*
X2918258D01*
X2901957Y-2158700D01*
X2892034Y-2152069D01*
X2880329Y-2149740D01*
X2880327Y-2149741D01*
X2873458D01*
X2870905Y-2145921D01*
X2856542Y-2136324D01*
X2839601Y-2132954D01*
X2701420D01*
X2684478Y-2136324D01*
X2670116Y-2145921D01*
X2668288Y-2148656D01*
X2655588Y-2144804D01*
Y-1953812D01*
X2669637D01*
X2670116Y-1954528D01*
X2684478Y-1964125D01*
X2701420Y-1967495D01*
X2839601D01*
X2856542Y-1964125D01*
X2870905Y-1954528D01*
X2880502Y-1940166D01*
X2883872Y-1923224D01*
X2881030Y-1908936D01*
X2887900Y-1896236D01*
X2907500D01*
Y-1910000D01*
X3032500D01*
Y-1889019D01*
X3036236Y-1880000D01*
Y-1710000D01*
X3039911Y-1704500D01*
X3041990D01*
Y-1564500D01*
X3041990D01*
X3041990Y-1551800D01*
Y-1424500D01*
X2949947D01*
X2946990Y-1423912D01*
X2946989Y-1423912D01*
X2928446D01*
X2895141Y-1390607D01*
X2895361Y-1389500D01*
X2891915Y-1372176D01*
X2882102Y-1357489D01*
X2867415Y-1347675D01*
X2850091Y-1344229D01*
X2716291D01*
X2705588Y-1333525D01*
Y-1315000D01*
X2735000D01*
Y-1215000D01*
X2615000D01*
Y-1315000D01*
X2644412D01*
Y-1346194D01*
X2644412Y-1346195D01*
X2646741Y-1357901D01*
X2653371Y-1367824D01*
X2661763Y-1376216D01*
X2659121Y-1389500D01*
X2662567Y-1406824D01*
X2672380Y-1421511D01*
X2687067Y-1431324D01*
X2704391Y-1434770D01*
X2850091D01*
X2852341Y-1434323D01*
X2894147Y-1476128D01*
X2904070Y-1482759D01*
X2915775Y-1485087D01*
X2916756Y-1494943D01*
X2916476Y-1498744D01*
X2904300Y-1505612D01*
X2901070Y-1505155D01*
X2892389Y-1501559D01*
X2891915Y-1499176D01*
X2882102Y-1484489D01*
X2867415Y-1474675D01*
X2850091Y-1471229D01*
X2704391D01*
X2687067Y-1474675D01*
X2685509Y-1475716D01*
X2612223D01*
X2596615Y-1478821D01*
X2583384Y-1487661D01*
X2583384Y-1487662D01*
X2521162Y-1549884D01*
X2512321Y-1563115D01*
X2509216Y-1578723D01*
X2509216Y-1578724D01*
Y-2428558D01*
X2509216Y-2428559D01*
X2512321Y-2444166D01*
X2521162Y-2457397D01*
X2535407Y-2471643D01*
X2529154Y-2482475D01*
X2521998Y-2509180D01*
Y-2536827D01*
X2529154Y-2563532D01*
X2542977Y-2587475D01*
X2562526Y-2607024D01*
X2586469Y-2620847D01*
X2613174Y-2628003D01*
X2640821D01*
X2667526Y-2620847D01*
X2691469Y-2607024D01*
X2711018Y-2587475D01*
X2724842Y-2563532D01*
X2731998Y-2536827D01*
Y-2509180D01*
X2724842Y-2482475D01*
X2714336Y-2464278D01*
X2724498Y-2456479D01*
X2772673Y-2504655D01*
X2772674Y-2504655D01*
X2776521Y-2507226D01*
X2775998Y-2509180D01*
Y-2536827D01*
X2783154Y-2563532D01*
X2796977Y-2587475D01*
X2816526Y-2607024D01*
X2840469Y-2620847D01*
X2867174Y-2628003D01*
X2894821D01*
X2921526Y-2620847D01*
X2945469Y-2607024D01*
X2965018Y-2587475D01*
X2978842Y-2563532D01*
X2985998Y-2536827D01*
Y-2509180D01*
X2978842Y-2482475D01*
X2965018Y-2458532D01*
X2945469Y-2438983D01*
X2921526Y-2425159D01*
X2894821Y-2418004D01*
X2867174D01*
X2840469Y-2425159D01*
X2816526Y-2438983D01*
X2805022Y-2450488D01*
X2714762Y-2360228D01*
X2719622Y-2348495D01*
X2839601D01*
X2856542Y-2345125D01*
X2870905Y-2335528D01*
X2874790Y-2329714D01*
X3020776D01*
X3030530Y-2327774D01*
X3038800Y-2322248D01*
X3108024Y-2253024D01*
X3113549Y-2244755D01*
X3115490Y-2235000D01*
Y-1340000D01*
X3113549Y-1330245D01*
X3108024Y-1321976D01*
X2768024Y-981976D01*
X2759755Y-976450D01*
X2750000Y-974510D01*
X2749999Y-974510D01*
X1935558D01*
X1693024Y-731976D01*
X1684755Y-726451D01*
X1675000Y-724510D01*
X697132D01*
X695461Y-711810D01*
X700089Y-710570D01*
X714911Y-702013D01*
X727013Y-689911D01*
X735570Y-675089D01*
X740000Y-658557D01*
Y-641442D01*
X735570Y-624911D01*
X727013Y-610089D01*
X714911Y-597987D01*
X700089Y-589430D01*
X683557Y-585000D01*
X666442D01*
X649911Y-589430D01*
X635089Y-597987D01*
X622987Y-610089D01*
X614430Y-624911D01*
X610000Y-641442D01*
Y-658557D01*
X614310Y-674642D01*
X564442Y-724510D01*
X560558D01*
X340000Y-503952D01*
Y-492043D01*
X333910Y-477342D01*
X322658Y-466090D01*
X307956Y-460000D01*
D02*
G37*
G36*
X1386849Y-1110000D02*
X1363151D01*
X1340261Y-1116133D01*
X1319739Y-1127982D01*
X1302982Y-1144739D01*
X1291134Y-1165261D01*
X1285000Y-1188151D01*
Y-1211848D01*
X1291134Y-1234738D01*
X1302982Y-1255261D01*
X1319739Y-1272018D01*
X1335408Y-1281064D01*
X1332005Y-1293764D01*
X1191985D01*
Y-1289648D01*
X1051985D01*
Y-1300000D01*
Y-1414648D01*
X1053764D01*
X1053764Y-1708764D01*
X888500D01*
Y-1706003D01*
X611500D01*
Y-1718395D01*
X608764Y-1725000D01*
Y-1758764D01*
X275000D01*
X263519Y-1763519D01*
X258764Y-1775000D01*
Y-1924358D01*
X155355D01*
Y-1899945D01*
X45355D01*
Y-2009945D01*
X155355D01*
Y-1985533D01*
X258764D01*
Y-2125000D01*
X263519Y-2136481D01*
X275000Y-2141236D01*
X1008764D01*
Y-2255000D01*
X987498D01*
Y-2372897D01*
X974798Y-2382503D01*
X970665Y-2381334D01*
X969991Y-2380686D01*
Y-2363499D01*
X819991D01*
Y-2453499D01*
X907036D01*
X909991Y-2454087D01*
X960829D01*
X1048773Y-2542031D01*
X1043913Y-2553764D01*
X969991D01*
Y-2553491D01*
X819991D01*
Y-2553764D01*
X810000D01*
X798519Y-2558519D01*
X793764Y-2570000D01*
Y-2688500D01*
X790485D01*
Y-2918500D01*
X905486D01*
Y-2916236D01*
X1140000D01*
X1151481Y-2911481D01*
X1156236Y-2900000D01*
Y-2580588D01*
X1200000D01*
Y-2602302D01*
X1200000Y-2614999D01*
X1199999D01*
Y-2615003D01*
X1200000D01*
Y-2715002D01*
X1320000D01*
Y-2627700D01*
X1320000Y-2615003D01*
X1320000D01*
Y-2614999D01*
X1320000D01*
Y-2516236D01*
X1333764D01*
Y-2550000D01*
X1338520Y-2561481D01*
X1350000Y-2566236D01*
X1635873D01*
X1647353Y-2561481D01*
X1652109Y-2550000D01*
Y-2480588D01*
X1690021D01*
X1691134Y-2484738D01*
X1702982Y-2505261D01*
X1719739Y-2522018D01*
X1740261Y-2533866D01*
X1763151Y-2540000D01*
X1786849D01*
X1809739Y-2533866D01*
X1830261Y-2522018D01*
X1847018Y-2505261D01*
X1858866Y-2484738D01*
X1865000Y-2461849D01*
Y-2438151D01*
X1858866Y-2415261D01*
X1847018Y-2394739D01*
X1830261Y-2377982D01*
X1809739Y-2366133D01*
X1786849Y-2360000D01*
X1763151D01*
X1740261Y-2366133D01*
X1719739Y-2377982D01*
X1702982Y-2394739D01*
X1691134Y-2415261D01*
X1690021Y-2419412D01*
X1652109D01*
Y-2375000D01*
X1650090Y-2370128D01*
X1648697Y-2365043D01*
X1516236Y-2194437D01*
Y-1985537D01*
X1595357D01*
Y-2009949D01*
X1656215D01*
X1851619Y-2205353D01*
X1861542Y-2211983D01*
X1873247Y-2214312D01*
X1873249Y-2214312D01*
X1962500D01*
Y-2253724D01*
X1994412D01*
Y-2266948D01*
X1986851Y-2274510D01*
X1980000Y-2291049D01*
Y-2308951D01*
X1986851Y-2325490D01*
X1999510Y-2338149D01*
X2016049Y-2345000D01*
X2033951D01*
X2050490Y-2338149D01*
X2063149Y-2325490D01*
X2070000Y-2308951D01*
Y-2291049D01*
X2063149Y-2274510D01*
X2055588Y-2266948D01*
Y-2253724D01*
X2087500D01*
Y-2205588D01*
X2127131D01*
X2129096Y-2208528D01*
X2143458Y-2218125D01*
X2160400Y-2221495D01*
X2298581D01*
X2315522Y-2218125D01*
X2329885Y-2208528D01*
X2336202Y-2199074D01*
X2348902Y-2202927D01*
Y-2278522D01*
X2336202Y-2282375D01*
X2329885Y-2272921D01*
X2315522Y-2263324D01*
X2298581Y-2259954D01*
X2160400D01*
X2143458Y-2263324D01*
X2129096Y-2272921D01*
X2119499Y-2287283D01*
X2116129Y-2304224D01*
X2119499Y-2321166D01*
X2129096Y-2335528D01*
X2143458Y-2345125D01*
X2160400Y-2348495D01*
X2280378D01*
X2285238Y-2360228D01*
X2194977Y-2450490D01*
X2183469Y-2438983D01*
X2159526Y-2425159D01*
X2132821Y-2418004D01*
X2105174D01*
X2078469Y-2425159D01*
X2054526Y-2438983D01*
X2034977Y-2458532D01*
X2021154Y-2482475D01*
X2013998Y-2509180D01*
Y-2536827D01*
X2021154Y-2563532D01*
X2034977Y-2587475D01*
X2054526Y-2607024D01*
X2078469Y-2620847D01*
X2105174Y-2628003D01*
X2132821D01*
X2159526Y-2620847D01*
X2183469Y-2607024D01*
X2203018Y-2587475D01*
X2216842Y-2563532D01*
X2223998Y-2536827D01*
Y-2509180D01*
X2223475Y-2507229D01*
X2227327Y-2504655D01*
X2275491Y-2456491D01*
X2285653Y-2464289D01*
X2275154Y-2482475D01*
X2267998Y-2509180D01*
Y-2536827D01*
X2275154Y-2563532D01*
X2288977Y-2587475D01*
X2308526Y-2607024D01*
X2332469Y-2620847D01*
X2359174Y-2628003D01*
X2386821D01*
X2413526Y-2620847D01*
X2437469Y-2607024D01*
X2457018Y-2587475D01*
X2470842Y-2563532D01*
X2477998Y-2536827D01*
Y-2509180D01*
X2470842Y-2482475D01*
X2462446Y-2467934D01*
X2478838Y-2451542D01*
X2478839Y-2451542D01*
X2487679Y-2438311D01*
X2490784Y-2422703D01*
X2490784Y-2422702D01*
Y-1835011D01*
X2490784Y-1835010D01*
X2487679Y-1819403D01*
X2478839Y-1806172D01*
X2478838Y-1806171D01*
X2414328Y-1741661D01*
X2401097Y-1732821D01*
X2385490Y-1729716D01*
X2385489Y-1729716D01*
X2314491D01*
X2312933Y-1728675D01*
X2295609Y-1725229D01*
X2149909D01*
X2132585Y-1728675D01*
X2117898Y-1738489D01*
X2108085Y-1753176D01*
X2104639Y-1770500D01*
X2108085Y-1787824D01*
X2117898Y-1802511D01*
X2132585Y-1812324D01*
X2149909Y-1815770D01*
X2295609D01*
X2312933Y-1812324D01*
X2314491Y-1811283D01*
X2368597D01*
X2409217Y-1851903D01*
Y-1918498D01*
X2396517Y-1923758D01*
X2365630Y-1892872D01*
X2355706Y-1886241D01*
X2344001Y-1883912D01*
X2344000Y-1883913D01*
X2317901D01*
X2315522Y-1882324D01*
X2298581Y-1878954D01*
X2160400D01*
X2143458Y-1882324D01*
X2129096Y-1891921D01*
X2119499Y-1906283D01*
X2116129Y-1923224D01*
X2119499Y-1940166D01*
X2129096Y-1954528D01*
X2143458Y-1964125D01*
X2160400Y-1967495D01*
X2298581D01*
X2315522Y-1964125D01*
X2329885Y-1954529D01*
X2339796Y-1953553D01*
X2348902Y-1962659D01*
Y-2151522D01*
X2336202Y-2155375D01*
X2329885Y-2145921D01*
X2315522Y-2136324D01*
X2298581Y-2132954D01*
X2160400D01*
X2143458Y-2136324D01*
X2131353Y-2144412D01*
X2087500D01*
Y-2113724D01*
X1962500D01*
Y-2153136D01*
X1885917D01*
X1705357Y-1972575D01*
Y-1899949D01*
X1595357D01*
Y-1924362D01*
X1466236D01*
X1466236Y-1575000D01*
X1466236Y-1310000D01*
X1461480Y-1298520D01*
X1450000Y-1293764D01*
X1417995D01*
X1414592Y-1281064D01*
X1430261Y-1272018D01*
X1447018Y-1255261D01*
X1458867Y-1234738D01*
X1465000Y-1211848D01*
Y-1188151D01*
X1458867Y-1165261D01*
X1447018Y-1144739D01*
X1430261Y-1127982D01*
X1409739Y-1116133D01*
X1386849Y-1110000D01*
D02*
G37*
G36*
X-1366443Y-1235000D02*
X-1383558D01*
X-1400089Y-1239430D01*
X-1414911Y-1247987D01*
X-1427013Y-1260089D01*
X-1435570Y-1274911D01*
X-1440000Y-1291442D01*
Y-1308557D01*
X-1435570Y-1325089D01*
X-1427013Y-1339911D01*
X-1414911Y-1352013D01*
X-1400089Y-1360570D01*
X-1383558Y-1365000D01*
X-1366443D01*
X-1349911Y-1360570D01*
X-1335089Y-1352013D01*
X-1322987Y-1339911D01*
X-1314430Y-1325089D01*
X-1310000Y-1308557D01*
Y-1291442D01*
X-1314430Y-1274911D01*
X-1322987Y-1260089D01*
X-1335089Y-1247987D01*
X-1349911Y-1239430D01*
X-1366443Y-1235000D01*
D02*
G37*
G36*
X-1788151Y-1261030D02*
X-1811849D01*
X-1834739Y-1267163D01*
X-1855261Y-1279012D01*
X-1872018Y-1295769D01*
X-1883866Y-1316291D01*
X-1890000Y-1339181D01*
Y-1362878D01*
X-1883866Y-1385768D01*
X-1872018Y-1406291D01*
X-1855261Y-1423047D01*
X-1840783Y-1431406D01*
Y-1495000D01*
X-1855000D01*
Y-1509216D01*
X-1915000D01*
Y-1500000D01*
X-2035000D01*
Y-1509216D01*
X-2086215D01*
Y-1278997D01*
X-2331216D01*
Y-1640998D01*
X-2086215D01*
Y-1590783D01*
X-2035000D01*
Y-1600000D01*
X-1915000D01*
Y-1590783D01*
X-1855000D01*
Y-1605000D01*
X-1745000D01*
Y-1495000D01*
X-1759216D01*
Y-1431406D01*
X-1744739Y-1423047D01*
X-1727982Y-1406291D01*
X-1716133Y-1385768D01*
X-1710000Y-1362878D01*
Y-1339181D01*
X-1716133Y-1316291D01*
X-1727982Y-1295769D01*
X-1744739Y-1279012D01*
X-1765261Y-1267163D01*
X-1788151Y-1261030D01*
D02*
G37*
G36*
X-1915000Y-1669997D02*
X-2035000D01*
Y-1769997D01*
X-2005593D01*
Y-1799999D01*
X-2035005D01*
Y-1819412D01*
X-2116429D01*
X-2116431Y-1819412D01*
X-2128136Y-1821741D01*
X-2138059Y-1828371D01*
X-2150607Y-1840919D01*
X-2159567Y-1839137D01*
X-2177125Y-1842629D01*
X-2192010Y-1852575D01*
X-2201956Y-1867460D01*
X-2205448Y-1885018D01*
Y-1985018D01*
X-2201956Y-2002576D01*
X-2192010Y-2017461D01*
X-2177125Y-2027407D01*
X-2159567Y-2030900D01*
X-2142009Y-2027407D01*
X-2127124Y-2017461D01*
X-2117178Y-2002576D01*
X-2113685Y-1985018D01*
Y-1890512D01*
X-2103761Y-1880588D01*
X-2035005D01*
Y-1899999D01*
X-1915005D01*
Y-1799999D01*
X-1944417D01*
Y-1769997D01*
X-1915000D01*
Y-1669997D01*
D02*
G37*
G36*
X160002Y-1634997D02*
X40002D01*
Y-1734997D01*
X40002D01*
X44644Y-1740053D01*
Y-1850052D01*
X154644D01*
Y-1740053D01*
X160002Y-1734997D01*
X160002D01*
Y-1634997D01*
D02*
G37*
G36*
X1710001Y-1634999D02*
X1590001D01*
Y-1734999D01*
X1590001D01*
X1594646Y-1740057D01*
Y-1850056D01*
X1704645D01*
Y-1740057D01*
X1710001Y-1734999D01*
X1710001D01*
Y-1634999D01*
D02*
G37*
G36*
X-1744289Y-1654893D02*
X-1854289D01*
Y-1764893D01*
X-1829876D01*
Y-1800000D01*
X-1860000D01*
Y-1900000D01*
X-1740000D01*
Y-1800000D01*
X-1768701D01*
Y-1764893D01*
X-1744289D01*
Y-1654893D01*
D02*
G37*
G36*
X-3417043Y-1160000D02*
X-3432957D01*
X-3447658Y-1166090D01*
X-3458910Y-1177342D01*
X-3465000Y-1192043D01*
Y-1207956D01*
X-3458910Y-1222658D01*
X-3450490Y-1231079D01*
Y-2164442D01*
X-3569783Y-2283735D01*
X-3640210D01*
X-3644095Y-2277921D01*
X-3658458Y-2268324D01*
X-3675399Y-2264954D01*
X-3813580D01*
X-3830522Y-2268324D01*
X-3844884Y-2277921D01*
X-3846712Y-2280656D01*
X-3859412Y-2276804D01*
Y-2214646D01*
X-3846712Y-2210793D01*
X-3844884Y-2213529D01*
X-3830522Y-2223126D01*
X-3813580Y-2226495D01*
X-3675399D01*
X-3658458Y-2223126D01*
X-3653006Y-2219483D01*
X-3639484Y-2222268D01*
X-3638149Y-2225490D01*
X-3625490Y-2238149D01*
X-3608951Y-2245000D01*
X-3591049D01*
X-3574509Y-2238149D01*
X-3561851Y-2225490D01*
X-3555000Y-2208951D01*
Y-2191049D01*
X-3561851Y-2174509D01*
X-3574509Y-2161851D01*
X-3591049Y-2155000D01*
X-3608951D01*
X-3615672Y-2157784D01*
X-3620757Y-2156772D01*
X-3620759Y-2156773D01*
X-3640185D01*
X-3644095Y-2150921D01*
X-3658458Y-2141324D01*
X-3675399Y-2137954D01*
X-3813580D01*
X-3830522Y-2141324D01*
X-3844884Y-2150921D01*
X-3846712Y-2153656D01*
X-3859412Y-2149804D01*
Y-1958812D01*
X-3845363D01*
X-3844884Y-1959529D01*
X-3830522Y-1969126D01*
X-3813580Y-1972495D01*
X-3675399D01*
X-3658458Y-1969126D01*
X-3644095Y-1959529D01*
X-3634498Y-1945166D01*
X-3631129Y-1928225D01*
X-3634498Y-1911283D01*
X-3636067Y-1908936D01*
X-3629278Y-1896236D01*
X-3607500D01*
Y-1915000D01*
X-3482500D01*
Y-1893130D01*
X-3478519Y-1891481D01*
X-3473764Y-1880000D01*
Y-1710000D01*
X-3473430Y-1709500D01*
X-3473010D01*
Y-1569500D01*
X-3473010D01*
X-3473010Y-1556800D01*
Y-1429500D01*
X-3565053D01*
X-3568010Y-1428912D01*
X-3568012Y-1428912D01*
X-3586554D01*
X-3619859Y-1395607D01*
X-3619639Y-1394500D01*
X-3623085Y-1377176D01*
X-3632898Y-1362489D01*
X-3647585Y-1352676D01*
X-3664909Y-1349230D01*
X-3798709D01*
X-3809412Y-1338526D01*
Y-1320000D01*
X-3780000D01*
Y-1220000D01*
X-3900000D01*
Y-1320000D01*
X-3870588D01*
Y-1351194D01*
X-3870588Y-1351196D01*
X-3868259Y-1362901D01*
X-3861629Y-1372825D01*
X-3853237Y-1381216D01*
X-3855879Y-1394500D01*
X-3852433Y-1411824D01*
X-3842620Y-1426511D01*
X-3827933Y-1436325D01*
X-3810609Y-1439771D01*
X-3664909D01*
X-3662659Y-1439323D01*
X-3620853Y-1481129D01*
X-3610930Y-1487759D01*
X-3599225Y-1490088D01*
X-3598244Y-1499943D01*
X-3598524Y-1503744D01*
X-3610700Y-1510612D01*
X-3613930Y-1510155D01*
X-3622611Y-1506559D01*
X-3623085Y-1504176D01*
X-3632898Y-1489489D01*
X-3647585Y-1479676D01*
X-3664909Y-1476230D01*
X-3810609D01*
X-3827933Y-1479676D01*
X-3829491Y-1480717D01*
X-3902778D01*
X-3918385Y-1483821D01*
X-3931616Y-1492662D01*
X-3931616Y-1492662D01*
X-3993839Y-1554884D01*
X-4002679Y-1568115D01*
X-4005784Y-1583723D01*
X-4005784Y-1583724D01*
Y-2433558D01*
X-4005784Y-2433559D01*
X-4002679Y-2449167D01*
X-3993839Y-2462398D01*
X-3971461Y-2484775D01*
X-3978001Y-2509180D01*
Y-2536827D01*
X-3970845Y-2563532D01*
X-3957022Y-2587475D01*
X-3937472Y-2607024D01*
X-3913529Y-2620847D01*
X-3886824Y-2628003D01*
X-3859177D01*
X-3832472Y-2620847D01*
X-3808530Y-2607024D01*
X-3788980Y-2587475D01*
X-3775157Y-2563532D01*
X-3768001Y-2536827D01*
Y-2513217D01*
X-3756166Y-2507091D01*
X-3745087Y-2518170D01*
X-3745087Y-2518171D01*
X-3735163Y-2524801D01*
X-3724001Y-2527022D01*
Y-2536827D01*
X-3716845Y-2563532D01*
X-3703022Y-2587475D01*
X-3683472Y-2607024D01*
X-3659529Y-2620847D01*
X-3632824Y-2628003D01*
X-3605177D01*
X-3578472Y-2620847D01*
X-3554530Y-2607024D01*
X-3534980Y-2587475D01*
X-3521157Y-2563532D01*
X-3514001Y-2536827D01*
Y-2509180D01*
X-3521157Y-2482475D01*
X-3534980Y-2458532D01*
X-3554530Y-2438983D01*
X-3578472Y-2425159D01*
X-3605177Y-2418004D01*
X-3632824D01*
X-3659529Y-2425159D01*
X-3683472Y-2438983D01*
X-3701707Y-2457217D01*
X-3704684Y-2458569D01*
X-3717878Y-2458864D01*
X-3810547Y-2366195D01*
X-3805286Y-2353495D01*
X-3675399D01*
X-3658458Y-2350126D01*
X-3644095Y-2340529D01*
X-3640210Y-2334714D01*
X-3559225D01*
X-3549470Y-2332774D01*
X-3541201Y-2327249D01*
X-3406976Y-2193024D01*
X-3401451Y-2184754D01*
X-3399510Y-2175000D01*
Y-1231079D01*
X-3391090Y-1222658D01*
X-3385000Y-1207956D01*
Y-1192043D01*
X-3391090Y-1177342D01*
X-3402342Y-1166090D01*
X-3417043Y-1160000D01*
D02*
G37*
G36*
X-954391Y-1725229D02*
X-1100091D01*
X-1117415Y-1728675D01*
X-1132102Y-1738489D01*
X-1141915Y-1753176D01*
X-1145361Y-1770500D01*
X-1141915Y-1787824D01*
X-1132102Y-1802511D01*
X-1117415Y-1812324D01*
X-1100091Y-1815770D01*
X-954391D01*
X-937067Y-1812324D01*
X-935509Y-1811283D01*
X-881403D01*
X-840783Y-1851903D01*
Y-1918498D01*
X-853483Y-1923758D01*
X-884370Y-1892872D01*
X-894294Y-1886241D01*
X-905999Y-1883912D01*
X-906000Y-1883913D01*
X-932099D01*
X-934478Y-1882324D01*
X-951419Y-1878954D01*
X-1089600D01*
X-1106542Y-1882324D01*
X-1120904Y-1891921D01*
X-1130501Y-1906283D01*
X-1133871Y-1923224D01*
X-1130501Y-1940166D01*
X-1120904Y-1954528D01*
X-1106542Y-1964125D01*
X-1089600Y-1967495D01*
X-951419D01*
X-934478Y-1964125D01*
X-920116Y-1954529D01*
X-910204Y-1953553D01*
X-901098Y-1962659D01*
Y-2151522D01*
X-913798Y-2155375D01*
X-920115Y-2145921D01*
X-934478Y-2136324D01*
X-951419Y-2132954D01*
X-1089600D01*
X-1095948Y-2134216D01*
X-1162500D01*
Y-2113724D01*
X-1287500D01*
Y-2142267D01*
X-1300200Y-2149494D01*
X-1311049Y-2145000D01*
X-1328951D01*
X-1345490Y-2151851D01*
X-1358149Y-2164510D01*
X-1365000Y-2181049D01*
Y-2198951D01*
X-1358149Y-2215490D01*
X-1345490Y-2228149D01*
X-1328951Y-2235000D01*
X-1311049D01*
X-1300200Y-2230506D01*
X-1287500Y-2237733D01*
Y-2253724D01*
X-1162500D01*
Y-2215783D01*
X-1110047D01*
X-1106542Y-2218125D01*
X-1089600Y-2221495D01*
X-951419D01*
X-934478Y-2218125D01*
X-920115Y-2208528D01*
X-913798Y-2199074D01*
X-901098Y-2202927D01*
Y-2278522D01*
X-913798Y-2282375D01*
X-920115Y-2272921D01*
X-934478Y-2263324D01*
X-951419Y-2259954D01*
X-1089600D01*
X-1106542Y-2263324D01*
X-1120904Y-2272921D01*
X-1130501Y-2287283D01*
X-1133871Y-2304224D01*
X-1130501Y-2321166D01*
X-1120904Y-2335528D01*
X-1106542Y-2345125D01*
X-1089600Y-2348495D01*
X-969622D01*
X-964762Y-2360228D01*
X-1055025Y-2450491D01*
X-1066533Y-2438983D01*
X-1090476Y-2425159D01*
X-1117181Y-2418004D01*
X-1144828D01*
X-1171533Y-2425159D01*
X-1195475Y-2438983D01*
X-1215025Y-2458532D01*
X-1228848Y-2482475D01*
X-1236004Y-2509180D01*
Y-2536827D01*
X-1228848Y-2563532D01*
X-1215025Y-2587475D01*
X-1195475Y-2607024D01*
X-1171533Y-2620847D01*
X-1144828Y-2628003D01*
X-1117181D01*
X-1090476Y-2620847D01*
X-1066533Y-2607024D01*
X-1046983Y-2587475D01*
X-1033160Y-2563532D01*
X-1026004Y-2536827D01*
Y-2509180D01*
X-1026527Y-2507230D01*
X-1022674Y-2504655D01*
X-974514Y-2456495D01*
X-964351Y-2464293D01*
X-974848Y-2482475D01*
X-982004Y-2509180D01*
Y-2536827D01*
X-974848Y-2563532D01*
X-961025Y-2587475D01*
X-941475Y-2607024D01*
X-917533Y-2620847D01*
X-890828Y-2628003D01*
X-863181D01*
X-836476Y-2620847D01*
X-812533Y-2607024D01*
X-792983Y-2587475D01*
X-779160Y-2563532D01*
X-772004Y-2536827D01*
Y-2509180D01*
X-779160Y-2482475D01*
X-787555Y-2467935D01*
X-771162Y-2451542D01*
X-771162Y-2451542D01*
X-762321Y-2438311D01*
X-759216Y-2422703D01*
X-759216Y-2422702D01*
Y-1835011D01*
X-759216Y-1835010D01*
X-762321Y-1819403D01*
X-771162Y-1806172D01*
X-771162Y-1806171D01*
X-835672Y-1741661D01*
X-848903Y-1732821D01*
X-864510Y-1729716D01*
X-864511Y-1729716D01*
X-935509D01*
X-937067Y-1728675D01*
X-954391Y-1725229D01*
D02*
G37*
G36*
X-4219391Y-1730230D02*
X-4365091D01*
X-4382415Y-1733676D01*
X-4397102Y-1743489D01*
X-4406915Y-1758176D01*
X-4410361Y-1775500D01*
X-4406915Y-1792824D01*
X-4397102Y-1807511D01*
X-4382415Y-1817325D01*
X-4365091Y-1820771D01*
X-4219391D01*
X-4202067Y-1817325D01*
X-4200509Y-1816284D01*
X-4146403D01*
X-4105784Y-1856903D01*
Y-1923498D01*
X-4118484Y-1928758D01*
X-4149370Y-1897872D01*
X-4159294Y-1891241D01*
X-4170999Y-1888913D01*
X-4171000Y-1888913D01*
X-4197100D01*
X-4199478Y-1887324D01*
X-4216419Y-1883954D01*
X-4354600D01*
X-4371542Y-1887324D01*
X-4385904Y-1896921D01*
X-4395501Y-1911283D01*
X-4398871Y-1928225D01*
X-4395501Y-1945166D01*
X-4385904Y-1959529D01*
X-4371542Y-1969126D01*
X-4354600Y-1972495D01*
X-4216419D01*
X-4199478Y-1969126D01*
X-4185116Y-1959529D01*
X-4175205Y-1958553D01*
X-4166098Y-1967659D01*
Y-2156522D01*
X-4178798Y-2160375D01*
X-4185115Y-2150921D01*
X-4199478Y-2141324D01*
X-4216419Y-2137954D01*
X-4354600D01*
X-4371542Y-2141324D01*
X-4383647Y-2149413D01*
X-4427500D01*
Y-2118724D01*
X-4552500D01*
Y-2258724D01*
X-4541571D01*
X-4533085Y-2271424D01*
X-4535000Y-2276049D01*
Y-2293951D01*
X-4528149Y-2310490D01*
X-4515491Y-2323149D01*
X-4498951Y-2330000D01*
X-4481049D01*
X-4464510Y-2323149D01*
X-4451851Y-2310490D01*
X-4445000Y-2293951D01*
Y-2276049D01*
X-4446916Y-2271424D01*
X-4438430Y-2258724D01*
X-4427500D01*
Y-2210588D01*
X-4387869D01*
X-4385904Y-2213529D01*
X-4371542Y-2223126D01*
X-4354600Y-2226495D01*
X-4216419D01*
X-4199478Y-2223126D01*
X-4185115Y-2213529D01*
X-4178798Y-2204075D01*
X-4166098Y-2207927D01*
Y-2283522D01*
X-4178798Y-2287375D01*
X-4185115Y-2277921D01*
X-4199478Y-2268324D01*
X-4216419Y-2264954D01*
X-4354600D01*
X-4371542Y-2268324D01*
X-4385904Y-2277921D01*
X-4395501Y-2292283D01*
X-4398871Y-2309225D01*
X-4395501Y-2326166D01*
X-4385904Y-2340529D01*
X-4371542Y-2350126D01*
X-4354600Y-2353495D01*
X-4234622D01*
X-4229762Y-2365229D01*
X-4310023Y-2445489D01*
X-4316530Y-2438983D01*
X-4340472Y-2425159D01*
X-4367177Y-2418004D01*
X-4394824D01*
X-4421529Y-2425159D01*
X-4445472Y-2438983D01*
X-4465022Y-2458532D01*
X-4478845Y-2482475D01*
X-4486001Y-2509180D01*
Y-2536827D01*
X-4478845Y-2563532D01*
X-4465022Y-2587475D01*
X-4445472Y-2607024D01*
X-4421529Y-2620847D01*
X-4394824Y-2628003D01*
X-4367177D01*
X-4340472Y-2620847D01*
X-4316530Y-2607024D01*
X-4296980Y-2587475D01*
X-4283157Y-2563532D01*
X-4276001Y-2536827D01*
Y-2509180D01*
X-4278367Y-2500349D01*
X-4118484Y-2340465D01*
X-4105784Y-2345726D01*
Y-2408808D01*
X-4113178Y-2418004D01*
X-4140824D01*
X-4167529Y-2425159D01*
X-4191472Y-2438983D01*
X-4211022Y-2458532D01*
X-4224845Y-2482475D01*
X-4232001Y-2509180D01*
Y-2536827D01*
X-4224845Y-2563532D01*
X-4211022Y-2587475D01*
X-4191472Y-2607024D01*
X-4167529Y-2620847D01*
X-4140824Y-2628003D01*
X-4113177D01*
X-4086472Y-2620847D01*
X-4062530Y-2607024D01*
X-4042980Y-2587475D01*
X-4029157Y-2563532D01*
X-4022001Y-2536827D01*
Y-2509180D01*
X-4029157Y-2482475D01*
X-4041213Y-2461593D01*
X-4036162Y-2456542D01*
X-4036162Y-2456542D01*
X-4027321Y-2443311D01*
X-4024216Y-2427704D01*
X-4024216Y-2427702D01*
Y-1840012D01*
X-4024216Y-1840010D01*
X-4027321Y-1824403D01*
X-4036162Y-1811172D01*
X-4036162Y-1811171D01*
X-4100672Y-1746662D01*
X-4113903Y-1737821D01*
X-4129510Y-1734716D01*
X-4129511Y-1734717D01*
X-4200509D01*
X-4202067Y-1733676D01*
X-4219391Y-1730230D01*
D02*
G37*
G36*
X-2286567Y-1839137D02*
X-2304125Y-1842629D01*
X-2319010Y-1852575D01*
X-2328956Y-1867460D01*
X-2332448Y-1885018D01*
Y-1985018D01*
X-2328956Y-2002576D01*
X-2319010Y-2017461D01*
X-2304125Y-2027407D01*
X-2286567Y-2030900D01*
X-2269009Y-2027407D01*
X-2254124Y-2017461D01*
X-2244178Y-2002576D01*
X-2240685Y-1985018D01*
Y-1885018D01*
X-2244178Y-1867460D01*
X-2254124Y-1852575D01*
X-2269009Y-1842629D01*
X-2286567Y-1839137D01*
D02*
G37*
G36*
X-2668790Y-1278997D02*
X-2913790D01*
Y-1294096D01*
X-2916236Y-1300000D01*
Y-1625000D01*
X-2913790Y-1630904D01*
Y-1640998D01*
X-2906963D01*
X-2766236Y-1781725D01*
Y-1950000D01*
X-2762502Y-1959014D01*
Y-2099999D01*
X-2670459D01*
X-2667502Y-2100587D01*
X-2667501Y-2100587D01*
X-2498549D01*
X-2498548Y-2100587D01*
X-2486842Y-2098258D01*
X-2476919Y-2091628D01*
X-2415755Y-2030464D01*
X-2413567Y-2030900D01*
X-2396009Y-2027407D01*
X-2381124Y-2017461D01*
X-2371178Y-2002576D01*
X-2367685Y-1985018D01*
Y-1885018D01*
X-2371178Y-1867460D01*
X-2381124Y-1852575D01*
X-2396009Y-1842629D01*
X-2413567Y-1839137D01*
X-2431125Y-1842629D01*
X-2446010Y-1852575D01*
X-2455956Y-1867460D01*
X-2459448Y-1885018D01*
Y-1985018D01*
X-2459013Y-1987207D01*
X-2472031Y-2000225D01*
X-2483764Y-1995364D01*
Y-1775000D01*
X-2488520Y-1763519D01*
X-2658764Y-1593275D01*
Y-1300000D01*
X-2663519Y-1288519D01*
X-2668790Y-1286337D01*
Y-1278997D01*
D02*
G37*
G36*
X-1750004Y-2136510D02*
X-2050004D01*
Y-2330010D01*
X-1750004D01*
Y-2136510D01*
D02*
G37*
G36*
X-1342044Y-635000D02*
X-1357957D01*
X-1372658Y-641090D01*
X-1383910Y-652342D01*
X-1390000Y-667043D01*
Y-678952D01*
X-1885558Y-1174510D01*
X-3100000D01*
X-3109755Y-1176451D01*
X-3118024Y-1181976D01*
X-3168024Y-1231976D01*
X-3173550Y-1240246D01*
X-3175490Y-1250000D01*
Y-1289661D01*
X-3189911Y-1297987D01*
X-3202013Y-1310089D01*
X-3210570Y-1324911D01*
X-3215000Y-1341443D01*
Y-1358558D01*
X-3210570Y-1375089D01*
X-3202013Y-1389911D01*
X-3189911Y-1402013D01*
X-3175490Y-1410339D01*
Y-2465000D01*
X-3210001D01*
X-3215002Y-2459999D01*
Y-2459999D01*
X-3335001D01*
Y-2559999D01*
X-3215002D01*
X-3210001Y-2565000D01*
Y-2565000D01*
X-3090002D01*
Y-2465000D01*
X-3124511D01*
Y-1410339D01*
X-3110089Y-1402013D01*
X-3097987Y-1389911D01*
X-3089430Y-1375089D01*
X-3085000Y-1358558D01*
Y-1341443D01*
X-3089430Y-1324911D01*
X-3097987Y-1310089D01*
X-3110089Y-1297987D01*
X-3124511Y-1289661D01*
Y-1260558D01*
X-3089442Y-1225490D01*
X-1875000D01*
X-1865245Y-1223549D01*
X-1856976Y-1218024D01*
X-1353952Y-715000D01*
X-1342044D01*
X-1327342Y-708910D01*
X-1316090Y-697658D01*
X-1310000Y-682956D01*
Y-667043D01*
X-1316090Y-652342D01*
X-1327342Y-641090D01*
X-1342044Y-635000D01*
D02*
G37*
G36*
X-141049Y-2405000D02*
X-158951D01*
X-175490Y-2411851D01*
X-188149Y-2424510D01*
X-195000Y-2441049D01*
Y-2458951D01*
X-188149Y-2475490D01*
X-180588Y-2483052D01*
Y-2515002D01*
X-210000D01*
Y-2615002D01*
X-90001D01*
Y-2515002D01*
X-119412D01*
Y-2483052D01*
X-111851Y-2475490D01*
X-105000Y-2458951D01*
Y-2441049D01*
X-111851Y-2424510D01*
X-124510Y-2411851D01*
X-141049Y-2405000D01*
D02*
G37*
G36*
X-2240000Y-2423764D02*
X-2459448D01*
X-2470929Y-2428519D01*
X-2475684Y-2440000D01*
Y-2703764D01*
X-2518978D01*
X-2521961Y-2705000D01*
X-2525191D01*
X-2534278Y-2708764D01*
X-2545722D01*
X-2554809Y-2705000D01*
X-2558038D01*
X-2561022Y-2703764D01*
X-2653764D01*
Y-2633489D01*
X-2650003D01*
Y-2439989D01*
X-2950002D01*
Y-2633489D01*
X-2954771Y-2644214D01*
X-3090002D01*
Y-2634997D01*
X-3210001D01*
Y-2734997D01*
X-3222195Y-2736220D01*
X-3514001D01*
Y-2672004D01*
X-3724001D01*
Y-2882003D01*
X-3514001D01*
Y-2817787D01*
X-2946236D01*
Y-2830000D01*
X-2941481Y-2841480D01*
X-2930000Y-2846236D01*
X-2240000D01*
X-2228520Y-2841480D01*
X-2223764Y-2830000D01*
Y-2440000D01*
X-2228520Y-2428519D01*
X-2240000Y-2423764D01*
D02*
G37*
G36*
X-2159567Y-2439136D02*
X-2177125Y-2442628D01*
X-2192010Y-2452574D01*
X-2201956Y-2467459D01*
X-2205448Y-2485017D01*
Y-2585017D01*
X-2201956Y-2602575D01*
X-2192010Y-2617460D01*
X-2190373Y-2618554D01*
Y-2649998D01*
X-2210003D01*
Y-2769998D01*
X-2110004D01*
Y-2649998D01*
X-2129197D01*
Y-2618846D01*
X-2127124Y-2617460D01*
X-2117178Y-2602575D01*
X-2113685Y-2585017D01*
Y-2485017D01*
X-2117178Y-2467459D01*
X-2127124Y-2452574D01*
X-2142009Y-2442628D01*
X-2159567Y-2439136D01*
D02*
G37*
G36*
X700000Y-2233764D02*
X180000D01*
X168519Y-2238520D01*
X163764Y-2250000D01*
Y-2540000D01*
X168519Y-2551481D01*
X180000Y-2556236D01*
X433764D01*
Y-2638485D01*
X438520Y-2649965D01*
X448756Y-2654206D01*
Y-2816264D01*
X438520Y-2820504D01*
X433764Y-2831985D01*
Y-2910000D01*
X438520Y-2921481D01*
X450000Y-2926236D01*
X730000D01*
X741481Y-2921481D01*
X746236Y-2910000D01*
X746236Y-2700000D01*
X741480Y-2688519D01*
X716236Y-2663275D01*
Y-2643491D01*
X711481Y-2632011D01*
X709991Y-2631394D01*
Y-2565589D01*
X711481Y-2564972D01*
X716236Y-2553491D01*
Y-2250000D01*
X711481Y-2238520D01*
X700000Y-2233764D01*
D02*
G37*
%LPD*%
G36*
X-752278Y891231D02*
X-753437Y881353D01*
X-765592Y876639D01*
X-831976Y943024D01*
X-840245Y948549D01*
X-850000Y950490D01*
X-3575000D01*
X-3584755Y948549D01*
X-3593024Y943024D01*
X-3879391Y656657D01*
X-3894739Y672005D01*
X-3915261Y683854D01*
X-3926296Y686810D01*
X-3924624Y699510D01*
X-3875000D01*
X-3865245Y701451D01*
X-3856976Y706976D01*
X-3589442Y974510D01*
X-835558D01*
X-752278Y891231D01*
D02*
G37*
G36*
X-962400Y-538746D02*
X-955556Y-548988D01*
X-958910Y-552342D01*
X-965000Y-567044D01*
Y-582957D01*
X-958910Y-597658D01*
X-947658Y-608910D01*
X-932956Y-615000D01*
X-917043D01*
X-913183Y-613401D01*
X-900483Y-621887D01*
Y-693914D01*
X-908910Y-702342D01*
X-915000Y-717044D01*
Y-732957D01*
X-908910Y-747658D01*
X-897658Y-758910D01*
X-882957Y-765000D01*
X-867043D01*
X-852342Y-758910D01*
X-841090Y-747658D01*
X-835000Y-732957D01*
Y-717044D01*
X-841090Y-702342D01*
X-849503Y-693929D01*
Y-604505D01*
X-836803Y-599244D01*
X-613296Y-822751D01*
X-614824Y-828697D01*
X-619008Y-835000D01*
X-633558D01*
X-650089Y-839430D01*
X-664911Y-847987D01*
X-666434Y-849510D01*
X-918921D01*
X-927342Y-841090D01*
X-942043Y-835000D01*
X-957956D01*
X-972658Y-841090D01*
X-983910Y-852342D01*
X-986809Y-859340D01*
X-999509Y-856813D01*
Y-546890D01*
X-986809Y-538404D01*
X-982957Y-540000D01*
X-967044D01*
X-963189Y-538403D01*
X-962400Y-538746D01*
D02*
G37*
G36*
X-1328438Y-481355D02*
X-1327280Y-491232D01*
X-1910558Y-1074510D01*
X-3780000D01*
Y-1050000D01*
X-3854695D01*
X-3856367Y-1037300D01*
X-3849911Y-1035570D01*
X-3835089Y-1027013D01*
X-3822987Y-1014911D01*
X-3814430Y-1000089D01*
X-3810000Y-983558D01*
Y-966443D01*
X-3814430Y-949911D01*
X-3822987Y-935089D01*
X-3835089Y-922987D01*
X-3849510Y-914661D01*
Y-900490D01*
X-1875000D01*
X-1865245Y-898549D01*
X-1856976Y-893024D01*
X-1455667Y-491715D01*
X-1445516Y-492237D01*
X-1440164Y-504116D01*
X-1895558Y-959510D01*
X-3400883D01*
X-3409304Y-951090D01*
X-3424005Y-945000D01*
X-3439918D01*
X-3454620Y-951090D01*
X-3458041Y-954510D01*
X-3547952D01*
X-3548180Y-953661D01*
X-3556737Y-938839D01*
X-3568839Y-926737D01*
X-3583661Y-918180D01*
X-3600192Y-913750D01*
X-3617307D01*
X-3633839Y-918180D01*
X-3648661Y-926737D01*
X-3660763Y-938839D01*
X-3669320Y-953661D01*
X-3673750Y-970192D01*
Y-987307D01*
X-3669320Y-1003839D01*
X-3660763Y-1018661D01*
X-3648661Y-1030763D01*
X-3633839Y-1039320D01*
X-3617307Y-1043750D01*
X-3600192D01*
X-3583661Y-1039320D01*
X-3568839Y-1030763D01*
X-3556737Y-1018661D01*
X-3549133Y-1005489D01*
X-3466770D01*
X-3465872Y-1007658D01*
X-3454620Y-1018910D01*
X-3439918Y-1025000D01*
X-3424005D01*
X-3409304Y-1018910D01*
X-3400883Y-1010489D01*
X-1885000D01*
X-1875245Y-1008549D01*
X-1866976Y-1003024D01*
X-1340593Y-476641D01*
X-1328438Y-481355D01*
D02*
G37*
G36*
X-230000Y-1880000D02*
X-405139D01*
X-410399Y-1878954D01*
X-548580D01*
X-553840Y-1880000D01*
X-580000D01*
Y-1710000D01*
X-230000D01*
Y-1880000D01*
D02*
G37*
G36*
X3020000D02*
X2844861D01*
X2839601Y-1878954D01*
X2701420D01*
X2696160Y-1880000D01*
X2670000D01*
Y-1710000D01*
X3020000D01*
Y-1880000D01*
D02*
G37*
G36*
X1450000Y-1575000D02*
X1450000Y-1950000D01*
X975000D01*
X850000Y-1825000D01*
X625000D01*
Y-1725000D01*
X1070000D01*
X1070000Y-1310000D01*
X1450000D01*
X1450000Y-1575000D01*
D02*
G37*
G36*
X608764Y-1825000D02*
X611500Y-1831605D01*
Y-1834003D01*
X612494D01*
X613519Y-1836480D01*
X625000Y-1841236D01*
X843275D01*
X963519Y-1961480D01*
X975000Y-1966236D01*
X1413454D01*
X1423796Y-1976577D01*
X1423796Y-1976578D01*
X1433720Y-1983209D01*
X1445425Y-1985537D01*
X1445427Y-1985537D01*
X1500000D01*
Y-2200000D01*
X1635873Y-2375000D01*
Y-2550000D01*
X1350000D01*
Y-2500000D01*
X1093258D01*
X1025000Y-2431742D01*
Y-2125000D01*
X275000D01*
Y-1775000D01*
X608764D01*
Y-1825000D01*
D02*
G37*
G36*
X1078371Y-2571628D02*
X1078371Y-2571629D01*
X1084320Y-2575603D01*
X1088294Y-2578259D01*
X1100000Y-2580588D01*
X1140000D01*
Y-2900000D01*
X810000D01*
Y-2570000D01*
X1076743D01*
X1078371Y-2571628D01*
D02*
G37*
G36*
X-3490000Y-1880000D02*
X-3840000D01*
Y-1710000D01*
X-3490000D01*
Y-1880000D01*
D02*
G37*
G36*
X-2675000Y-1600000D02*
X-2500000Y-1775000D01*
Y-2025000D01*
X-2575000D01*
X-2637502Y-1962497D01*
Y-1959999D01*
X-2640001D01*
X-2650000Y-1950000D01*
X-2750000D01*
Y-1775000D01*
X-2900000Y-1625000D01*
Y-1300000D01*
X-2675000D01*
Y-1600000D01*
D02*
G37*
G36*
X-2240000Y-2830000D02*
X-2930000D01*
Y-2460000D01*
X-2670000D01*
Y-2720000D01*
X-2561022D01*
X-2548951Y-2725000D01*
X-2531049D01*
X-2518978Y-2720000D01*
X-2459448D01*
Y-2440000D01*
X-2240000D01*
Y-2830000D01*
D02*
G37*
G36*
X700000Y-2553491D02*
X559992D01*
Y-2643491D01*
X700000D01*
Y-2670000D01*
X730000Y-2700000D01*
X730000Y-2910000D01*
X450000D01*
Y-2831985D01*
X464992D01*
Y-2638485D01*
X450000D01*
Y-2540000D01*
X180000D01*
Y-2250000D01*
X700000D01*
Y-2553491D01*
D02*
G37*
D10*
X-3608750Y-978750D02*
D03*
X-1300000Y-1075000D02*
D03*
X225000Y-1050000D02*
D03*
X675000Y-650000D02*
D03*
X500000Y-825000D02*
D03*
X350000Y-900000D02*
D03*
X-400000Y-950000D02*
D03*
X-625000Y-900000D02*
D03*
X-1024998Y-995002D02*
D03*
X-1150000Y-1175000D02*
D03*
X-1375000Y-1300000D02*
D03*
X-3150000Y-1350000D02*
D03*
X-3275000Y-1225000D02*
D03*
X-3875000Y-975000D02*
D03*
X-3116443Y-710000D02*
D03*
D11*
X-2749999Y-344999D02*
D03*
Y-204999D02*
D03*
X1025000Y-155000D02*
D03*
Y-295000D02*
D03*
X2500000Y-1250000D02*
D03*
Y-1110000D02*
D03*
X2979490Y-1634500D02*
D03*
Y-1494500D02*
D03*
X2970000Y-1980000D02*
D03*
Y-1840000D02*
D03*
X2025000Y-2043724D02*
D03*
Y-2183724D02*
D03*
X-270510Y-1634500D02*
D03*
Y-1494500D02*
D03*
X-280000Y-1840000D02*
D03*
Y-1980000D02*
D03*
X1025000Y-455000D02*
D03*
Y-595000D02*
D03*
X-1225000Y-2183724D02*
D03*
Y-2043724D02*
D03*
X-750000Y-1110000D02*
D03*
Y-1250000D02*
D03*
X-174999Y645002D02*
D03*
Y504997D02*
D03*
X-1885004Y409999D02*
D03*
Y270000D02*
D03*
X-4015000Y-1115000D02*
D03*
Y-1255000D02*
D03*
X-3535510Y-1639500D02*
D03*
Y-1499500D02*
D03*
X-3545000Y-1845000D02*
D03*
Y-1985000D02*
D03*
X-4490000Y-2188724D02*
D03*
Y-2048724D02*
D03*
X-2700002Y-1889999D02*
D03*
Y-2029999D02*
D03*
D12*
X655000Y-125000D02*
D03*
X795000D02*
D03*
X-429999Y-374999D02*
D03*
X-569999D02*
D03*
X-1420001Y575001D02*
D03*
X-1280001D02*
D03*
X-1720002Y574999D02*
D03*
X-1580002D02*
D03*
X-1669998Y-150002D02*
D03*
X-1529998D02*
D03*
X-1670001Y-25001D02*
D03*
X-1530002D02*
D03*
X-1179998Y724999D02*
D03*
X-1319998D02*
D03*
X981986Y-1352148D02*
D03*
X1121985D02*
D03*
D13*
X-150000Y-2734999D02*
D03*
Y-2565002D02*
D03*
X2325000Y-1095000D02*
D03*
Y-1265000D02*
D03*
X2675000Y-1265000D02*
D03*
Y-1095000D02*
D03*
X1650001Y-1684999D02*
D03*
Y-1515002D02*
D03*
X-575000Y-1095000D02*
D03*
Y-1265000D02*
D03*
X-925000Y-1265000D02*
D03*
Y-1095000D02*
D03*
X-3149998Y309999D02*
D03*
Y140001D02*
D03*
X-3449999Y309999D02*
D03*
Y140001D02*
D03*
X-4190000Y-1270000D02*
D03*
Y-1100000D02*
D03*
X-3150002Y-2684997D02*
D03*
Y-2515000D02*
D03*
X-3275002Y-2340002D02*
D03*
Y-2509999D02*
D03*
X-3840000Y-1100000D02*
D03*
Y-1270000D02*
D03*
X1260000Y-2834999D02*
D03*
Y-2665002D02*
D03*
Y-2395003D02*
D03*
Y-2565000D02*
D03*
X-1975005Y-1849999D02*
D03*
Y-2019996D02*
D03*
X-1975000Y-1719997D02*
D03*
Y-1550000D02*
D03*
X100002Y-1515000D02*
D03*
X-1800000Y-2019997D02*
D03*
X100002Y-1684997D02*
D03*
X-1800000Y-1850000D02*
D03*
D14*
X1101205Y448912D02*
D03*
X1181189D02*
D03*
X1661199D02*
D03*
X1741209D02*
D03*
D15*
X1246188D02*
D03*
X1296201D02*
D03*
X1346213D02*
D03*
X1396200D02*
D03*
X1446213D02*
D03*
X1496200D02*
D03*
X1546187D02*
D03*
X1596200D02*
D03*
D16*
X2777241Y-1770500D02*
D03*
Y-1643500D02*
D03*
Y-1516500D02*
D03*
Y-1389500D02*
D03*
X2222759Y-1770500D02*
D03*
Y-1643500D02*
D03*
Y-1516500D02*
D03*
Y-1389500D02*
D03*
X-1027241D02*
D03*
Y-1516500D02*
D03*
Y-1643500D02*
D03*
Y-1770500D02*
D03*
X-472759Y-1389500D02*
D03*
Y-1516500D02*
D03*
Y-1643500D02*
D03*
Y-1770500D02*
D03*
X-4292241Y-1394500D02*
D03*
Y-1521500D02*
D03*
Y-1648500D02*
D03*
Y-1775500D02*
D03*
X-3737759Y-1394500D02*
D03*
Y-1521500D02*
D03*
Y-1648500D02*
D03*
Y-1775500D02*
D03*
D17*
X2770510Y-2304224D02*
D03*
Y-2177224D02*
D03*
Y-2050224D02*
D03*
Y-1923224D02*
D03*
X2229490Y-2304224D02*
D03*
Y-2177224D02*
D03*
Y-2050224D02*
D03*
Y-1923224D02*
D03*
X-1020510D02*
D03*
Y-2050224D02*
D03*
Y-2177224D02*
D03*
Y-2304224D02*
D03*
X-479490Y-1923224D02*
D03*
Y-2050224D02*
D03*
Y-2177224D02*
D03*
Y-2304224D02*
D03*
X-2954490Y-338501D02*
D03*
X-3495510Y-84501D02*
D03*
Y-211501D02*
D03*
Y-338501D02*
D03*
Y-465501D02*
D03*
X-2954490Y-211501D02*
D03*
Y-465501D02*
D03*
Y-84501D02*
D03*
X-4285510Y-1928225D02*
D03*
Y-2055225D02*
D03*
Y-2182225D02*
D03*
Y-2309225D02*
D03*
X-3744490Y-1928225D02*
D03*
Y-2055225D02*
D03*
Y-2182225D02*
D03*
Y-2309225D02*
D03*
D18*
X1489991Y-2456754D02*
D03*
Y-2760233D02*
D03*
X314992Y-2735235D02*
D03*
Y-2431756D02*
D03*
X416976Y-1921743D02*
D03*
Y-1618263D02*
D03*
X-1900004Y-2233260D02*
D03*
Y-2536739D02*
D03*
X-2800002D02*
D03*
Y-2233260D02*
D03*
D19*
X1649645Y-1795056D02*
D03*
X1650357Y-1954949D02*
D03*
X-3000345Y304944D02*
D03*
X-2999659Y145051D02*
D03*
X-3299655Y145041D02*
D03*
X-3300341Y304959D02*
D03*
X-1799289Y-1709893D02*
D03*
X-1800000Y-1550000D02*
D03*
X99644Y-1795052D02*
D03*
X100355Y-1954945D02*
D03*
D20*
X582277Y-475004D02*
D03*
D21*
Y-275000D02*
D03*
D22*
X625000Y-232277D02*
D03*
D23*
X825005Y-232285D02*
D03*
D24*
X867719Y-275009D02*
D03*
D25*
X867729Y-475009D02*
D03*
D26*
X825005Y-517726D02*
D03*
D27*
X625014Y-517730D02*
D03*
D28*
X665005Y-517748D02*
D03*
X705010D02*
D03*
X744990D02*
D03*
X784995D02*
D03*
Y-232252D02*
D03*
X744990D02*
D03*
X705010D02*
D03*
X665005D02*
D03*
D29*
X867748Y-434995D02*
D03*
Y-394990D02*
D03*
Y-355010D02*
D03*
Y-315005D02*
D03*
X582252D02*
D03*
Y-355010D02*
D03*
Y-394990D02*
D03*
Y-434995D02*
D03*
D30*
X725000Y-375000D02*
D03*
D31*
X-1084999Y850001D02*
D03*
X-915002D02*
D03*
X-1695006Y114999D02*
D03*
X-1525004D02*
D03*
X1235002Y310001D02*
D03*
X1065000D02*
D03*
X-2160004Y-2709998D02*
D03*
X-1990001D02*
D03*
X1735001Y310001D02*
D03*
X1564999D02*
D03*
D32*
X-1174985Y475011D02*
D03*
Y424999D02*
D03*
Y375011D02*
D03*
Y324999D02*
D03*
Y275012D02*
D03*
Y224999D02*
D03*
Y175012D02*
D03*
Y124999D02*
D03*
Y75012D02*
D03*
Y24999D02*
D03*
Y-24988D02*
D03*
Y-75000D02*
D03*
X-325000D02*
D03*
Y-24988D02*
D03*
Y24999D02*
D03*
Y75012D02*
D03*
Y124999D02*
D03*
Y175012D02*
D03*
Y224999D02*
D03*
Y275012D02*
D03*
Y324999D02*
D03*
Y375011D02*
D03*
Y424999D02*
D03*
Y475011D02*
D03*
D33*
X-1024998Y-224987D02*
D03*
X-974986D02*
D03*
X-924999D02*
D03*
X-874986D02*
D03*
X-824999D02*
D03*
X-774986D02*
D03*
X-724999D02*
D03*
X-674986D02*
D03*
X-624999D02*
D03*
X-574987D02*
D03*
X-524999D02*
D03*
X-474987D02*
D03*
Y624998D02*
D03*
X-524999D02*
D03*
X-574987D02*
D03*
X-624999D02*
D03*
X-674986D02*
D03*
X-724999D02*
D03*
X-774986D02*
D03*
X-824999D02*
D03*
X-874986D02*
D03*
X-924999D02*
D03*
X-974986D02*
D03*
X-1024998D02*
D03*
D34*
X-1500000Y254998D02*
D03*
X-1720015Y425000D02*
D03*
Y254998D02*
D03*
X-1500000Y425000D02*
D03*
D35*
X894991Y-2503495D02*
D03*
Y-2598491D02*
D03*
Y-2408499D02*
D03*
X634992D02*
D03*
Y-2503495D02*
D03*
Y-2598491D02*
D03*
D36*
X847986Y-2803500D02*
D03*
X681997D02*
D03*
D37*
X1049999Y-2330000D02*
D03*
Y-2670005D02*
D03*
D38*
X750000Y-1770003D02*
D03*
Y-1540006D02*
D03*
Y-2000000D02*
D03*
D39*
X1316979Y-1770003D02*
D03*
D40*
X1375000Y-1200000D02*
D03*
X1775000Y-2450000D02*
D03*
X-1800000Y-1351030D02*
D03*
D41*
X-2540567Y-1935018D02*
D03*
X-2413567D02*
D03*
X-2286567D02*
D03*
X-2159567D02*
D03*
X-2413567Y-2535017D02*
D03*
X-2286567D02*
D03*
X-2159567D02*
D03*
X-2540567D02*
D03*
D42*
X-2350067Y-2235018D02*
D03*
D43*
X-2208716Y-1459998D02*
D03*
X-2791290D02*
D03*
D44*
X-1293586Y375011D02*
X-1174985D01*
X-1326716Y350000D02*
X-1318598D01*
X-1293586Y375011D01*
X475000Y-300000D02*
X483118D01*
X498123Y-315005D01*
X665005D01*
X-1750000Y-150000D02*
X-1670000D01*
X-1750000Y-25000D02*
X-1670003D01*
X-1670001Y-25001D01*
X-1670000Y-150000D02*
X-1669998Y-150002D01*
X533118Y-225000D02*
X540370Y-232252D01*
X625000D01*
X525000Y-225000D02*
X533118D01*
X-875000Y450000D02*
X-874993Y450007D01*
Y624991D01*
X-874986Y624998D01*
X-1450000Y605000D02*
X-1420001Y575001D01*
X-1450000Y605000D02*
Y650000D01*
X-775000Y-224974D02*
Y100000D01*
X525000Y-125000D02*
X655000D01*
X-3275000Y-1100000D02*
X-1900000D01*
X-3830000D02*
X-3275000D01*
Y-1225000D02*
Y-1100000D01*
X-3608750Y-978750D02*
X-3595000Y-980000D01*
X-3436962D01*
X-3431962Y-985000D01*
X-3875000Y-875000D02*
X-3600000D01*
X-3875000Y-975000D02*
Y-875000D01*
X-4150000D02*
X-3875000D01*
X-3600000D02*
X-1875000D01*
X-3125000Y-800000D02*
X-1925000D01*
X-3908551D02*
X-3125000D01*
Y-718558D01*
X225000Y-1050000D02*
X1595637D01*
X-125000Y-700000D02*
X225000Y-1050000D01*
X575000Y-750000D02*
X1675000D01*
X550000D02*
X575000D01*
X675000Y-650000D01*
X-975001Y124999D02*
X-975000Y125000D01*
X-1174985Y124999D02*
X-975001D01*
X-1174979Y175006D02*
X-1050006D01*
X-1174985Y175012D02*
X-1174979Y175006D01*
X-1050006D02*
X-1050000Y175000D01*
X-1174979Y75006D02*
X-1050006D01*
X-1050000Y75000D01*
X250000Y-25000D02*
X1119784D01*
X125000Y100000D02*
X250000Y-25000D01*
X-725000Y50000D02*
X-725000Y49999D01*
Y-224987D02*
Y49999D01*
X-675000Y-224974D02*
Y0D01*
X-625000Y-224987D02*
Y-50000D01*
X-625000Y-50000D02*
X-625000Y-50000D01*
X-574994Y-224980D02*
Y-100007D01*
X-575000Y-100000D02*
X-574994Y-100007D01*
Y-224980D02*
X-574987Y-224987D01*
X-625000Y-224987D02*
X-624999Y-224987D01*
X1025000Y-155000D02*
X1030000Y-160000D01*
X1130000D01*
X1025000Y-595000D02*
X1030000Y-600000D01*
X1140000D01*
X1030000Y-460000D02*
X1140000D01*
X1004216Y-434216D02*
X1030000Y-460000D01*
X1025000Y-295000D02*
X1030000Y-290000D01*
X1140000D01*
X-474974Y-226779D02*
X-471753Y-230000D01*
X-474974Y-226779D02*
Y-225000D01*
X-471753Y-230000D02*
X-410000D01*
X-125000Y-700000D02*
Y25000D01*
X-824999Y-575001D02*
Y-224987D01*
X-25000Y-2700000D02*
Y-1375000D01*
X-824999Y-575001D02*
X-25000Y-1375000D01*
X-1115216Y-75000D02*
X-1100000Y-90216D01*
X-1174985Y-75000D02*
X-1115216D01*
X-1100000Y-875000D02*
Y-90216D01*
X-2225000Y475000D02*
Y475000D01*
X-2784501Y-84501D02*
X-2225000Y475000D01*
X-2954490Y-84501D02*
X-2784501D01*
X-1925000Y-800000D02*
X-1500000Y-375000D01*
Y-325000D01*
X-4525000Y-1361591D02*
X-4365091Y-1521500D01*
X-4525000Y-1125000D02*
X-4200000Y-800000D01*
X-4525000Y-1361591D02*
Y-1125000D01*
X-4200000Y-800000D02*
X-3991448D01*
X-1885000Y-985000D02*
X-1350000Y-450000D01*
X-3431962Y-985000D02*
X-1885000D01*
X-1900000Y-1100000D02*
X-1300000Y-500000D01*
X-3425000Y-2175000D02*
Y-1200000D01*
X-1875000D02*
X-1350000Y-675000D01*
X-3100000Y-1200000D02*
X-1875000D01*
X-3150000Y-1250000D02*
X-3100000Y-1200000D01*
X-574987Y750013D02*
X-500000Y825000D01*
X-83000D02*
X146000Y596000D01*
X-500000Y825000D02*
X-83000D01*
X-850000Y925000D02*
X-774986Y849986D01*
Y624998D02*
Y849986D01*
X-3575000Y925000D02*
X-850000D01*
X989894Y-550000D02*
X1030000Y-590105D01*
X-1875000Y-875000D02*
X-1450000Y-450000D01*
X-3150000Y-2509999D02*
Y-1250000D01*
X-3275002Y-2509999D02*
X-3155002D01*
X3020776Y-2304224D02*
X3090000Y-2235000D01*
X2750000Y-1000000D02*
X3090000Y-1340000D01*
Y-2235000D02*
Y-1340000D01*
X-100000Y-2175000D02*
Y-1400000D01*
X-625000Y-875000D02*
X-100000Y-1400000D01*
X-229224Y-2304224D02*
X-100000Y-2175000D01*
X-150000Y-2734999D02*
X-59999D01*
X-25000Y-2700000D01*
X-326997Y-2734999D02*
X-140000D01*
X-1174985Y75012D02*
X-1174979Y75006D01*
X-1274988Y75012D02*
X-1174985D01*
Y124999D02*
X-1174985Y124999D01*
X867748Y-394990D02*
X919990D01*
X744990D02*
X867748D01*
X313712Y-1515000D02*
X416976Y-1618263D01*
X99644Y-1795052D02*
Y-1685356D01*
X100002Y-1515000D02*
X313712D01*
X-325000Y424999D02*
X-325000Y424999D01*
X-425000Y425000D02*
X-424999Y424999D01*
X-325000D01*
X-970002Y729998D02*
X-950000Y750000D01*
X-974986Y729998D02*
X-970002D01*
X-1084999Y840001D02*
Y850001D01*
X-1059999Y815001D02*
X-1059989D01*
X-974986Y624998D02*
Y729998D01*
X-1059989Y815001D02*
X-974986Y729998D01*
X-1084999Y840001D02*
X-1059999Y815001D01*
X-1149999Y850001D02*
X-1084999D01*
X-1319998Y724999D02*
Y794998D01*
X-1412501Y575001D02*
X-1375001Y612501D01*
Y677496D02*
X-1327498Y724999D01*
X-1420001Y575001D02*
X-1412501D01*
X-1375001Y612501D02*
Y677496D01*
X-1720002Y574999D02*
Y645002D01*
X-1720015Y574986D02*
X-1720002Y574999D01*
X-1720015Y425000D02*
Y574986D01*
X-2000000Y325000D02*
X-1960001Y364999D01*
X-1885004Y402499D02*
Y409999D01*
X-1922504Y364999D02*
X-1885004Y402499D01*
X-1960001Y364999D02*
X-1922504D01*
X-1670015Y375000D02*
X-1630002D01*
X-1510000Y254998D01*
X-1500000D01*
X-1870004Y425000D02*
X-1720015D01*
X-1670015Y375000D01*
X-1500000Y254998D02*
X-1495002Y250000D01*
X-1530002Y-25001D02*
X-1511718Y-6717D01*
X-1456717D02*
X-1276327Y173673D01*
X-1176325D01*
X-1511718Y-6717D02*
X-1456717D01*
X-1495002Y250000D02*
X-1400000D01*
X-1625001Y139997D02*
X-1510000Y254998D01*
X-1625001Y12499D02*
Y139997D01*
X-1662501Y-25001D02*
X-1625001Y12499D01*
X-1670001Y-25001D02*
X-1662501D01*
X-1670001D02*
X-1669998Y-25005D01*
Y-150002D02*
Y-25005D01*
X-595000Y-400000D02*
X-569999Y-374999D01*
X-650000Y-400000D02*
X-595000D01*
X-524999Y-224987D02*
X-523660Y-223648D01*
Y-148660D01*
X-499988Y-124988D02*
X-350012D01*
X-523660Y-148660D02*
X-499988Y-124988D01*
X-524999Y-337499D02*
Y-224987D01*
X-350012Y-124988D02*
X-300000Y-175000D01*
X-562500Y-374999D02*
X-524999Y-337499D01*
X-569999Y-374999D02*
X-562500D01*
X-245002Y645002D02*
X-174999D01*
X940248Y-211716D02*
X951963Y-200000D01*
X940248Y-273108D02*
Y-211716D01*
X951963Y-200000D02*
X987500D01*
X1025000Y-162500D01*
X867748Y-355010D02*
X972490D01*
X1025000Y-302500D01*
X919990Y-394990D02*
X959216Y-434216D01*
X1004216D01*
X950000Y-550000D02*
X989894D01*
X925000Y-525000D02*
Y-461652D01*
Y-525000D02*
X950000Y-550000D01*
X898343Y-434995D02*
X925000Y-461652D01*
X867748Y-434995D02*
X898343D01*
X898351Y-315005D02*
X940248Y-273108D01*
X867748Y-315005D02*
X898351D01*
X1025000Y-302500D02*
Y-295000D01*
X625000Y-232252D02*
Y-155000D01*
X784995Y-315005D02*
X867748D01*
X-3744490Y-2309225D02*
X-3559225D01*
X-3425000Y-2175000D01*
X-915002Y840002D02*
X-824999Y749998D01*
Y624998D02*
Y749998D01*
X-1492498Y-112502D02*
X-1462502D01*
X-1274988Y75012D01*
X-1529998Y-150002D02*
X-1492498Y-112502D01*
X-474987Y-337499D02*
Y-224987D01*
Y-337499D02*
X-437487Y-374999D01*
X-429999D01*
X795000Y-125000D02*
X875000D01*
X825000Y-232252D02*
Y-155000D01*
X2062137Y-1516500D02*
X2222759D01*
X2062137Y-1389500D02*
X2222759D01*
X1895000Y-1095000D02*
X2485000D01*
X450000Y-850000D02*
X1650000D01*
X1895000Y-1095000D01*
X1925000Y-1000000D02*
X2750000D01*
X2515000Y-1095000D02*
X2675000D01*
X2485000Y-1095000D02*
X2500000Y-1110000D01*
X2770510Y-2304224D02*
X3020776D01*
X-3444959Y304959D02*
X-3300341D01*
X-3144943Y304944D02*
X-3000345D01*
X-2999659Y145051D02*
X-2725000Y419710D01*
Y425000D01*
X-3204614Y50000D02*
X-2950000D01*
X-2625000Y375000D01*
X-3299655Y145041D02*
X-3204614Y50000D01*
X-950000Y-875000D02*
X-625000D01*
X254000Y450000D02*
X400000Y596000D01*
X50000Y450000D02*
X254000D01*
X-25000Y525000D02*
X50000Y450000D01*
X-25000Y525000D02*
Y675000D01*
X-100000Y750000D02*
X-25000Y675000D01*
X-474987Y624998D02*
Y725013D01*
X-450000Y750000D02*
X-100000D01*
X-474987Y725013D02*
X-450000Y750000D01*
X-574987Y624998D02*
Y750013D01*
X654000Y850000D02*
X800000Y704000D01*
Y475000D02*
Y704000D01*
X700011Y375011D02*
X800000Y475000D01*
X-325000Y375011D02*
X700011D01*
X-4425000Y-1150000D02*
X-4150000Y-875000D01*
X-4425000Y-1334591D02*
Y-1150000D01*
X1246189Y336188D02*
Y448910D01*
X1235002Y325002D02*
X1246189Y336188D01*
X1546188Y343813D02*
Y448910D01*
Y343813D02*
X1564999Y325002D01*
X1348507Y388568D02*
Y446617D01*
X551732Y225000D02*
X1310795D01*
X1348507Y262712D02*
Y388568D01*
X532927Y179600D02*
X1329600D01*
X1310795Y225000D02*
X1348507Y262712D01*
X1393907Y243907D02*
Y388568D01*
X1329600Y179600D02*
X1393907Y243907D01*
X435222Y277305D02*
X532927Y179600D01*
X454027Y322705D02*
X551732Y225000D01*
X1491201Y443910D02*
X1496201Y448910D01*
X1491201Y388543D02*
Y443910D01*
X1420858Y368910D02*
X1471569D01*
X1401201Y388568D02*
Y443910D01*
X1396201Y448910D02*
X1401201Y443910D01*
X1441214Y453910D02*
X1446214Y448910D01*
X1401201Y388568D02*
X1420858Y368910D01*
X1441214Y453910D02*
Y509252D01*
X1471569Y368910D02*
X1491201Y388543D01*
X1421556Y528910D02*
X1441214Y509252D01*
X1351214Y453910D02*
Y509278D01*
X1370846Y528910D01*
X1346214Y448910D02*
X1351214Y453910D01*
X1370846Y528910D02*
X1421556D01*
X1346214Y448910D02*
X1348507Y446617D01*
X-256257Y277305D02*
X435222D01*
X-257211Y276351D02*
X-256257Y277305D01*
X-323661Y276351D02*
X-257211D01*
X-325000Y275012D02*
X-323661Y276351D01*
Y323659D02*
X-257211D01*
X-256257Y322705D01*
X454027D01*
X-325000Y324999D02*
X-323661Y323659D01*
X1175000Y125000D02*
X1250002Y49998D01*
X450000Y125000D02*
X1175000D01*
X350000Y50000D02*
X1141026D01*
X1218084Y-27058D01*
X1119784Y-25000D02*
X1189896Y-95112D01*
X275000Y125000D02*
X350000Y50000D01*
X509995Y-434995D02*
X582252D01*
X276484Y-201483D02*
Y-101484D01*
Y-201483D02*
X509995Y-434995D01*
X275000Y-100000D02*
X276484Y-101484D01*
X125000Y-125000D02*
Y-50000D01*
X475000Y-475000D02*
X573941D01*
X125000Y-125000D02*
X475000Y-475000D01*
X1218084Y-27058D02*
X2002059D01*
X1189896Y-95112D02*
X1945112D01*
X1250002Y49998D02*
X2450000D01*
X-725000Y-224987D02*
X-724999Y-224987D01*
X2449987Y-199986D02*
X2450000Y-199999D01*
X2002059Y-27058D02*
X2174987Y-199986D01*
X2449987D01*
X2449975Y-449976D02*
X2450000Y-450001D01*
X1945112Y-95112D02*
X2299976Y-449976D01*
X2449975D01*
X1675000Y-750000D02*
X1925000Y-1000000D01*
X300000Y-500000D02*
X550000Y-750000D01*
X175000Y-575000D02*
X450000Y-850000D01*
X1622637Y-950000D02*
X2062137Y-1389500D01*
X400000Y-950000D02*
X1622637D01*
X25000Y-575000D02*
X400000Y-950000D01*
X1595637Y-1050000D02*
X2062137Y-1516500D01*
X-1300000Y425000D02*
X-1299999Y424999D01*
X-1174985D01*
X-2625000Y-175000D02*
X-1925000Y525000D01*
X-1925000D01*
X-924999Y525001D02*
Y624998D01*
X-925000Y525000D02*
X-924999Y525001D01*
X-1500000Y425000D02*
X-1450000Y375000D01*
X-1425000D01*
X-1326351Y276351D02*
X-1176325D01*
X-1425000Y375000D02*
X-1326351Y276351D01*
X-724999Y624998D02*
Y899999D01*
X-825000Y1000000D02*
X-724999Y899999D01*
X-3600000Y1000000D02*
X-825000D01*
X-4025000Y725000D02*
X-3875000D01*
X-4075000Y675000D02*
X-4025000Y725000D01*
X-4075000Y500000D02*
Y675000D01*
Y500000D02*
X-3950000Y375000D01*
Y349998D02*
Y375000D01*
X-3875000Y725000D02*
X-3600000Y1000000D01*
X-3875139Y624861D02*
X-3575000Y925000D01*
X-3950000Y600000D02*
X-3925138Y624861D01*
X-3875139D01*
X-2625000Y-375000D02*
Y-175000D01*
X-2954490Y-465501D02*
X-2715501D01*
X-2625000Y-375000D01*
X-924999Y624998D02*
X-924999Y624998D01*
X-1520008Y445007D02*
Y527498D01*
X-1565008Y564998D02*
X-1557508D01*
X-1520008Y527498D01*
X-1870002Y254998D02*
X-1720015D01*
X-1695006Y229989D01*
Y114999D02*
Y229989D01*
X-1314191Y224999D02*
X-1174985D01*
X-1176325Y276351D02*
X-1174985Y275012D01*
X-1525004Y114999D02*
X-1424192D01*
X-1314191Y224999D01*
X-875000Y-725000D02*
X-874993Y-724993D01*
Y-224994D01*
X-175000Y-800000D02*
Y0D01*
X-1250000Y-1366591D02*
Y-800000D01*
X-874993Y-224994D02*
X-874986Y-224987D01*
X-1175000Y-1325000D02*
Y-650000D01*
X-1250000Y-1366591D02*
X-1100091Y-1516500D01*
X-1175000Y-1325000D02*
X-1110500Y-1389500D01*
X-925000Y-575000D02*
X-924999Y-574999D01*
Y-224988D01*
X-25000Y-650000D02*
Y75000D01*
X-25000Y-650000D02*
X-25000Y-650000D01*
X-225000Y-375000D02*
Y-59053D01*
X-225000Y-375000D02*
X-225000Y-375000D01*
X-3991448Y-800000D02*
X-3991421Y-800027D01*
X-3908579D02*
X-3908551Y-800000D01*
X-3991421Y-800027D02*
X-3908579D01*
X-4365091Y-1394500D02*
X-4292241D01*
X-4425000Y-1334591D02*
X-4365091Y-1394500D01*
X-75000Y-450000D02*
X-75000Y-450000D01*
Y50000D01*
X-4000000Y-1100000D02*
X-3840000D01*
X-1238380Y-24988D02*
X-1174985D01*
X-1249892Y-36500D02*
X-1238380Y-24988D01*
X-1252432Y-36500D02*
X-1249892D01*
X-1300000Y-84068D02*
X-1252432Y-36500D01*
X-1300000Y-500000D02*
Y-84068D01*
X-1275000Y24999D02*
X-1174985D01*
X-1350000Y-50000D02*
X-1275000Y24999D01*
X-1350000Y-450000D02*
Y-50000D01*
X-261606Y-24988D02*
X-250093Y-36500D01*
X-247553D01*
X-325000Y-24988D02*
X-261606D01*
X-247553Y-36500D02*
X-225000Y-59053D01*
X-325000Y124999D02*
X-149999D01*
X-75000Y50000D01*
X-924999Y-224988D02*
X-924999Y-224987D01*
X-975000Y-500000D02*
X-974993Y-499993D01*
Y-224994D02*
X-974986Y-224987D01*
X-974993Y-499993D02*
Y-224994D01*
X-1024998Y-995002D02*
X-960000Y-1060000D01*
X-1024998Y-995002D02*
Y-224987D01*
X-479490Y-2304224D02*
X-229224D01*
X-175012Y75012D02*
X-125000Y25000D01*
X-125012Y175012D02*
X-25000Y75000D01*
X-99999Y224999D02*
X25000Y100000D01*
Y-575000D02*
Y100000D01*
X-199999Y24999D02*
X-175000Y0D01*
X-325000Y24999D02*
X-199999D01*
X-325000Y224999D02*
X-99999D01*
X-325000Y175012D02*
X-125012D01*
X-325000Y75012D02*
X-175012D01*
X-960000Y-1070000D02*
X-935000Y-1095000D01*
X-960000Y-1070000D02*
Y-1060000D01*
X-1110500Y-1389500D02*
X-1072167D01*
X-735000Y-1095000D02*
X-575000D01*
X-925000Y-1095000D02*
X-765000D01*
X-750000Y-1110000D01*
X-4030000Y-1100000D02*
X-4015000Y-1115000D01*
X-4190000Y-1100000D02*
X-4030000D01*
D45*
X-2540567Y-2535017D02*
X-2540283Y-2535300D01*
Y-2679717D02*
Y-2535300D01*
Y-2679717D02*
X-2540000Y-2680000D01*
X-3115740Y169264D02*
Y194260D01*
X-3119998Y165006D02*
X-3115740Y169264D01*
Y194260D02*
X-3110000Y200000D01*
X1930000Y-2050000D02*
X2018724D01*
X793252Y-2506748D02*
X891739D01*
X894991Y-2503495D01*
X790000Y-2510000D02*
X793252Y-2506748D01*
X-313118Y-2065000D02*
X-303118D01*
X-329202Y-2048916D02*
X-313118Y-2065000D01*
X-288118Y-2080000D02*
X-280000D01*
X-303118Y-2065000D02*
X-288118Y-2080000D01*
X-1320000Y-2050000D02*
X-1231276D01*
Y-2190000D02*
X-1225000Y-2183724D01*
X-1320000Y-2190000D02*
X-1231276D01*
X-3606416Y-2055225D02*
X-3575000Y-2086641D01*
X-3503359D02*
X-3500000Y-2090000D01*
X-3575000Y-2086641D02*
X-3503359D01*
X-3608118Y-2200000D02*
X-3600000D01*
X-3739354Y-2187360D02*
X-3620757D01*
X-3608118Y-2200000D01*
X-150000Y-2565002D02*
X-150000Y-2565001D01*
Y-2450000D01*
X-2159785Y-2535235D02*
X-2159567Y-2535017D01*
X-2159785Y-2709779D02*
Y-2535235D01*
X-2717499Y-142499D02*
X-1750000Y825000D01*
X-1475000D01*
X-2717499Y-172499D02*
Y-142499D01*
X-2749999Y-204999D02*
X-2717499Y-172499D01*
X2777241Y-1643500D02*
X2970490D01*
X315235Y-2855235D02*
Y-2735235D01*
X973499Y-2423499D02*
X1100000Y-2550000D01*
X1245000D02*
X1260000Y-2565000D01*
X1100000Y-2550000D02*
X1245000D01*
X1260000Y-2665002D02*
Y-2565000D01*
X1649645Y-1795056D02*
Y-1685355D01*
X-1799289Y-1849289D02*
Y-1709893D01*
X-2954490Y-211501D02*
X-2756501D01*
X1588628Y568909D02*
X1744719Y725000D01*
X2179000Y804000D02*
X2200000D01*
X1744719Y725000D02*
X2100000D01*
X2179000Y804000D01*
X1648699Y461411D02*
Y508838D01*
X1588628Y568909D02*
X1648699Y508838D01*
X1253761Y568909D02*
X1588628D01*
X1193691Y508838D02*
X1253761Y568909D01*
X1193691Y461411D02*
Y508838D01*
X1181190Y448910D02*
X1193691Y461411D01*
X909991Y-2423499D02*
X973499D01*
X894991Y-2408499D02*
X909991Y-2423499D01*
X1375000Y-1350000D02*
Y-1200000D01*
X1496746Y-2450000D02*
X1775000D01*
X1489991Y-2456754D02*
X1496746Y-2450000D01*
X2025000Y-2175000D02*
X2156324D01*
X2025000Y-2300000D02*
Y-2183724D01*
X1650357Y-1954949D02*
X1675357Y-1979949D01*
X1445425Y-1954949D02*
X1650357D01*
X1675357Y-1985833D02*
X1873247Y-2183724D01*
X1675357Y-1985833D02*
Y-1979949D01*
X1873247Y-2183724D02*
X2025000D01*
X1316979Y-1826503D02*
X1445425Y-1954949D01*
X2226350Y-2175916D02*
X2227266Y-2175000D01*
X-4288650Y-2180916D02*
X-4287734Y-2180000D01*
X-4490000D02*
X-4358676D01*
X-3300000Y-2208118D02*
Y-2200000D01*
X-3275002Y-2340002D02*
Y-2233116D01*
X-3300000Y-2208118D02*
X-3275002Y-2233116D01*
X2870595Y-1580000D02*
X2916096Y-1534500D01*
X2850776Y-1389500D02*
X2915776Y-1454500D01*
X2979490Y-1502000D02*
Y-1487000D01*
X2916096Y-1534500D02*
X2946990D01*
X2979490Y-1502000D01*
X2946990Y-1454500D02*
X2979490Y-1487000D01*
X2915776Y-1454500D02*
X2946990D01*
X2712185Y-1389500D02*
X2850776D01*
X-3675470Y-2496542D02*
X-3654509Y-2517503D01*
X-3890000Y-2330000D02*
X-3723458Y-2496542D01*
X-3675470D01*
X-3890000Y-2330000D02*
Y-1910000D01*
X-3744490Y-2182225D02*
X-3739354Y-2187360D01*
X2980000Y-1970000D02*
X2990000Y-1980000D01*
X2899776Y-2050224D02*
X2966743Y-2117192D01*
X3007192D02*
X3010000Y-2120000D01*
X2966743Y-2117192D02*
X3007192D01*
X2773614Y-2180328D02*
X2880329D01*
X2920000Y-2220000D01*
X2770510Y-2177224D02*
X2773614Y-2180328D01*
X-479490Y-2177224D02*
X-347776D01*
X-300000Y-2225000D01*
X-3119998Y160002D02*
Y165006D01*
X-3139998Y140001D02*
X-3119998Y160002D01*
X-3149998Y140001D02*
X-3139998D01*
X-3544997Y225000D02*
X-3459999Y140001D01*
X-3449999D01*
X-3085519Y-343637D02*
X-2959625D01*
X-2954490Y-338501D01*
X-3091882Y-350000D02*
X-3085519Y-343637D01*
X-3100000Y-350000D02*
X-3091882D01*
X-2954490Y-338501D02*
X-2756497D01*
X-1019260Y-1255740D02*
X-934260D01*
X-925000Y-1265000D01*
X-765000D01*
X-1231276Y-2050000D02*
X-1225000Y-2043724D01*
X-4272500Y-1272500D02*
X-4192500D01*
X-4190000Y-1270000D01*
X-4275000Y-1275000D02*
X-4272500Y-1272500D01*
X-4190000Y-1270000D02*
X-4030000D01*
X-4475000Y-2033724D02*
Y-1950000D01*
X-1980004Y-2700000D02*
X-1925000D01*
X-1990001Y-2709998D02*
X-1980004Y-2700000D01*
X-1923251Y-2536739D02*
X-1900004D01*
X-1990001Y-2603489D02*
X-1923251Y-2536739D01*
X-1990001Y-2709998D02*
Y-2603489D01*
X-2540567Y-2535017D02*
Y-2390518D01*
X-2450049Y-2300000D01*
X-2498548Y-2069999D02*
X-2413567Y-1985018D01*
X-2667502Y-2069999D02*
X-2498548D01*
X-2700002Y-2037499D02*
Y-2029999D01*
Y-2037499D02*
X-2667502Y-2069999D01*
X-2159567Y-1884567D02*
X-2150997D01*
X-1975005Y-1849999D02*
Y-1720002D01*
X-1975006Y-1850000D02*
X-1975005Y-1849999D01*
X-2116431Y-1850000D02*
X-1975006D01*
X-2150997Y-1884567D02*
X-2116431Y-1850000D01*
X-2159567Y-1935018D02*
Y-1884567D01*
X-2350067Y-2235018D02*
X-2335084Y-2250000D01*
X-1800000Y-2019997D02*
X-1680003D01*
X-1975005Y-2019996D02*
X-1975005Y-2019997D01*
X-1800000D01*
X-1985005Y-2019996D02*
X-1975005D01*
X-2240067Y-2125018D02*
X-2090027D01*
X-2350067Y-2235018D02*
X-2240067Y-2125018D01*
X-2090027D02*
X-1985005Y-2019996D01*
X1650001Y-1515002D02*
Y-1450001D01*
X2235000Y-1265000D02*
X2325000D01*
X2485000D01*
X2500000Y-1250000D01*
X2221009Y-1641750D02*
X2222759Y-1643500D01*
X1489991Y-2760233D02*
X1659767D01*
X1436741D02*
X1489991D01*
X1361976Y-2834999D02*
X1436741Y-2760233D01*
X1260000Y-2834999D02*
X1361976D01*
X314992Y-2735235D02*
X315235D01*
X100355Y-1954945D02*
X383773D01*
X1741209Y448910D02*
X1812131D01*
X1853711Y490490D01*
Y503896D01*
X1750000Y250000D02*
Y310003D01*
X1735001Y325002D02*
X1750000Y310003D01*
X1741209Y331210D02*
Y448910D01*
X1735001Y325002D02*
X1741209Y331210D01*
X1000002Y310001D02*
X1065000D01*
X1030283Y448910D02*
X1101205D01*
X988719Y490475D02*
Y503891D01*
Y490475D02*
X1030283Y448910D01*
X1101205Y371207D02*
Y448910D01*
X1065000Y325002D02*
Y335002D01*
X1101205Y371207D01*
X-4490000Y-2285000D02*
Y-2188724D01*
X2344001Y-1914500D02*
X2379490Y-1949989D01*
X2229490Y-1914500D02*
X2344001D01*
X2205698Y-2483027D02*
X2379490Y-2309234D01*
Y-1949989D01*
X2172708Y-2483027D02*
X2205698D01*
X2117000Y-2538734D02*
X2172708Y-2483027D01*
X2156324Y-2175000D02*
X2157240Y-2175916D01*
X2226350D01*
X2794303Y-2483027D02*
X2831015D01*
X2860491Y-2512503D01*
X2663990Y-1580000D02*
X2870595D01*
X2625000Y-1618990D02*
X2663990Y-1580000D01*
X2643225Y-1923224D02*
X2770510D01*
X2625000Y-2313724D02*
X2794303Y-2483027D01*
X2625000Y-2313724D02*
Y-1905000D01*
Y-1618990D01*
Y-1905000D02*
X2643225Y-1923224D01*
X2698881Y-1376196D02*
Y-1370076D01*
Y-1376196D02*
X2712185Y-1389500D01*
X2675000Y-1346195D02*
X2698881Y-1370076D01*
X2675000Y-1346195D02*
Y-1265000D01*
X-3967341Y-682661D02*
X-3950000Y-700002D01*
X-4100000Y-625000D02*
X-4042339Y-682661D01*
X-4100000Y-625000D02*
Y-400000D01*
X-4042339Y-682661D02*
X-3967341D01*
X-4100000Y-400000D02*
X-4025000Y-325000D01*
X-3850000D01*
X-3736501Y-211501D01*
X-3495510D01*
X-3950000Y-450000D02*
X-3947574Y-447574D01*
X-3847574D02*
X-3738501Y-338501D01*
X-3495510D01*
X-3947574Y-447574D02*
X-3847574D01*
X-270510Y-1502000D02*
Y-1487000D01*
X-333905Y-1534500D02*
X-303010D01*
X-270510Y-1502000D01*
X-379405Y-1580000D02*
X-333905Y-1534500D01*
X-455697Y-2483027D02*
X-418985D01*
X-389509Y-2512503D01*
X-586010Y-1580000D02*
X-379405D01*
X-625000Y-1618990D02*
X-586010Y-1580000D01*
X-606776Y-1923224D02*
X-479490D01*
X-625000Y-2313724D02*
X-455697Y-2483027D01*
X-625000Y-2313724D02*
Y-1905000D01*
Y-1618990D01*
Y-1905000D02*
X-606776Y-1923224D01*
X-905999Y-1914500D02*
X-870510Y-1949989D01*
X-1020510Y-1914500D02*
X-905999D01*
X-1044302Y-2483027D02*
X-870510Y-2309234D01*
Y-1949989D01*
X-1077292Y-2483027D02*
X-1044302D01*
X-1133000Y-2538734D02*
X-1077292Y-2483027D01*
X-279510Y-1643500D02*
X-270510Y-1634500D01*
X-472759Y-1643500D02*
X-279510D01*
X-303010Y-1454500D02*
X-270510Y-1487000D01*
X-334224Y-1454500D02*
X-303010D01*
X-537815Y-1389500D02*
X-399224D01*
X-551120Y-1376196D02*
Y-1370076D01*
X-399224Y-1389500D02*
X-334224Y-1454500D01*
X-551120Y-1376196D02*
X-537815Y-1389500D01*
X-575000Y-1346195D02*
X-551120Y-1370076D01*
X-575000Y-1346195D02*
Y-1265000D01*
X-3568010Y-1459500D02*
X-3535510Y-1492000D01*
X-3890000Y-1623990D02*
X-3851010Y-1585000D01*
X-3644405D01*
X-3890000Y-1910000D02*
X-3871776Y-1928225D01*
X-3744490D01*
X-4170999Y-1919501D02*
X-4135510Y-1954989D01*
X-4309303Y-2488027D02*
X-4135510Y-2314235D01*
Y-1954989D01*
X-4285510Y-1919501D02*
X-4170999D01*
X-3890000Y-1910000D02*
Y-1623990D01*
X-4342292Y-2488027D02*
X-4309303D01*
X-4357760Y-2180916D02*
X-4288650D01*
X-4358676Y-2180000D02*
X-4357760Y-2180916D01*
X-3535510Y-1507000D02*
Y-1492000D01*
X-3816120Y-1381196D02*
Y-1375076D01*
X-3802815Y-1394500D02*
X-3664224D01*
X-3599224Y-1459500D01*
X-3816120Y-1381196D02*
X-3802815Y-1394500D01*
X-3737759Y-1648500D02*
X-3544511D01*
X-3598905Y-1539500D02*
X-3568010D01*
X-3599224Y-1459500D02*
X-3568010D01*
X-3544511Y-1648500D02*
X-3535510Y-1639500D01*
X-3568010Y-1539500D02*
X-3535510Y-1507000D01*
X-3644405Y-1585000D02*
X-3598905Y-1539500D01*
X-3840000Y-1351196D02*
Y-1270000D01*
Y-1351196D02*
X-3816120Y-1375076D01*
X-4474776Y-2055225D02*
X-4285510D01*
X-4398000Y-2543735D02*
X-4342292Y-2488027D01*
D46*
X-330000Y535941D02*
X-325000Y530941D01*
Y475011D02*
Y530941D01*
X-330000Y535941D02*
Y540000D01*
X-1212710Y724999D02*
X-1039643D01*
X-1299999Y499999D02*
Y580001D01*
X-325000Y475011D02*
X-204985D01*
X-1099998Y624998D02*
X-1024998D01*
X-1075011Y475011D02*
X-1025000Y425000D01*
X-1174985Y475011D02*
X-1075011D01*
X-1024998Y624998D02*
Y710354D01*
X-1039643Y724999D02*
X-1024998Y710354D01*
X-1299999Y499999D02*
X-1275011Y475011D01*
X-1174985D01*
D47*
X-2126215Y-1550000D02*
X-1975000D01*
X-1800000D02*
Y-1351030D01*
X-1975000Y-1550000D02*
X-1800000D01*
X-3618998Y-2777003D02*
X-2825000D01*
X-3150002Y-2684997D02*
X-2825003D01*
X-1023650Y-2175916D02*
X-1022734Y-2175000D01*
X-1225000D02*
X-1093676D01*
X-3744490Y-2055225D02*
X-3743181Y-2053916D01*
X-3606416D01*
X-3545000Y-1992500D01*
X2770510Y-2050224D02*
X2899776D01*
X2970000Y-1980000D01*
X-341416Y-2048916D02*
X-280000Y-1987500D01*
X-478181Y-2048916D02*
X-341416D01*
X-479490Y-2050224D02*
X-478181Y-2048916D01*
X-4485638Y-2044362D02*
X-4485638D01*
X-4490000Y-2040000D02*
X-4485638Y-2044362D01*
X-4490000Y-2048724D02*
X-4475000Y-2033724D01*
X2018724Y-2050000D02*
X2025000Y-2043724D01*
X2040225Y-2050224D02*
X2229490D01*
X2450000Y-2422703D02*
Y-1835010D01*
X2385490Y-1770500D02*
X2450000Y-1835010D01*
X2377491Y-2495212D02*
X2450000Y-2422703D01*
X2377491Y-2512503D02*
Y-2495212D01*
X2222759Y-1770500D02*
X2385490D01*
X2612223Y-1516500D02*
X2777241D01*
X2625000Y-2538724D02*
Y-2503559D01*
X2550000Y-1578723D02*
X2612223Y-1516500D01*
X2550000Y-2428559D02*
X2625000Y-2503559D01*
X2550000Y-2428559D02*
Y-1578723D01*
X2200012Y550012D02*
X2449995D01*
X2200000Y550000D02*
X2200012Y550012D01*
X-1092760Y-2175916D02*
X-1023650D01*
X-1093676Y-2175000D02*
X-1092760Y-2175916D01*
X-1209776Y-2050224D02*
X-1020510D01*
X-637777Y-1516500D02*
X-472759D01*
X-625000Y-2538724D02*
Y-2503559D01*
X-700000Y-1578723D02*
X-637777Y-1516500D01*
X-700000Y-2428559D02*
Y-1578723D01*
Y-2428559D02*
X-625000Y-2503559D01*
X-800000Y-2422703D02*
Y-1835010D01*
X-864510Y-1770500D02*
X-800000Y-1835010D01*
X-872509Y-2495212D02*
X-800000Y-2422703D01*
X-872509Y-2512503D02*
Y-2495212D01*
X-1027241Y-1770500D02*
X-864510D01*
X-3902778Y-1521500D02*
X-3737759D01*
X-3965000Y-1583723D02*
X-3902778Y-1521500D01*
X-3965000Y-2433559D02*
Y-1583723D01*
X-3890000Y-2543724D02*
Y-2508559D01*
X-3965000Y-2433559D02*
X-3890000Y-2508559D01*
X-4137509Y-2517503D02*
Y-2500212D01*
X-4129510Y-1775500D02*
X-4065000Y-1840010D01*
X-4137509Y-2500212D02*
X-4065000Y-2427704D01*
Y-1840010D01*
X-4292241Y-1775500D02*
X-4129510D01*
D48*
X988708Y923917D02*
D03*
X1853705D02*
D03*
D49*
X988708Y503903D02*
D03*
X1853705D02*
D03*
D50*
X2118998Y-2777003D02*
D03*
Y-2523003D02*
D03*
X2372998Y-2777003D02*
D03*
Y-2523003D02*
D03*
X2626998Y-2777003D02*
D03*
Y-2523003D02*
D03*
X2880998D02*
D03*
X-369004D02*
D03*
X-623004D02*
D03*
Y-2777003D02*
D03*
X-877004Y-2523003D02*
D03*
Y-2777003D02*
D03*
X-1131004Y-2523003D02*
D03*
Y-2777003D02*
D03*
X-3619001Y-2523003D02*
D03*
X-3873001D02*
D03*
Y-2777003D02*
D03*
X-4127001Y-2523003D02*
D03*
Y-2777003D02*
D03*
X-4381001Y-2523003D02*
D03*
Y-2777003D02*
D03*
D51*
X2880998D02*
D03*
X-369004D02*
D03*
X-3619001D02*
D03*
D52*
X2200000Y550000D02*
D03*
Y804000D02*
D03*
X654000Y850000D02*
D03*
X400000Y596000D02*
D03*
Y850000D02*
D03*
X146000Y596000D02*
D03*
Y850000D02*
D03*
D53*
X2200000Y296000D02*
D03*
D54*
X654000Y596000D02*
D03*
D55*
X-3950000Y-700028D02*
D03*
Y-450013D02*
D03*
Y-200029D02*
D03*
Y599987D02*
D03*
Y349972D02*
D03*
Y849971D02*
D03*
X2450000Y800034D02*
D03*
Y550025D02*
D03*
Y300013D02*
D03*
Y50023D02*
D03*
Y-199986D02*
D03*
Y-449976D02*
D03*
D56*
X-1326716Y350000D02*
D03*
X475000Y-300000D02*
D03*
X-1750000Y-150000D02*
D03*
Y-25000D02*
D03*
X525000Y-225000D02*
D03*
X-875000Y450000D02*
D03*
X-1450000Y650000D02*
D03*
X-775000Y100000D02*
D03*
X525000Y-125000D02*
D03*
X-975000Y125000D02*
D03*
X-1050000Y175000D02*
D03*
Y75000D02*
D03*
X125000Y100000D02*
D03*
X-725000Y50000D02*
D03*
X-675000Y0D02*
D03*
X-625000Y-50000D02*
D03*
X-575000Y-100000D02*
D03*
X1140000Y-600000D02*
D03*
Y-460000D02*
D03*
Y-290000D02*
D03*
X1130000Y-160000D02*
D03*
X-330000Y540000D02*
D03*
X-410000Y-230000D02*
D03*
X-2225000Y475000D02*
D03*
X-3431962Y-985000D02*
D03*
X-3425000Y-1200000D02*
D03*
X-1500000Y-325000D02*
D03*
X-1350000Y-675000D02*
D03*
X-425000Y425000D02*
D03*
X-950000Y750000D02*
D03*
X-1149999Y850001D02*
D03*
X-1319998Y794998D02*
D03*
X-1720002Y645002D02*
D03*
X-2000000Y325000D02*
D03*
X-1400000Y250000D02*
D03*
X-650000Y-400000D02*
D03*
X-300000Y-175000D02*
D03*
X-245002Y645002D02*
D03*
X675000Y-425000D02*
D03*
X775000D02*
D03*
Y-325000D02*
D03*
X675000D02*
D03*
X1275000Y-1375000D02*
D03*
Y-1475000D02*
D03*
X1125000D02*
D03*
X950000Y-1775000D02*
D03*
X-1099998Y624998D02*
D03*
X-1025000Y425000D02*
D03*
X875000Y-125000D02*
D03*
X-2725000Y425000D02*
D03*
X-2625000Y375000D02*
D03*
X450000Y125000D02*
D03*
X275000D02*
D03*
Y-100000D02*
D03*
X125000Y-50000D02*
D03*
X300000Y-500000D02*
D03*
X175000Y-575000D02*
D03*
X-1300000Y425000D02*
D03*
X-1925000Y525000D02*
D03*
X-925000D02*
D03*
X-875000Y-725000D02*
D03*
X-175000Y-800000D02*
D03*
X-1250000D02*
D03*
X-1175000Y-650000D02*
D03*
X-925000Y-575000D02*
D03*
X-25000Y-650000D02*
D03*
X-950000Y-875000D02*
D03*
X-1100000D02*
D03*
X-225000Y-375000D02*
D03*
X-1450000Y-450000D02*
D03*
X-75000D02*
D03*
X-975000Y-500000D02*
D03*
D57*
X-2540000Y-2680000D02*
D03*
X-3110000Y200000D02*
D03*
X1930000Y-2050000D02*
D03*
X790000Y-2510000D02*
D03*
X-280000Y-2080000D02*
D03*
X-1320000Y-2050000D02*
D03*
Y-2190000D02*
D03*
X-3500000Y-2090000D02*
D03*
X-3600000Y-2200000D02*
D03*
X-3620000Y-1830000D02*
D03*
X-3780000D02*
D03*
X-3700000D02*
D03*
X-3620000Y-1760000D02*
D03*
X-3780000D02*
D03*
X-3700000D02*
D03*
X-3540000D02*
D03*
Y-1830000D02*
D03*
X2970000D02*
D03*
X2890000D02*
D03*
X2730000D02*
D03*
X2810000D02*
D03*
X2890000Y-1760000D02*
D03*
X2730000D02*
D03*
X2810000D02*
D03*
X2970000D02*
D03*
X-370000Y-1830000D02*
D03*
X-530000D02*
D03*
X-450000D02*
D03*
X-370000Y-1760000D02*
D03*
X-530000D02*
D03*
X-450000D02*
D03*
X-290000D02*
D03*
Y-1830000D02*
D03*
X-150000Y-2450000D02*
D03*
X-1475000Y825000D02*
D03*
X1125000Y-1750000D02*
D03*
X1275000Y-1600000D02*
D03*
X1125000D02*
D03*
X1325000Y-2150000D02*
D03*
Y-2050000D02*
D03*
X1425000Y-2150000D02*
D03*
Y-2050000D02*
D03*
X2025000Y-2300000D02*
D03*
X1050000Y-1875000D02*
D03*
X-3300000Y-2200000D02*
D03*
X-2270000Y-1580000D02*
D03*
X-2150000Y-1460000D02*
D03*
X-2270000D02*
D03*
X-2150000Y-1340000D02*
D03*
X-2270000D02*
D03*
X-1900000Y-2260000D02*
D03*
X-1810000Y-2200000D02*
D03*
X-1980000D02*
D03*
X560000Y-2740000D02*
D03*
Y-2850000D02*
D03*
X510000Y-2510000D02*
D03*
Y-2400000D02*
D03*
X630000Y-2290000D02*
D03*
X530000D02*
D03*
X430000D02*
D03*
X330000D02*
D03*
X230000D02*
D03*
X-4460000Y-1650000D02*
D03*
X-4145000Y-1645000D02*
D03*
X-4540000Y-1650000D02*
D03*
Y-1750000D02*
D03*
Y-1550000D02*
D03*
X-1175000Y-1645000D02*
D03*
X-880000Y-1640000D02*
D03*
X-1280000Y-1650000D02*
D03*
Y-1750000D02*
D03*
Y-1550000D02*
D03*
X1960000D02*
D03*
Y-1750000D02*
D03*
Y-1650000D02*
D03*
X2370000Y-1640000D02*
D03*
X2060000Y-1650000D02*
D03*
X3010000Y-2120000D02*
D03*
X2920000Y-2220000D02*
D03*
X-300000Y-2225000D02*
D03*
X-3544997Y225000D02*
D03*
X-3100000Y-350000D02*
D03*
X-1019260Y-1255740D02*
D03*
X-4275000Y-1275000D02*
D03*
X-4475000Y-1950000D02*
D03*
X-1825000Y-2550000D02*
D03*
X-1975000D02*
D03*
X-1925000Y-2700000D02*
D03*
X-2625000Y-2275000D02*
D03*
Y-2200000D02*
D03*
X-2450000Y-2300000D02*
D03*
X-2250000D02*
D03*
Y-2175000D02*
D03*
X-2450000D02*
D03*
X-1680003Y-2019997D02*
D03*
X1650001Y-1450001D02*
D03*
X2235000Y-1265000D02*
D03*
X1659767Y-2760233D02*
D03*
X315235Y-2855235D02*
D03*
X620000Y-1650000D02*
D03*
X940000Y-1540000D02*
D03*
X1750000Y250000D02*
D03*
X1000002Y310001D02*
D03*
X-4490000Y-2285000D02*
D03*
%TF.MD5,bca10f64fc87bde1e25cf9bdc6db154c*%
M02*
