%TF.GenerationSoftware,Altium Limited,Altium Designer,24.0.1 (36)*%
G04 Layer_Color=16711935*
%FSLAX45Y45*%
%MOMM*%
%TF.SameCoordinates,1D19F893-C717-4D0B-B0CE-957F46A24576*%
%TF.FilePolarity,Negative*%
%TF.FileFunction,Soldermask,Bot*%
%TF.Part,Single*%
G01*
G75*
%TA.AperFunction,ComponentPad*%
%ADD108O,1.30002X1.90002*%
%ADD109O,1.20002X2.10002*%
%ADD110C,2.00320*%
%ADD111R,2.00320X2.00320*%
%ADD112C,1.95320*%
%ADD113R,1.95320X1.95320*%
%ADD114R,1.95320X1.95320*%
%ADD115C,1.60002*%
%TA.AperFunction,ViaPad*%
%ADD116C,0.20320*%
%ADD117C,0.70320*%
%ADD118C,0.80320*%
D108*
X988708Y923917D02*
D03*
X1853705D02*
D03*
D109*
X988708Y503903D02*
D03*
X1853705D02*
D03*
D110*
X2118998Y-2777003D02*
D03*
Y-2523003D02*
D03*
X2372998Y-2777003D02*
D03*
Y-2523003D02*
D03*
X2626998Y-2777003D02*
D03*
Y-2523003D02*
D03*
X2880998D02*
D03*
X-369004D02*
D03*
X-623004D02*
D03*
Y-2777003D02*
D03*
X-877004Y-2523003D02*
D03*
Y-2777003D02*
D03*
X-1131004Y-2523003D02*
D03*
Y-2777003D02*
D03*
X-3619001Y-2523003D02*
D03*
X-3873001D02*
D03*
Y-2777003D02*
D03*
X-4127001Y-2523003D02*
D03*
Y-2777003D02*
D03*
X-4381001Y-2523003D02*
D03*
Y-2777003D02*
D03*
D111*
X2880998D02*
D03*
X-369004D02*
D03*
X-3619001D02*
D03*
D112*
X2200000Y550000D02*
D03*
Y804000D02*
D03*
X654000Y850000D02*
D03*
X400000Y596000D02*
D03*
Y850000D02*
D03*
X146000Y596000D02*
D03*
Y850000D02*
D03*
D113*
X2200000Y296000D02*
D03*
D114*
X654000Y596000D02*
D03*
D115*
X-3950000Y-700028D02*
D03*
Y-450013D02*
D03*
Y-200029D02*
D03*
Y599987D02*
D03*
Y349972D02*
D03*
Y849971D02*
D03*
X2450000Y800034D02*
D03*
Y550025D02*
D03*
Y300013D02*
D03*
Y50023D02*
D03*
Y-199986D02*
D03*
Y-449976D02*
D03*
D116*
X-2270000Y-410000D02*
D03*
X1730000D02*
D03*
D117*
X-1326716Y350000D02*
D03*
X475000Y-300000D02*
D03*
X-1750000Y-150000D02*
D03*
Y-25000D02*
D03*
X525000Y-225000D02*
D03*
X-875000Y450000D02*
D03*
X-1450000Y650000D02*
D03*
X-775000Y100000D02*
D03*
X525000Y-125000D02*
D03*
X-975000Y125000D02*
D03*
X-1050000Y175000D02*
D03*
Y75000D02*
D03*
X125000Y100000D02*
D03*
X-725000Y50000D02*
D03*
X-675000Y0D02*
D03*
X-625000Y-50000D02*
D03*
X-575000Y-100000D02*
D03*
X1140000Y-600000D02*
D03*
Y-460000D02*
D03*
Y-290000D02*
D03*
X1130000Y-160000D02*
D03*
X-330000Y540000D02*
D03*
X-410000Y-230000D02*
D03*
X-2225000Y475000D02*
D03*
X-3431962Y-985000D02*
D03*
X-3425000Y-1200000D02*
D03*
X-1500000Y-325000D02*
D03*
X-1350000Y-675000D02*
D03*
X-425000Y425000D02*
D03*
X-950000Y750000D02*
D03*
X-1149999Y850001D02*
D03*
X-1319998Y794998D02*
D03*
X-1720002Y645002D02*
D03*
X-2000000Y325000D02*
D03*
X-1400000Y250000D02*
D03*
X-650000Y-400000D02*
D03*
X-300000Y-175000D02*
D03*
X-245002Y645002D02*
D03*
X675000Y-425000D02*
D03*
X775000D02*
D03*
Y-325000D02*
D03*
X675000D02*
D03*
X1275000Y-1375000D02*
D03*
Y-1475000D02*
D03*
X1125000D02*
D03*
X950000Y-1775000D02*
D03*
X-1099998Y624998D02*
D03*
X-1025000Y425000D02*
D03*
X875000Y-125000D02*
D03*
X-2725000Y425000D02*
D03*
X-2625000Y375000D02*
D03*
X450000Y125000D02*
D03*
X275000D02*
D03*
Y-100000D02*
D03*
X125000Y-50000D02*
D03*
X300000Y-500000D02*
D03*
X175000Y-575000D02*
D03*
X-1300000Y425000D02*
D03*
X-1925000Y525000D02*
D03*
X-925000D02*
D03*
X-875000Y-725000D02*
D03*
X-175000Y-800000D02*
D03*
X-1250000D02*
D03*
X-1175000Y-650000D02*
D03*
X-925000Y-575000D02*
D03*
X-25000Y-650000D02*
D03*
X-950000Y-875000D02*
D03*
X-1100000D02*
D03*
X-225000Y-375000D02*
D03*
X-1450000Y-450000D02*
D03*
X-75000D02*
D03*
X-975000Y-500000D02*
D03*
D118*
X-2540000Y-2680000D02*
D03*
X-3110000Y200000D02*
D03*
X1930000Y-2050000D02*
D03*
X790000Y-2510000D02*
D03*
X-280000Y-2080000D02*
D03*
X-1320000Y-2050000D02*
D03*
Y-2190000D02*
D03*
X-3500000Y-2090000D02*
D03*
X-3600000Y-2200000D02*
D03*
X-3620000Y-1830000D02*
D03*
X-3780000D02*
D03*
X-3700000D02*
D03*
X-3620000Y-1760000D02*
D03*
X-3780000D02*
D03*
X-3700000D02*
D03*
X-3540000D02*
D03*
Y-1830000D02*
D03*
X2970000D02*
D03*
X2890000D02*
D03*
X2730000D02*
D03*
X2810000D02*
D03*
X2890000Y-1760000D02*
D03*
X2730000D02*
D03*
X2810000D02*
D03*
X2970000D02*
D03*
X-370000Y-1830000D02*
D03*
X-530000D02*
D03*
X-450000D02*
D03*
X-370000Y-1760000D02*
D03*
X-530000D02*
D03*
X-450000D02*
D03*
X-290000D02*
D03*
Y-1830000D02*
D03*
X-150000Y-2450000D02*
D03*
X-1475000Y825000D02*
D03*
X1125000Y-1750000D02*
D03*
X1275000Y-1600000D02*
D03*
X1125000D02*
D03*
X1325000Y-2150000D02*
D03*
Y-2050000D02*
D03*
X1425000Y-2150000D02*
D03*
Y-2050000D02*
D03*
X2025000Y-2300000D02*
D03*
X1050000Y-1875000D02*
D03*
X-3300000Y-2200000D02*
D03*
X-2270000Y-1580000D02*
D03*
X-2150000Y-1460000D02*
D03*
X-2270000D02*
D03*
X-2150000Y-1340000D02*
D03*
X-2270000D02*
D03*
X-1900000Y-2260000D02*
D03*
X-1810000Y-2200000D02*
D03*
X-1980000D02*
D03*
X560000Y-2740000D02*
D03*
Y-2850000D02*
D03*
X510000Y-2510000D02*
D03*
Y-2400000D02*
D03*
X630000Y-2290000D02*
D03*
X530000D02*
D03*
X430000D02*
D03*
X330000D02*
D03*
X230000D02*
D03*
X-4460000Y-1650000D02*
D03*
X-4145000Y-1645000D02*
D03*
X-4540000Y-1650000D02*
D03*
Y-1750000D02*
D03*
Y-1550000D02*
D03*
X-1175000Y-1645000D02*
D03*
X-880000Y-1640000D02*
D03*
X-1280000Y-1650000D02*
D03*
Y-1750000D02*
D03*
Y-1550000D02*
D03*
X1960000D02*
D03*
Y-1750000D02*
D03*
Y-1650000D02*
D03*
X2370000Y-1640000D02*
D03*
X2060000Y-1650000D02*
D03*
X3010000Y-2120000D02*
D03*
X2920000Y-2220000D02*
D03*
X-300000Y-2225000D02*
D03*
X-3544997Y225000D02*
D03*
X-3100000Y-350000D02*
D03*
X-1019260Y-1255740D02*
D03*
X-4275000Y-1275000D02*
D03*
X-4475000Y-1950000D02*
D03*
X-1825000Y-2550000D02*
D03*
X-1975000D02*
D03*
X-1925000Y-2700000D02*
D03*
X-2625000Y-2275000D02*
D03*
Y-2200000D02*
D03*
X-2450000Y-2300000D02*
D03*
X-2250000D02*
D03*
Y-2175000D02*
D03*
X-2450000D02*
D03*
X-1680003Y-2019997D02*
D03*
X1650001Y-1450001D02*
D03*
X2235000Y-1265000D02*
D03*
X1659767Y-2760233D02*
D03*
X315235Y-2855235D02*
D03*
X620000Y-1650000D02*
D03*
X940000Y-1540000D02*
D03*
X1750000Y250000D02*
D03*
X1000002Y310001D02*
D03*
X-4490000Y-2285000D02*
D03*
%TF.MD5,7a93f00b58c732ba78cfced439ce10b9*%
M02*
