%TF.GenerationSoftware,Altium Limited,Altium Designer,24.0.1 (36)*%
G04 Layer_Physical_Order=4*
G04 Layer_Color=16711680*
%FSLAX45Y45*%
%MOMM*%
%TF.SameCoordinates,1D19F893-C717-4D0B-B0CE-957F46A24576*%
%TF.FilePolarity,Positive*%
%TF.FileFunction,Copper,L4,Bot,Signal*%
%TF.Part,Single*%
G01*
G75*
%TA.AperFunction,Conductor*%
%ADD44C,0.20000*%
%ADD45C,0.30000*%
%TA.AperFunction,ComponentPad*%
%ADD48O,1.20000X1.80000*%
%ADD49O,1.10000X2.00000*%
%ADD50C,1.80000*%
%ADD51R,1.80000X1.80000*%
%ADD52C,1.75000*%
%ADD53R,1.75000X1.75000*%
%ADD54R,1.75000X1.75000*%
%ADD55C,1.50000*%
%TA.AperFunction,ViaPad*%
%ADD56C,0.50000*%
%ADD57C,0.60000*%
G36*
X3200000Y-2975000D02*
X-4675000D01*
Y1075000D01*
X3200000D01*
Y-2975000D01*
D02*
G37*
%LPC*%
G36*
X755345Y1030588D02*
X755344Y1030588D01*
X-1299999D01*
X-1300000Y1030588D01*
X-1311705Y1028259D01*
X-1321629Y1021629D01*
X-1321629Y1021628D01*
X-1473258Y870000D01*
X-1483951D01*
X-1500491Y863149D01*
X-1513149Y850490D01*
X-1520000Y833951D01*
Y816049D01*
X-1513149Y799509D01*
X-1500491Y786851D01*
X-1483951Y780000D01*
X-1466049D01*
X-1449510Y786851D01*
X-1436851Y799509D01*
X-1430000Y816049D01*
Y826742D01*
X-1287330Y969412D01*
X742675D01*
X929800Y782288D01*
X929801Y782287D01*
X939724Y775657D01*
X951430Y773328D01*
X951431Y773328D01*
X2102103D01*
X2104485Y764436D01*
X2117980Y741064D01*
X2137064Y721980D01*
X2160436Y708485D01*
X2186506Y701500D01*
X2213494D01*
X2239563Y708485D01*
X2262936Y721980D01*
X2282020Y741064D01*
X2295515Y764436D01*
X2302500Y790506D01*
Y817494D01*
X2295515Y843563D01*
X2282020Y866936D01*
X2262936Y886020D01*
X2239563Y899515D01*
X2213494Y906500D01*
X2186506D01*
X2160436Y899515D01*
X2137064Y886020D01*
X2117980Y866936D01*
X2104485Y843563D01*
X2102058Y834504D01*
X964099D01*
X776974Y1021629D01*
X767051Y1028259D01*
X755345Y1030588D01*
D02*
G37*
G36*
X667494Y952500D02*
X640506D01*
X614436Y945515D01*
X591064Y932020D01*
X571980Y912936D01*
X558485Y889564D01*
X551500Y863494D01*
Y836506D01*
X558485Y810437D01*
X571980Y787064D01*
X591064Y767980D01*
X614436Y754485D01*
X640506Y747500D01*
X667494D01*
X693564Y754485D01*
X716936Y767980D01*
X736020Y787064D01*
X749515Y810437D01*
X756500Y836506D01*
Y863494D01*
X749515Y889564D01*
X736020Y912936D01*
X716936Y932020D01*
X693564Y945515D01*
X667494Y952500D01*
D02*
G37*
G36*
X159494D02*
X132506D01*
X106436Y945515D01*
X83064Y932020D01*
X63980Y912936D01*
X50485Y889564D01*
X43500Y863494D01*
Y836506D01*
X50485Y810437D01*
X63980Y787064D01*
X83064Y767980D01*
X106436Y754485D01*
X132506Y747500D01*
X159494D01*
X185564Y754485D01*
X208936Y767980D01*
X228020Y787064D01*
X241515Y810437D01*
X248500Y836506D01*
Y863494D01*
X241515Y889564D01*
X228020Y912936D01*
X208936Y932020D01*
X185564Y945515D01*
X159494Y952500D01*
D02*
G37*
G36*
X1703311Y606526D02*
X1700360Y605303D01*
X1697166Y605318D01*
X1684429Y600110D01*
X1682160Y597862D01*
X1679198Y596666D01*
X1669380Y587025D01*
X1668132Y584085D01*
X1665842Y581857D01*
X1660404Y569217D01*
X1660361Y566024D01*
X1659085Y563095D01*
X1658961Y556217D01*
X1659019Y556069D01*
X1658958Y555922D01*
X1659018Y555776D01*
X1658961Y555629D01*
X1659085Y548750D01*
X1660360Y545822D01*
X1660403Y542628D01*
X1665840Y529987D01*
X1668130Y527759D01*
X1669378Y524819D01*
X1679196Y515178D01*
X1682157Y513982D01*
X1684426Y511733D01*
X1697162Y506525D01*
X1700357Y506539D01*
X1703308Y505316D01*
X1717068Y505316D01*
X1720019Y506538D01*
X1723213Y506524D01*
X1735950Y511732D01*
X1738219Y513980D01*
X1741181Y515175D01*
X1750998Y524817D01*
X1752247Y527756D01*
X1754537Y529984D01*
X1759975Y542624D01*
X1760018Y545818D01*
X1761294Y548746D01*
X1761418Y555625D01*
X1761303Y555918D01*
X1761418Y556213D01*
X1761294Y563092D01*
X1760019Y566020D01*
X1759975Y569214D01*
X1754538Y581854D01*
X1752249Y584082D01*
X1751000Y587022D01*
X1741183Y596664D01*
X1738221Y597860D01*
X1735953Y600108D01*
X1723217Y605317D01*
X1720022Y605303D01*
X1717071Y606525D01*
X1703311Y606526D01*
D02*
G37*
G36*
X1125308D02*
X1122357Y605303D01*
X1119163Y605318D01*
X1106427Y600110D01*
X1104158Y597862D01*
X1101196Y596666D01*
X1091378Y587025D01*
X1090129Y584085D01*
X1087840Y581857D01*
X1082402Y569217D01*
X1082358Y566024D01*
X1081083Y563095D01*
X1080958Y556217D01*
X1081016Y556069D01*
X1080955Y555922D01*
X1081016Y555776D01*
X1080958Y555629D01*
X1081082Y548750D01*
X1082358Y545822D01*
X1082401Y542628D01*
X1087838Y529987D01*
X1090127Y527759D01*
X1091376Y524819D01*
X1101193Y515178D01*
X1104155Y513982D01*
X1106424Y511733D01*
X1119160Y506525D01*
X1122354Y506539D01*
X1125306Y505316D01*
X1139066Y505316D01*
X1142017Y506538D01*
X1145211Y506524D01*
X1157947Y511732D01*
X1160216Y513980D01*
X1163178Y515175D01*
X1172996Y524817D01*
X1174245Y527756D01*
X1176534Y529984D01*
X1181972Y542624D01*
X1182016Y545818D01*
X1183291Y548746D01*
X1183416Y555625D01*
X1183300Y555918D01*
X1183416Y556213D01*
X1183292Y563092D01*
X1182016Y566020D01*
X1181973Y569214D01*
X1176536Y581854D01*
X1174247Y584082D01*
X1172998Y587022D01*
X1163181Y596664D01*
X1160219Y597860D01*
X1157950Y600108D01*
X1145214Y605317D01*
X1142020Y605303D01*
X1139068Y606525D01*
X1125308Y606526D01*
D02*
G37*
G36*
X-1092042Y664998D02*
X-1107955D01*
X-1122656Y658909D01*
X-1133909Y647656D01*
X-1139998Y632955D01*
Y617042D01*
X-1133909Y602340D01*
X-1122656Y591088D01*
X-1107955Y584998D01*
X-1092042D01*
X-1077340Y591088D01*
X-1066088Y602340D01*
X-1059998Y617042D01*
Y632955D01*
X-1066088Y647656D01*
X-1077340Y658909D01*
X-1092042Y664998D01*
D02*
G37*
G36*
X-917043Y565000D02*
X-932956D01*
X-947658Y558910D01*
X-956079Y550490D01*
X-1893921D01*
X-1902342Y558910D01*
X-1917043Y565000D01*
X-1932957D01*
X-1947658Y558910D01*
X-1958910Y547658D01*
X-1965000Y532957D01*
Y517043D01*
X-1963404Y513190D01*
X-1971890Y500490D01*
X-2193921D01*
X-2202342Y508910D01*
X-2217044Y515000D01*
X-2232957D01*
X-2247658Y508910D01*
X-2258910Y497658D01*
X-2265000Y482957D01*
Y467044D01*
X-2263404Y463190D01*
X-2271890Y450490D01*
X-2693921D01*
X-2702342Y458910D01*
X-2717043Y465000D01*
X-2732956D01*
X-2747658Y458910D01*
X-2758910Y447658D01*
X-2765000Y432956D01*
Y417043D01*
X-2758910Y402342D01*
X-2747658Y391090D01*
X-2732956Y385000D01*
X-2717043D01*
X-2702342Y391090D01*
X-2693921Y399510D01*
X-2671890D01*
X-2663404Y386810D01*
X-2665000Y382957D01*
Y367043D01*
X-2658910Y352342D01*
X-2647658Y341090D01*
X-2632957Y335000D01*
X-2617044D01*
X-2602342Y341090D01*
X-2593921Y349510D01*
X-1366716D01*
Y342044D01*
X-1360626Y327342D01*
X-1349374Y316090D01*
X-1334672Y310000D01*
X-1318759D01*
X-1304058Y316090D01*
X-1292805Y327342D01*
X-1286716Y342044D01*
Y357957D01*
X-1292805Y372658D01*
X-1292636Y375396D01*
X-1288609Y386423D01*
X-1277342Y391090D01*
X-1266090Y402342D01*
X-1260000Y417043D01*
Y432956D01*
X-1261596Y436810D01*
X-1253111Y449510D01*
X-1071889D01*
X-1063404Y436810D01*
X-1065000Y432956D01*
Y417043D01*
X-1058910Y402342D01*
X-1047658Y391090D01*
X-1032957Y385000D01*
X-1017043D01*
X-1002342Y391090D01*
X-991090Y402342D01*
X-985000Y417043D01*
Y432956D01*
X-986596Y436810D01*
X-978111Y449510D01*
X-918676D01*
X-915000Y445835D01*
Y442044D01*
X-908910Y427342D01*
X-897658Y416090D01*
X-882957Y410000D01*
X-867043D01*
X-852342Y416090D01*
X-841090Y427342D01*
X-835000Y442044D01*
Y457957D01*
X-841090Y472658D01*
X-852342Y483910D01*
X-867043Y490000D01*
X-882956D01*
X-890894Y500360D01*
X-891090Y502342D01*
X-885000Y517043D01*
Y532957D01*
X-891090Y547658D01*
X-902342Y558910D01*
X-917043Y565000D01*
D02*
G37*
G36*
X-3938151Y689987D02*
X-3961849D01*
X-3984739Y683854D01*
X-4005261Y672005D01*
X-4022018Y655248D01*
X-4033866Y634726D01*
X-4040000Y611836D01*
Y588139D01*
X-4033866Y565249D01*
X-4022018Y544726D01*
X-4005261Y527969D01*
X-3984739Y516121D01*
X-3961849Y509987D01*
X-3938151D01*
X-3915261Y516121D01*
X-3894739Y527969D01*
X-3877982Y544726D01*
X-3866133Y565249D01*
X-3860000Y588139D01*
Y611836D01*
X-3866133Y634726D01*
X-3877982Y655248D01*
X-3894739Y672005D01*
X-3915261Y683854D01*
X-3938151Y689987D01*
D02*
G37*
G36*
X-322044Y580000D02*
X-337957D01*
X-352658Y573910D01*
X-363910Y562658D01*
X-370000Y547956D01*
Y532043D01*
X-363910Y517342D01*
X-352658Y506090D01*
X-337957Y500000D01*
X-322044D01*
X-307342Y506090D01*
X-296090Y517342D01*
X-290000Y532043D01*
Y547956D01*
X-296090Y562658D01*
X-307342Y573910D01*
X-322044Y580000D01*
D02*
G37*
G36*
X413494Y698500D02*
X386506D01*
X360436Y691515D01*
X337064Y678020D01*
X317980Y658936D01*
X304485Y635564D01*
X297500Y609494D01*
Y582506D01*
X304485Y556437D01*
X317980Y533064D01*
X337064Y513980D01*
X360436Y500485D01*
X386506Y493500D01*
X413494D01*
X439564Y500485D01*
X462936Y513980D01*
X482020Y533064D01*
X495515Y556437D01*
X502500Y582506D01*
Y609494D01*
X495515Y635564D01*
X482020Y658936D01*
X462936Y678020D01*
X439564Y691515D01*
X413494Y698500D01*
D02*
G37*
G36*
X159494D02*
X132506D01*
X106436Y691515D01*
X83064Y678020D01*
X63980Y658936D01*
X50485Y635564D01*
X43500Y609494D01*
Y582506D01*
X50485Y556437D01*
X63980Y533064D01*
X83064Y513980D01*
X106436Y500485D01*
X132506Y493500D01*
X159494D01*
X185564Y500485D01*
X208936Y513980D01*
X228020Y533064D01*
X241515Y556437D01*
X248500Y582506D01*
Y609494D01*
X241515Y635564D01*
X228020Y658936D01*
X208936Y678020D01*
X185564Y691515D01*
X159494Y698500D01*
D02*
G37*
G36*
X2461849Y640025D02*
X2438152D01*
X2415262Y633891D01*
X2394739Y622042D01*
X2377983Y605286D01*
X2366134Y584763D01*
X2360000Y561873D01*
Y538176D01*
X2366134Y515286D01*
X2377983Y494764D01*
X2394739Y478007D01*
X2415262Y466158D01*
X2438152Y460025D01*
X2461849D01*
X2484739Y466158D01*
X2505261Y478007D01*
X2522018Y494764D01*
X2533867Y515286D01*
X2540000Y538176D01*
Y561873D01*
X2533867Y584763D01*
X2522018Y605286D01*
X2505261Y622042D01*
X2484739Y633891D01*
X2461849Y640025D01*
D02*
G37*
G36*
X2213494Y652500D02*
X2186506D01*
X2160436Y645515D01*
X2137064Y632020D01*
X2117980Y612936D01*
X2104485Y589563D01*
X2097500Y563494D01*
Y536506D01*
X2104485Y510436D01*
X2117980Y487064D01*
X2137064Y467980D01*
X2160436Y454485D01*
X2186506Y447500D01*
X2213494D01*
X2239563Y454485D01*
X2262936Y467980D01*
X2282020Y487064D01*
X2295515Y510436D01*
X2302500Y536506D01*
Y563494D01*
X2295515Y589563D01*
X2282020Y612936D01*
X2262936Y632020D01*
X2239563Y645515D01*
X2213494Y652500D01*
D02*
G37*
G36*
X-3938151Y439972D02*
X-3961849D01*
X-3984739Y433839D01*
X-4005261Y421990D01*
X-4022018Y405233D01*
X-4033866Y384711D01*
X-4040000Y361821D01*
Y338124D01*
X-4033866Y315234D01*
X-4022018Y294711D01*
X-4005261Y277955D01*
X-3984739Y266106D01*
X-3961849Y259973D01*
X-3938151D01*
X-3915261Y266106D01*
X-3894739Y277955D01*
X-3877982Y294711D01*
X-3866133Y315234D01*
X-3860000Y338124D01*
Y361821D01*
X-3866133Y384711D01*
X-3877982Y405233D01*
X-3894739Y421990D01*
X-3915261Y433839D01*
X-3938151Y439972D01*
D02*
G37*
G36*
X2461849Y390012D02*
X2438152D01*
X2415262Y383879D01*
X2394739Y372030D01*
X2377983Y355274D01*
X2366134Y334751D01*
X2360000Y311861D01*
Y288164D01*
X2366134Y265274D01*
X2377983Y244752D01*
X2394739Y227995D01*
X2415262Y216146D01*
X2438152Y210013D01*
X2461849D01*
X2484739Y216146D01*
X2505261Y227995D01*
X2522018Y244752D01*
X2533867Y265274D01*
X2540000Y288164D01*
Y311861D01*
X2533867Y334751D01*
X2522018Y355274D01*
X2505261Y372030D01*
X2484739Y383879D01*
X2461849Y390012D01*
D02*
G37*
G36*
X756500Y698500D02*
X551500D01*
Y529548D01*
X222442Y200490D01*
X-1018921D01*
X-1027342Y208910D01*
X-1042043Y215000D01*
X-1057956D01*
X-1072658Y208910D01*
X-1083910Y197658D01*
X-1090000Y182956D01*
Y167043D01*
X-1083910Y152342D01*
X-1072658Y141090D01*
X-1057956Y135000D01*
X-1042043D01*
X-1027342Y141090D01*
X-1018921Y149510D01*
X-793184D01*
X-790657Y136810D01*
X-797658Y133910D01*
X-808910Y122658D01*
X-815000Y107957D01*
Y92044D01*
X-808910Y77342D01*
X-797658Y66090D01*
X-782957Y60000D01*
X-776733D01*
X-766740Y58259D01*
X-765000Y48267D01*
Y42043D01*
X-758910Y27342D01*
X-747658Y16090D01*
X-732957Y10000D01*
X-726733D01*
X-716741Y8260D01*
X-715000Y-1733D01*
Y-7957D01*
X-708910Y-22658D01*
X-697658Y-33910D01*
X-682956Y-40000D01*
X-676733D01*
X-666740Y-41740D01*
X-665000Y-51733D01*
Y-57956D01*
X-658910Y-72658D01*
X-647658Y-83910D01*
X-632957Y-90000D01*
X-626733D01*
X-616740Y-91740D01*
X-615000Y-101733D01*
Y-107957D01*
X-608910Y-122658D01*
X-597658Y-133910D01*
X-582957Y-140000D01*
X-567044D01*
X-552342Y-133910D01*
X-543921Y-125490D01*
X243921D01*
X252342Y-133910D01*
X267043Y-140000D01*
X282957D01*
X297658Y-133910D01*
X308910Y-122658D01*
X315000Y-107957D01*
Y-92044D01*
X308910Y-77342D01*
X297658Y-66090D01*
X282957Y-60000D01*
X267043D01*
X252342Y-66090D01*
X243921Y-74510D01*
X171889D01*
X163404Y-61810D01*
X165000Y-57956D01*
Y-42043D01*
X163404Y-38190D01*
X171890Y-25490D01*
X375000D01*
X384755Y-23549D01*
X393024Y-18024D01*
X468024Y56976D01*
X473549Y65246D01*
X475490Y75000D01*
Y93921D01*
X483910Y102342D01*
X490000Y117043D01*
Y132957D01*
X483910Y147658D01*
X472658Y158910D01*
X457957Y165000D01*
X442044D01*
X427342Y158910D01*
X416090Y147658D01*
X410000Y132957D01*
Y117043D01*
X416090Y102342D01*
X424510Y93921D01*
Y85558D01*
X364442Y25490D01*
X279498D01*
X274238Y38190D01*
X293024Y56976D01*
X298549Y65245D01*
X300490Y75000D01*
Y93921D01*
X308910Y102342D01*
X315000Y117043D01*
Y132957D01*
X308910Y147658D01*
X297658Y158910D01*
X282957Y165000D01*
X277008D01*
X271747Y177700D01*
X587548Y493500D01*
X756500D01*
Y698500D01*
D02*
G37*
G36*
X2302500Y398500D02*
X2097500D01*
Y193500D01*
X2302500D01*
Y398500D01*
D02*
G37*
G36*
X-1042043Y115000D02*
X-1057956D01*
X-1072658Y108910D01*
X-1083910Y97658D01*
X-1090000Y82957D01*
Y67044D01*
X-1083910Y52342D01*
X-1072658Y41090D01*
X-1057956Y35000D01*
X-1042043D01*
X-1027342Y41090D01*
X-1016090Y52342D01*
X-1010000Y67044D01*
Y82957D01*
X-1016090Y97658D01*
X-1027342Y108910D01*
X-1042043Y115000D01*
D02*
G37*
G36*
X2461849Y140023D02*
X2438152D01*
X2415262Y133890D01*
X2394739Y122041D01*
X2377983Y105284D01*
X2366134Y84762D01*
X2360000Y61872D01*
Y38175D01*
X2366134Y15285D01*
X2377983Y-5238D01*
X2394739Y-21994D01*
X2415262Y-33843D01*
X2438152Y-39977D01*
X2461849D01*
X2484739Y-33843D01*
X2505261Y-21994D01*
X2522018Y-5238D01*
X2533867Y15285D01*
X2540000Y38175D01*
Y61872D01*
X2533867Y84762D01*
X2522018Y105284D01*
X2505261Y122041D01*
X2484739Y133890D01*
X2461849Y140023D01*
D02*
G37*
G36*
X882957Y-85000D02*
X867043D01*
X852342Y-91090D01*
X841090Y-102342D01*
X835000Y-117043D01*
Y-132957D01*
X841090Y-147658D01*
X852342Y-158910D01*
X867043Y-165000D01*
X882957D01*
X897658Y-158910D01*
X908910Y-147658D01*
X915000Y-132957D01*
Y-117043D01*
X908910Y-102342D01*
X897658Y-91090D01*
X882957Y-85000D01*
D02*
G37*
G36*
X-402043Y-190000D02*
X-417956D01*
X-432658Y-196090D01*
X-443910Y-207342D01*
X-450000Y-222043D01*
Y-237957D01*
X-443910Y-252658D01*
X-432658Y-263910D01*
X-417956Y-270000D01*
X-402043D01*
X-387342Y-263910D01*
X-376090Y-252658D01*
X-370000Y-237957D01*
Y-222043D01*
X-376090Y-207342D01*
X-387342Y-196090D01*
X-402043Y-190000D01*
D02*
G37*
G36*
X2461849Y-109987D02*
X2438152D01*
X2415262Y-116120D01*
X2394739Y-127969D01*
X2377983Y-144725D01*
X2366134Y-165248D01*
X2360000Y-188138D01*
Y-211835D01*
X2366134Y-234725D01*
X2377983Y-255247D01*
X2394739Y-272004D01*
X2415262Y-283853D01*
X2438152Y-289986D01*
X2461849D01*
X2484739Y-283853D01*
X2505261Y-272004D01*
X2522018Y-255247D01*
X2533867Y-234725D01*
X2540000Y-211835D01*
Y-188138D01*
X2533867Y-165248D01*
X2522018Y-144725D01*
X2505261Y-127969D01*
X2484739Y-116120D01*
X2461849Y-109987D01*
D02*
G37*
G36*
X1147957Y-250000D02*
X1132043D01*
X1117342Y-256090D01*
X1106090Y-267342D01*
X1100000Y-282043D01*
Y-297956D01*
X1106090Y-312658D01*
X1117342Y-323910D01*
X1132043Y-330000D01*
X1147957D01*
X1162658Y-323910D01*
X1173910Y-312658D01*
X1180000Y-297956D01*
Y-282043D01*
X1173910Y-267342D01*
X1162658Y-256090D01*
X1147957Y-250000D01*
D02*
G37*
G36*
X-1492043Y-285000D02*
X-1507957D01*
X-1522658Y-291090D01*
X-1533910Y-302342D01*
X-1540000Y-317044D01*
Y-332957D01*
X-1533910Y-347658D01*
X-1522658Y-358910D01*
X-1507957Y-365000D01*
X-1492043D01*
X-1477342Y-358910D01*
X-1468921Y-350490D01*
X-285558D01*
X-265000Y-371048D01*
Y-382957D01*
X-258910Y-397658D01*
X-247658Y-408910D01*
X-240657Y-411810D01*
X-243183Y-424510D01*
X-1418921D01*
X-1427342Y-416090D01*
X-1442043Y-410000D01*
X-1457956D01*
X-1472658Y-416090D01*
X-1483910Y-427342D01*
X-1490000Y-442044D01*
Y-457957D01*
X-1483910Y-472658D01*
X-1472658Y-483910D01*
X-1457956Y-490000D01*
X-1442043D01*
X-1427342Y-483910D01*
X-1418921Y-475490D01*
X-1021890D01*
X-1013404Y-488190D01*
X-1015000Y-492043D01*
Y-507957D01*
X-1008910Y-522658D01*
X-997658Y-533910D01*
X-982957Y-540000D01*
X-967044D01*
X-962750Y-538222D01*
X-955556Y-548988D01*
X-958910Y-552342D01*
X-965000Y-567044D01*
Y-582957D01*
X-958910Y-597658D01*
X-947658Y-608910D01*
X-940657Y-611810D01*
X-943184Y-624510D01*
X-1143921D01*
X-1152342Y-616090D01*
X-1167043Y-610000D01*
X-1182956D01*
X-1197658Y-616090D01*
X-1208910Y-627342D01*
X-1215000Y-642043D01*
Y-657957D01*
X-1208910Y-672658D01*
X-1197658Y-683910D01*
X-1190656Y-686810D01*
X-1193183Y-699510D01*
X-1289442D01*
X-1310000Y-678952D01*
Y-667043D01*
X-1316090Y-652342D01*
X-1327342Y-641090D01*
X-1342044Y-635000D01*
X-1357957D01*
X-1372658Y-641090D01*
X-1383910Y-652342D01*
X-1390000Y-667043D01*
Y-682956D01*
X-1383910Y-697658D01*
X-1372658Y-708910D01*
X-1357957Y-715000D01*
X-1346048D01*
X-1318024Y-743024D01*
X-1309754Y-748549D01*
X-1300000Y-750490D01*
X-1268184D01*
X-1265657Y-763190D01*
X-1272658Y-766090D01*
X-1283910Y-777342D01*
X-1290000Y-792043D01*
Y-807956D01*
X-1283910Y-822658D01*
X-1272658Y-833910D01*
X-1257957Y-840000D01*
X-1242043D01*
X-1227342Y-833910D01*
X-1218921Y-825490D01*
X-1118183D01*
X-1115657Y-838190D01*
X-1122658Y-841090D01*
X-1133910Y-852342D01*
X-1140000Y-867043D01*
Y-882957D01*
X-1133910Y-897658D01*
X-1122658Y-908910D01*
X-1107957Y-915000D01*
X-1092044D01*
X-1077342Y-908910D01*
X-1068921Y-900490D01*
X-981079D01*
X-972658Y-908910D01*
X-957956Y-915000D01*
X-942043D01*
X-927342Y-908910D01*
X-916090Y-897658D01*
X-910000Y-882957D01*
Y-867043D01*
X-916090Y-852342D01*
X-927342Y-841090D01*
X-934343Y-838190D01*
X-931817Y-825490D01*
X-206079D01*
X-197658Y-833910D01*
X-182956Y-840000D01*
X-167043D01*
X-152342Y-833910D01*
X-141090Y-822658D01*
X-135000Y-807956D01*
Y-792043D01*
X-141090Y-777342D01*
X-152342Y-766090D01*
X-167043Y-760000D01*
X-182956D01*
X-197658Y-766090D01*
X-206079Y-774510D01*
X-856816D01*
X-859343Y-761810D01*
X-852342Y-758910D01*
X-841090Y-747658D01*
X-835000Y-732957D01*
Y-717044D01*
X-841090Y-702342D01*
X-852342Y-691090D01*
X-859343Y-688190D01*
X-856817Y-675490D01*
X-56079D01*
X-47658Y-683910D01*
X-32956Y-690000D01*
X-17043D01*
X-2342Y-683910D01*
X8910Y-672658D01*
X15000Y-657957D01*
Y-642043D01*
X8910Y-627342D01*
X-2342Y-616090D01*
X-9343Y-613190D01*
X-6816Y-600490D01*
X143921D01*
X152342Y-608910D01*
X167043Y-615000D01*
X182956D01*
X197658Y-608910D01*
X208910Y-597658D01*
X215000Y-582957D01*
Y-567044D01*
X208910Y-552342D01*
X197658Y-541090D01*
X190656Y-538190D01*
X193183Y-525490D01*
X268921D01*
X277342Y-533910D01*
X292043Y-540000D01*
X307956D01*
X322658Y-533910D01*
X333910Y-522658D01*
X340000Y-507957D01*
Y-492043D01*
X333910Y-477342D01*
X322658Y-466090D01*
X307956Y-460000D01*
X292043D01*
X277342Y-466090D01*
X268921Y-474510D01*
X-28110D01*
X-36596Y-461810D01*
X-35000Y-457957D01*
Y-442044D01*
X-41090Y-427342D01*
X-52342Y-416090D01*
X-67044Y-410000D01*
X-82957D01*
X-97658Y-416090D01*
X-106079Y-424510D01*
X-206817D01*
X-209343Y-411810D01*
X-202342Y-408910D01*
X-191090Y-397658D01*
X-185000Y-382957D01*
Y-367043D01*
X-191090Y-352342D01*
X-202342Y-341090D01*
X-217044Y-335000D01*
X-228952D01*
X-256976Y-306976D01*
X-265245Y-301451D01*
X-275000Y-299510D01*
X-1468921D01*
X-1477342Y-291090D01*
X-1492043Y-285000D01*
D02*
G37*
G36*
X2461849Y-359976D02*
X2438152D01*
X2415262Y-366109D01*
X2394739Y-377958D01*
X2377983Y-394715D01*
X2366134Y-415237D01*
X2360000Y-438127D01*
Y-461824D01*
X2366134Y-484714D01*
X2377983Y-505237D01*
X2394739Y-521993D01*
X2415262Y-533842D01*
X2438152Y-539976D01*
X2461849D01*
X2484739Y-533842D01*
X2505261Y-521993D01*
X2522018Y-505237D01*
X2533867Y-484714D01*
X2540000Y-461824D01*
Y-438127D01*
X2533867Y-415237D01*
X2522018Y-394715D01*
X2505261Y-377958D01*
X2484739Y-366109D01*
X2461849Y-359976D01*
D02*
G37*
G36*
X-3938151Y-360013D02*
X-3961849D01*
X-3984739Y-366146D01*
X-4005261Y-377995D01*
X-4022018Y-394752D01*
X-4033866Y-415274D01*
X-4040000Y-438164D01*
Y-461861D01*
X-4033866Y-484751D01*
X-4022018Y-505274D01*
X-4005261Y-522030D01*
X-3984739Y-533879D01*
X-3961849Y-540013D01*
X-3938151D01*
X-3915261Y-533879D01*
X-3894739Y-522030D01*
X-3877982Y-505274D01*
X-3866133Y-484751D01*
X-3860000Y-461861D01*
Y-438164D01*
X-3866133Y-415274D01*
X-3877982Y-394752D01*
X-3894739Y-377995D01*
X-3915261Y-366146D01*
X-3938151Y-360013D01*
D02*
G37*
G36*
X1746251Y-245000D02*
X1713749D01*
X1681871Y-251341D01*
X1651843Y-263779D01*
X1624818Y-281836D01*
X1601836Y-304819D01*
X1583779Y-331843D01*
X1571341Y-361871D01*
X1565000Y-393749D01*
Y-426251D01*
X1571341Y-458129D01*
X1583779Y-488157D01*
X1601836Y-515181D01*
X1624818Y-538164D01*
X1651843Y-556221D01*
X1681871Y-568659D01*
X1713749Y-575000D01*
X1746251D01*
X1778129Y-568659D01*
X1808157Y-556221D01*
X1835181Y-538164D01*
X1858164Y-515181D01*
X1876221Y-488157D01*
X1888659Y-458129D01*
X1895000Y-426251D01*
Y-393749D01*
X1888659Y-361871D01*
X1876221Y-331843D01*
X1858164Y-304819D01*
X1835181Y-281836D01*
X1808157Y-263779D01*
X1778129Y-251341D01*
X1746251Y-245000D01*
D02*
G37*
G36*
X-2253749D02*
X-2286251D01*
X-2318129Y-251341D01*
X-2348157Y-263779D01*
X-2375181Y-281836D01*
X-2398164Y-304819D01*
X-2416221Y-331843D01*
X-2428659Y-361871D01*
X-2435000Y-393749D01*
Y-426251D01*
X-2428659Y-458129D01*
X-2416221Y-488157D01*
X-2398164Y-515181D01*
X-2375181Y-538164D01*
X-2348157Y-556221D01*
X-2318129Y-568659D01*
X-2286251Y-575000D01*
X-2253749D01*
X-2221871Y-568659D01*
X-2191843Y-556221D01*
X-2164819Y-538164D01*
X-2141836Y-515181D01*
X-2123779Y-488157D01*
X-2111341Y-458129D01*
X-2105000Y-426251D01*
Y-393749D01*
X-2111341Y-361871D01*
X-2123779Y-331843D01*
X-2141836Y-304819D01*
X-2164819Y-281836D01*
X-2191843Y-263779D01*
X-2221871Y-251341D01*
X-2253749Y-245000D01*
D02*
G37*
G36*
X1147957Y-560000D02*
X1132043D01*
X1117342Y-566090D01*
X1106090Y-577342D01*
X1100000Y-592044D01*
Y-607957D01*
X1106090Y-622658D01*
X1117342Y-633910D01*
X1132043Y-640000D01*
X1147957D01*
X1162658Y-633910D01*
X1173910Y-622658D01*
X1180000Y-607957D01*
Y-592044D01*
X1173910Y-577342D01*
X1162658Y-566090D01*
X1147957Y-560000D01*
D02*
G37*
G36*
X-3938151Y-610028D02*
X-3961849D01*
X-3984739Y-616161D01*
X-4005261Y-628010D01*
X-4022018Y-644767D01*
X-4033866Y-665289D01*
X-4040000Y-688179D01*
Y-711876D01*
X-4033866Y-734766D01*
X-4022018Y-755289D01*
X-4005261Y-772045D01*
X-3984739Y-783894D01*
X-3961849Y-790027D01*
X-3938151D01*
X-3915261Y-783894D01*
X-3894739Y-772045D01*
X-3877982Y-755289D01*
X-3866133Y-734766D01*
X-3860000Y-711876D01*
Y-688179D01*
X-3866133Y-665289D01*
X-3877982Y-644767D01*
X-3894739Y-628010D01*
X-3915261Y-616161D01*
X-3938151Y-610028D01*
D02*
G37*
G36*
X-3424005Y-945000D02*
X-3439918D01*
X-3454620Y-951090D01*
X-3465872Y-962342D01*
X-3471962Y-977043D01*
Y-992956D01*
X-3465872Y-1007658D01*
X-3454620Y-1018910D01*
X-3450490Y-1020621D01*
Y-1168921D01*
X-3458910Y-1177342D01*
X-3465000Y-1192043D01*
Y-1207956D01*
X-3458910Y-1222658D01*
X-3447658Y-1233910D01*
X-3432957Y-1240000D01*
X-3417043D01*
X-3402342Y-1233910D01*
X-3391090Y-1222658D01*
X-3385000Y-1207956D01*
Y-1192043D01*
X-3391090Y-1177342D01*
X-3399510Y-1168921D01*
Y-1009117D01*
X-3398052Y-1007658D01*
X-3391962Y-992956D01*
Y-977043D01*
X-3398052Y-962342D01*
X-3409304Y-951090D01*
X-3424005Y-945000D01*
D02*
G37*
G36*
X-2141049Y-1295000D02*
X-2158951D01*
X-2175490Y-1301851D01*
X-2188149Y-1314510D01*
X-2195000Y-1331049D01*
Y-1348951D01*
X-2188149Y-1365491D01*
X-2175490Y-1378149D01*
X-2158951Y-1385000D01*
X-2141049D01*
X-2124510Y-1378149D01*
X-2111851Y-1365491D01*
X-2105000Y-1348951D01*
Y-1331049D01*
X-2111851Y-1314510D01*
X-2124510Y-1301851D01*
X-2141049Y-1295000D01*
D02*
G37*
G36*
X-2261049D02*
X-2278951D01*
X-2295490Y-1301851D01*
X-2308149Y-1314510D01*
X-2315000Y-1331049D01*
Y-1348951D01*
X-2308149Y-1365491D01*
X-2295490Y-1378149D01*
X-2278951Y-1385000D01*
X-2261049D01*
X-2244510Y-1378149D01*
X-2231851Y-1365491D01*
X-2225000Y-1348951D01*
Y-1331049D01*
X-2231851Y-1314510D01*
X-2244510Y-1301851D01*
X-2261049Y-1295000D01*
D02*
G37*
G36*
X1282957Y-1335000D02*
X1267043D01*
X1252342Y-1341090D01*
X1241090Y-1352342D01*
X1235000Y-1367043D01*
Y-1382957D01*
X1241090Y-1397658D01*
X1252342Y-1408910D01*
X1267043Y-1415000D01*
X1282957D01*
X1297658Y-1408910D01*
X1308910Y-1397658D01*
X1315000Y-1382957D01*
Y-1367043D01*
X1308910Y-1352342D01*
X1297658Y-1341090D01*
X1282957Y-1335000D01*
D02*
G37*
G36*
X-2141049Y-1415000D02*
X-2158951D01*
X-2175490Y-1421851D01*
X-2188149Y-1434509D01*
X-2195000Y-1451049D01*
Y-1468951D01*
X-2188149Y-1485490D01*
X-2175490Y-1498149D01*
X-2158951Y-1505000D01*
X-2141049D01*
X-2124510Y-1498149D01*
X-2111851Y-1485490D01*
X-2105000Y-1468951D01*
Y-1451049D01*
X-2111851Y-1434509D01*
X-2124510Y-1421851D01*
X-2141049Y-1415000D01*
D02*
G37*
G36*
X-2261049D02*
X-2278951D01*
X-2295490Y-1421851D01*
X-2308149Y-1434509D01*
X-2315000Y-1451049D01*
Y-1468951D01*
X-2308149Y-1485490D01*
X-2295490Y-1498149D01*
X-2278951Y-1505000D01*
X-2261049D01*
X-2244510Y-1498149D01*
X-2231851Y-1485490D01*
X-2225000Y-1468951D01*
Y-1451049D01*
X-2231851Y-1434509D01*
X-2244510Y-1421851D01*
X-2261049Y-1415000D01*
D02*
G37*
G36*
X1282957Y-1435000D02*
X1267043D01*
X1252342Y-1441090D01*
X1241090Y-1452342D01*
X1235000Y-1467044D01*
Y-1482957D01*
X1241090Y-1497658D01*
X1252342Y-1508910D01*
X1267043Y-1515000D01*
X1282957D01*
X1297658Y-1508910D01*
X1308910Y-1497658D01*
X1315000Y-1482957D01*
Y-1467044D01*
X1308910Y-1452342D01*
X1297658Y-1441090D01*
X1282957Y-1435000D01*
D02*
G37*
G36*
X1132957D02*
X1117043D01*
X1102342Y-1441090D01*
X1091090Y-1452342D01*
X1085000Y-1467044D01*
Y-1482957D01*
X1091090Y-1497658D01*
X1102342Y-1508910D01*
X1117043Y-1515000D01*
X1132957D01*
X1147658Y-1508910D01*
X1158910Y-1497658D01*
X1165000Y-1482957D01*
Y-1467044D01*
X1158910Y-1452342D01*
X1147658Y-1441090D01*
X1132957Y-1435000D01*
D02*
G37*
G36*
X-2261049Y-1535000D02*
X-2278951D01*
X-2295490Y-1541851D01*
X-2308149Y-1554509D01*
X-2315000Y-1571049D01*
Y-1588951D01*
X-2308149Y-1605490D01*
X-2295490Y-1618149D01*
X-2278951Y-1625000D01*
X-2261049D01*
X-2244510Y-1618149D01*
X-2231851Y-1605490D01*
X-2225000Y-1588951D01*
Y-1571049D01*
X-2231851Y-1554509D01*
X-2244510Y-1541851D01*
X-2261049Y-1535000D01*
D02*
G37*
G36*
X1283951Y-1555000D02*
X1266049D01*
X1249510Y-1561851D01*
X1236851Y-1574510D01*
X1230000Y-1591049D01*
Y-1608951D01*
X1236851Y-1625491D01*
X1249510Y-1638149D01*
X1266049Y-1645000D01*
X1283951D01*
X1300490Y-1638149D01*
X1313149Y-1625491D01*
X1320000Y-1608951D01*
Y-1591049D01*
X1313149Y-1574510D01*
X1300490Y-1561851D01*
X1283951Y-1555000D01*
D02*
G37*
G36*
X1133951D02*
X1116049D01*
X1099510Y-1561851D01*
X1086851Y-1574510D01*
X1080000Y-1591049D01*
Y-1608951D01*
X1086851Y-1625491D01*
X1099510Y-1638149D01*
X1116049Y-1645000D01*
X1133951D01*
X1150490Y-1638149D01*
X1163149Y-1625491D01*
X1170000Y-1608951D01*
Y-1591049D01*
X1163149Y-1574510D01*
X1150490Y-1561851D01*
X1133951Y-1555000D01*
D02*
G37*
G36*
X2978951Y-1715000D02*
X2961049D01*
X2944510Y-1721851D01*
X2938297Y-1728064D01*
X2930000Y-1733334D01*
X2921703Y-1728064D01*
X2915490Y-1721851D01*
X2898951Y-1715000D01*
X2881049D01*
X2864510Y-1721851D01*
X2858297Y-1728064D01*
X2850000Y-1733334D01*
X2841703Y-1728064D01*
X2835491Y-1721851D01*
X2818951Y-1715000D01*
X2801049D01*
X2784510Y-1721851D01*
X2778297Y-1728064D01*
X2770000Y-1733334D01*
X2761703Y-1728064D01*
X2755491Y-1721851D01*
X2738951Y-1715000D01*
X2721049D01*
X2704510Y-1721851D01*
X2691851Y-1734510D01*
X2685000Y-1751049D01*
Y-1768951D01*
X2691851Y-1785490D01*
X2701361Y-1795000D01*
X2691851Y-1804509D01*
X2685000Y-1821049D01*
Y-1838951D01*
X2691851Y-1855490D01*
X2704510Y-1868149D01*
X2721049Y-1875000D01*
X2738951D01*
X2755491Y-1868149D01*
X2761703Y-1861936D01*
X2770000Y-1856666D01*
X2778297Y-1861936D01*
X2784510Y-1868149D01*
X2801049Y-1875000D01*
X2818951D01*
X2835491Y-1868149D01*
X2841703Y-1861936D01*
X2850000Y-1856666D01*
X2858297Y-1861936D01*
X2864510Y-1868149D01*
X2881049Y-1875000D01*
X2898951D01*
X2915490Y-1868149D01*
X2921703Y-1861936D01*
X2930000Y-1856666D01*
X2938297Y-1861936D01*
X2944510Y-1868149D01*
X2961049Y-1875000D01*
X2978951D01*
X2995491Y-1868149D01*
X3008149Y-1855490D01*
X3015000Y-1838951D01*
Y-1821049D01*
X3008149Y-1804509D01*
X2998640Y-1795000D01*
X3008149Y-1785490D01*
X3015000Y-1768951D01*
Y-1751049D01*
X3008149Y-1734510D01*
X2995491Y-1721851D01*
X2978951Y-1715000D01*
D02*
G37*
G36*
X-281049D02*
X-298951D01*
X-315490Y-1721851D01*
X-321703Y-1728064D01*
X-330000Y-1733334D01*
X-338297Y-1728064D01*
X-344510Y-1721851D01*
X-361049Y-1715000D01*
X-378951D01*
X-395490Y-1721851D01*
X-401703Y-1728064D01*
X-410000Y-1733334D01*
X-418297Y-1728064D01*
X-424509Y-1721851D01*
X-441049Y-1715000D01*
X-458951D01*
X-475490Y-1721851D01*
X-481703Y-1728064D01*
X-490000Y-1733334D01*
X-498297Y-1728064D01*
X-504510Y-1721851D01*
X-521049Y-1715000D01*
X-538951D01*
X-555490Y-1721851D01*
X-568149Y-1734510D01*
X-575000Y-1751049D01*
Y-1768951D01*
X-568149Y-1785490D01*
X-558639Y-1795000D01*
X-568149Y-1804509D01*
X-575000Y-1821049D01*
Y-1838951D01*
X-568149Y-1855490D01*
X-555490Y-1868149D01*
X-538951Y-1875000D01*
X-521049D01*
X-504510Y-1868149D01*
X-498297Y-1861936D01*
X-490000Y-1856666D01*
X-481703Y-1861936D01*
X-475490Y-1868149D01*
X-458951Y-1875000D01*
X-441049D01*
X-424509Y-1868149D01*
X-418297Y-1861936D01*
X-410000Y-1856666D01*
X-401703Y-1861936D01*
X-395490Y-1868149D01*
X-378951Y-1875000D01*
X-361049D01*
X-344510Y-1868149D01*
X-338297Y-1861936D01*
X-330000Y-1856666D01*
X-321703Y-1861936D01*
X-315490Y-1868149D01*
X-298951Y-1875000D01*
X-281049D01*
X-264510Y-1868149D01*
X-251851Y-1855490D01*
X-245000Y-1838951D01*
Y-1821049D01*
X-251851Y-1804509D01*
X-261360Y-1795000D01*
X-251851Y-1785490D01*
X-245000Y-1768951D01*
Y-1751049D01*
X-251851Y-1734510D01*
X-264510Y-1721851D01*
X-281049Y-1715000D01*
D02*
G37*
G36*
X-3531049D02*
X-3548951D01*
X-3565490Y-1721851D01*
X-3571703Y-1728064D01*
X-3580000Y-1733334D01*
X-3588297Y-1728064D01*
X-3594510Y-1721851D01*
X-3611049Y-1715000D01*
X-3628951D01*
X-3645491Y-1721851D01*
X-3651703Y-1728064D01*
X-3660000Y-1733334D01*
X-3668297Y-1728064D01*
X-3674510Y-1721851D01*
X-3691049Y-1715000D01*
X-3708951D01*
X-3725490Y-1721851D01*
X-3731703Y-1728064D01*
X-3740000Y-1733334D01*
X-3748297Y-1728064D01*
X-3754510Y-1721851D01*
X-3771049Y-1715000D01*
X-3788951D01*
X-3805490Y-1721851D01*
X-3818149Y-1734510D01*
X-3825000Y-1751049D01*
Y-1768951D01*
X-3818149Y-1785490D01*
X-3808640Y-1795000D01*
X-3818149Y-1804509D01*
X-3825000Y-1821049D01*
Y-1838951D01*
X-3818149Y-1855490D01*
X-3805490Y-1868149D01*
X-3788951Y-1875000D01*
X-3771049D01*
X-3754510Y-1868149D01*
X-3748297Y-1861936D01*
X-3740000Y-1856666D01*
X-3731703Y-1861936D01*
X-3725490Y-1868149D01*
X-3708951Y-1875000D01*
X-3691049D01*
X-3674510Y-1868149D01*
X-3668297Y-1861936D01*
X-3660000Y-1856666D01*
X-3651703Y-1861936D01*
X-3645491Y-1868149D01*
X-3628951Y-1875000D01*
X-3611049D01*
X-3594510Y-1868149D01*
X-3588297Y-1861936D01*
X-3580000Y-1856666D01*
X-3571703Y-1861936D01*
X-3565490Y-1868149D01*
X-3548951Y-1875000D01*
X-3531049D01*
X-3514510Y-1868149D01*
X-3501851Y-1855490D01*
X-3495000Y-1838951D01*
Y-1821049D01*
X-3501851Y-1804509D01*
X-3511361Y-1795000D01*
X-3501851Y-1785490D01*
X-3495000Y-1768951D01*
Y-1751049D01*
X-3501851Y-1734510D01*
X-3514510Y-1721851D01*
X-3531049Y-1715000D01*
D02*
G37*
G36*
X1133951Y-1705000D02*
X1116049D01*
X1099510Y-1711851D01*
X1086851Y-1724510D01*
X1080000Y-1741049D01*
Y-1758951D01*
X1086851Y-1775490D01*
X1099510Y-1788149D01*
X1116049Y-1795000D01*
X1133951D01*
X1150490Y-1788149D01*
X1163149Y-1775490D01*
X1170000Y-1758951D01*
Y-1741049D01*
X1163149Y-1724510D01*
X1150490Y-1711851D01*
X1133951Y-1705000D01*
D02*
G37*
G36*
X957956Y-1735000D02*
X942043D01*
X927342Y-1741090D01*
X916090Y-1752342D01*
X910000Y-1767043D01*
Y-1782957D01*
X916090Y-1797658D01*
X927342Y-1808910D01*
X942043Y-1815000D01*
X957956D01*
X972658Y-1808910D01*
X983910Y-1797658D01*
X990000Y-1782957D01*
Y-1767043D01*
X983910Y-1752342D01*
X972658Y-1741090D01*
X957956Y-1735000D01*
D02*
G37*
G36*
X1058951Y-1830000D02*
X1041049D01*
X1024510Y-1836851D01*
X1011851Y-1849510D01*
X1005000Y-1866049D01*
Y-1883951D01*
X1011851Y-1900490D01*
X1024510Y-1913149D01*
X1041049Y-1920000D01*
X1058951D01*
X1075490Y-1913149D01*
X1088149Y-1900490D01*
X1095000Y-1883951D01*
Y-1866049D01*
X1088149Y-1849510D01*
X1075490Y-1836851D01*
X1058951Y-1830000D01*
D02*
G37*
G36*
X1433951Y-2005000D02*
X1416049D01*
X1399510Y-2011851D01*
X1386851Y-2024510D01*
X1381733Y-2036865D01*
X1368267D01*
X1363149Y-2024510D01*
X1350490Y-2011851D01*
X1333951Y-2005000D01*
X1316049D01*
X1299509Y-2011851D01*
X1286851Y-2024510D01*
X1280000Y-2041049D01*
Y-2058951D01*
X1286851Y-2075490D01*
X1299509Y-2088149D01*
X1311865Y-2093267D01*
Y-2106733D01*
X1299509Y-2111851D01*
X1286851Y-2124510D01*
X1280000Y-2141049D01*
Y-2158951D01*
X1286851Y-2175490D01*
X1299509Y-2188149D01*
X1316049Y-2195000D01*
X1333951D01*
X1350490Y-2188149D01*
X1363149Y-2175490D01*
X1368267Y-2163135D01*
X1381733D01*
X1386851Y-2175490D01*
X1399510Y-2188149D01*
X1416049Y-2195000D01*
X1433951D01*
X1450490Y-2188149D01*
X1463149Y-2175490D01*
X1470000Y-2158951D01*
Y-2141049D01*
X1463149Y-2124510D01*
X1450490Y-2111851D01*
X1438135Y-2106733D01*
Y-2093267D01*
X1450490Y-2088149D01*
X1463149Y-2075490D01*
X1470000Y-2058951D01*
Y-2041049D01*
X1463149Y-2024510D01*
X1450490Y-2011851D01*
X1433951Y-2005000D01*
D02*
G37*
G36*
X-1311049Y-2145000D02*
X-1328951D01*
X-1345490Y-2151851D01*
X-1358149Y-2164510D01*
X-1365000Y-2181049D01*
Y-2198951D01*
X-1358149Y-2215490D01*
X-1345490Y-2228149D01*
X-1328951Y-2235000D01*
X-1311049D01*
X-1294509Y-2228149D01*
X-1281851Y-2215490D01*
X-1275000Y-2198951D01*
Y-2181049D01*
X-1281851Y-2164510D01*
X-1294509Y-2151851D01*
X-1311049Y-2145000D01*
D02*
G37*
G36*
X-1801049Y-2155000D02*
X-1818951D01*
X-1835490Y-2161851D01*
X-1848149Y-2174509D01*
X-1855000Y-2191049D01*
Y-2208951D01*
X-1848149Y-2225490D01*
X-1835490Y-2238149D01*
X-1818951Y-2245000D01*
X-1801049D01*
X-1784510Y-2238149D01*
X-1771851Y-2225490D01*
X-1765000Y-2208951D01*
Y-2191049D01*
X-1771851Y-2174509D01*
X-1784510Y-2161851D01*
X-1801049Y-2155000D01*
D02*
G37*
G36*
X-3591049D02*
X-3608951D01*
X-3625490Y-2161851D01*
X-3638149Y-2174509D01*
X-3645000Y-2191049D01*
Y-2208951D01*
X-3638149Y-2225490D01*
X-3625490Y-2238149D01*
X-3608951Y-2245000D01*
X-3591049D01*
X-3574509Y-2238149D01*
X-3561851Y-2225490D01*
X-3555000Y-2208951D01*
Y-2191049D01*
X-3561851Y-2174509D01*
X-3574509Y-2161851D01*
X-3591049Y-2155000D01*
D02*
G37*
G36*
X2928951Y-2175000D02*
X2911049D01*
X2894510Y-2181851D01*
X2886948Y-2189412D01*
X2105000D01*
X2093295Y-2191741D01*
X2083371Y-2198371D01*
X2026742Y-2255000D01*
X2016049D01*
X1999510Y-2261851D01*
X1986851Y-2274510D01*
X1980000Y-2291049D01*
Y-2308951D01*
X1986851Y-2325490D01*
X1999510Y-2338149D01*
X2016049Y-2345000D01*
X2033951D01*
X2050490Y-2338149D01*
X2063149Y-2325490D01*
X2070000Y-2308951D01*
Y-2298258D01*
X2117670Y-2250588D01*
X2886948D01*
X2894510Y-2258149D01*
X2911049Y-2265000D01*
X2928951D01*
X2945490Y-2258149D01*
X2958149Y-2245490D01*
X2965000Y-2228951D01*
Y-2211049D01*
X2958149Y-2194509D01*
X2945490Y-2181851D01*
X2928951Y-2175000D01*
D02*
G37*
G36*
X-291049Y-2180000D02*
X-308951D01*
X-325490Y-2186851D01*
X-338149Y-2199510D01*
X-345000Y-2216049D01*
Y-2233951D01*
X-338149Y-2250491D01*
X-325490Y-2263149D01*
X-308951Y-2270000D01*
X-291049D01*
X-274509Y-2263149D01*
X-261851Y-2250491D01*
X-255000Y-2233951D01*
Y-2216049D01*
X-261851Y-2199510D01*
X-274509Y-2186851D01*
X-291049Y-2180000D01*
D02*
G37*
G36*
X638951Y-2245000D02*
X621049D01*
X604510Y-2251851D01*
X591851Y-2264510D01*
X586733Y-2276865D01*
X573267D01*
X568149Y-2264510D01*
X555490Y-2251851D01*
X538951Y-2245000D01*
X521049D01*
X504510Y-2251851D01*
X491851Y-2264510D01*
X486733Y-2276865D01*
X473267D01*
X468149Y-2264510D01*
X455490Y-2251851D01*
X438951Y-2245000D01*
X421049D01*
X404509Y-2251851D01*
X391851Y-2264510D01*
X386733Y-2276864D01*
X373267D01*
X368149Y-2264510D01*
X355491Y-2251851D01*
X338951Y-2245000D01*
X321049D01*
X304510Y-2251851D01*
X291851Y-2264510D01*
X286733Y-2276865D01*
X273267D01*
X268149Y-2264510D01*
X255490Y-2251851D01*
X238951Y-2245000D01*
X221049D01*
X204510Y-2251851D01*
X191851Y-2264510D01*
X185000Y-2281049D01*
Y-2298951D01*
X191851Y-2315490D01*
X204510Y-2328149D01*
X221049Y-2335000D01*
X238951D01*
X255490Y-2328149D01*
X268149Y-2315490D01*
X273267Y-2303135D01*
X286733D01*
X291851Y-2315490D01*
X304510Y-2328149D01*
X321049Y-2335000D01*
X338951D01*
X355491Y-2328149D01*
X368149Y-2315490D01*
X373267Y-2303136D01*
X386733D01*
X391851Y-2315490D01*
X404509Y-2328149D01*
X421049Y-2335000D01*
X438951D01*
X455490Y-2328149D01*
X468149Y-2315490D01*
X473267Y-2303135D01*
X486733D01*
X491851Y-2315490D01*
X504510Y-2328149D01*
X521049Y-2335000D01*
X538951D01*
X555490Y-2328149D01*
X568149Y-2315490D01*
X573267Y-2303135D01*
X586733D01*
X591851Y-2315490D01*
X604510Y-2328149D01*
X621049Y-2335000D01*
X638951D01*
X655490Y-2328149D01*
X668149Y-2315490D01*
X675000Y-2298951D01*
Y-2281049D01*
X668149Y-2264510D01*
X655490Y-2251851D01*
X638951Y-2245000D01*
D02*
G37*
G36*
X-1971049Y-2155000D02*
X-1988951D01*
X-2005491Y-2161851D01*
X-2018149Y-2174509D01*
X-2025000Y-2191049D01*
Y-2208951D01*
X-2018149Y-2225490D01*
X-2005491Y-2238149D01*
X-1988951Y-2245000D01*
X-1971049D01*
X-1954510Y-2238149D01*
X-1952620Y-2236260D01*
X-1941854Y-2243454D01*
X-1945000Y-2251049D01*
Y-2268951D01*
X-1938149Y-2285490D01*
X-1925490Y-2298149D01*
X-1908951Y-2305000D01*
X-1891049D01*
X-1874510Y-2298149D01*
X-1861851Y-2285490D01*
X-1855000Y-2268951D01*
Y-2251049D01*
X-1861851Y-2234510D01*
X-1874510Y-2221851D01*
X-1891049Y-2215000D01*
X-1908951D01*
X-1925490Y-2221851D01*
X-1927380Y-2223740D01*
X-1938146Y-2216546D01*
X-1935000Y-2208951D01*
Y-2191049D01*
X-1941851Y-2174509D01*
X-1954510Y-2161851D01*
X-1971049Y-2155000D01*
D02*
G37*
G36*
X-4481049Y-2240000D02*
X-4498951D01*
X-4515491Y-2246851D01*
X-4528149Y-2259509D01*
X-4535000Y-2276049D01*
Y-2293951D01*
X-4528149Y-2310490D01*
X-4515491Y-2323149D01*
X-4498951Y-2330000D01*
X-4481049D01*
X-4464510Y-2323149D01*
X-4451851Y-2310490D01*
X-4445000Y-2293951D01*
Y-2276049D01*
X-4451851Y-2259509D01*
X-4464510Y-2246851D01*
X-4481049Y-2240000D01*
D02*
G37*
G36*
X518951Y-2355000D02*
X501049D01*
X484510Y-2361851D01*
X471851Y-2374510D01*
X465000Y-2391049D01*
Y-2408951D01*
X471851Y-2425490D01*
X484510Y-2438149D01*
X501049Y-2445000D01*
X518951D01*
X535490Y-2438149D01*
X548149Y-2425490D01*
X555000Y-2408951D01*
Y-2391049D01*
X548149Y-2374510D01*
X535490Y-2361851D01*
X518951Y-2355000D01*
D02*
G37*
G36*
X-141049Y-2405000D02*
X-158951D01*
X-175490Y-2411851D01*
X-188149Y-2424510D01*
X-195000Y-2441049D01*
Y-2458951D01*
X-188149Y-2475490D01*
X-175490Y-2488149D01*
X-158951Y-2495000D01*
X-141049D01*
X-124510Y-2488149D01*
X-111851Y-2475490D01*
X-105000Y-2458951D01*
Y-2441049D01*
X-111851Y-2424510D01*
X-124510Y-2411851D01*
X-141049Y-2405000D01*
D02*
G37*
G36*
X518951Y-2465000D02*
X501049D01*
X484510Y-2471851D01*
X471851Y-2484510D01*
X465000Y-2501049D01*
Y-2518951D01*
X471851Y-2535490D01*
X484510Y-2548149D01*
X501049Y-2555000D01*
X518951D01*
X535490Y-2548149D01*
X548149Y-2535490D01*
X555000Y-2518951D01*
Y-2501049D01*
X548149Y-2484510D01*
X535490Y-2471851D01*
X518951Y-2465000D01*
D02*
G37*
G36*
X2894821Y-2418004D02*
X2867174D01*
X2840469Y-2425159D01*
X2816526Y-2438983D01*
X2796977Y-2458532D01*
X2783154Y-2482475D01*
X2775998Y-2509180D01*
Y-2536827D01*
X2783154Y-2563532D01*
X2796977Y-2587475D01*
X2816526Y-2607024D01*
X2840469Y-2620847D01*
X2867174Y-2628003D01*
X2894821D01*
X2921526Y-2620847D01*
X2945469Y-2607024D01*
X2965018Y-2587475D01*
X2978842Y-2563532D01*
X2985998Y-2536827D01*
Y-2509180D01*
X2978842Y-2482475D01*
X2965018Y-2458532D01*
X2945469Y-2438983D01*
X2921526Y-2425159D01*
X2894821Y-2418004D01*
D02*
G37*
G36*
X2640821D02*
X2613174D01*
X2586469Y-2425159D01*
X2562526Y-2438983D01*
X2542977Y-2458532D01*
X2529154Y-2482475D01*
X2521998Y-2509180D01*
Y-2536827D01*
X2529154Y-2563532D01*
X2542977Y-2587475D01*
X2562526Y-2607024D01*
X2586469Y-2620847D01*
X2613174Y-2628003D01*
X2640821D01*
X2667526Y-2620847D01*
X2691469Y-2607024D01*
X2711018Y-2587475D01*
X2724842Y-2563532D01*
X2731998Y-2536827D01*
Y-2509180D01*
X2724842Y-2482475D01*
X2711018Y-2458532D01*
X2691469Y-2438983D01*
X2667526Y-2425159D01*
X2640821Y-2418004D01*
D02*
G37*
G36*
X2386821D02*
X2359174D01*
X2332469Y-2425159D01*
X2308526Y-2438983D01*
X2288977Y-2458532D01*
X2275154Y-2482475D01*
X2267998Y-2509180D01*
Y-2536827D01*
X2275154Y-2563532D01*
X2288977Y-2587475D01*
X2308526Y-2607024D01*
X2332469Y-2620847D01*
X2359174Y-2628003D01*
X2386821D01*
X2413526Y-2620847D01*
X2437469Y-2607024D01*
X2457018Y-2587475D01*
X2470842Y-2563532D01*
X2477998Y-2536827D01*
Y-2509180D01*
X2470842Y-2482475D01*
X2457018Y-2458532D01*
X2437469Y-2438983D01*
X2413526Y-2425159D01*
X2386821Y-2418004D01*
D02*
G37*
G36*
X2132821D02*
X2105174D01*
X2078469Y-2425159D01*
X2054526Y-2438983D01*
X2034977Y-2458532D01*
X2021154Y-2482475D01*
X2013998Y-2509180D01*
Y-2536827D01*
X2021154Y-2563532D01*
X2034977Y-2587475D01*
X2054526Y-2607024D01*
X2078469Y-2620847D01*
X2105174Y-2628003D01*
X2132821D01*
X2159526Y-2620847D01*
X2183469Y-2607024D01*
X2203018Y-2587475D01*
X2216842Y-2563532D01*
X2223998Y-2536827D01*
Y-2509180D01*
X2216842Y-2482475D01*
X2203018Y-2458532D01*
X2183469Y-2438983D01*
X2159526Y-2425159D01*
X2132821Y-2418004D01*
D02*
G37*
G36*
X-355181D02*
X-382828D01*
X-409533Y-2425159D01*
X-433475Y-2438983D01*
X-453025Y-2458532D01*
X-466848Y-2482475D01*
X-474004Y-2509180D01*
Y-2536827D01*
X-466848Y-2563532D01*
X-453025Y-2587475D01*
X-433475Y-2607024D01*
X-409533Y-2620847D01*
X-382828Y-2628003D01*
X-355181D01*
X-328476Y-2620847D01*
X-304533Y-2607024D01*
X-284983Y-2587475D01*
X-271160Y-2563532D01*
X-264004Y-2536827D01*
Y-2509180D01*
X-271160Y-2482475D01*
X-284983Y-2458532D01*
X-304533Y-2438983D01*
X-328476Y-2425159D01*
X-355181Y-2418004D01*
D02*
G37*
G36*
X-609181D02*
X-636828D01*
X-663533Y-2425159D01*
X-687475Y-2438983D01*
X-707025Y-2458532D01*
X-720848Y-2482475D01*
X-728004Y-2509180D01*
Y-2536827D01*
X-720848Y-2563532D01*
X-707025Y-2587475D01*
X-687475Y-2607024D01*
X-663533Y-2620847D01*
X-636828Y-2628003D01*
X-609181D01*
X-582476Y-2620847D01*
X-558533Y-2607024D01*
X-538983Y-2587475D01*
X-525160Y-2563532D01*
X-518004Y-2536827D01*
Y-2509180D01*
X-525160Y-2482475D01*
X-538983Y-2458532D01*
X-558533Y-2438983D01*
X-582476Y-2425159D01*
X-609181Y-2418004D01*
D02*
G37*
G36*
X-863181D02*
X-890828D01*
X-917533Y-2425159D01*
X-941475Y-2438983D01*
X-961025Y-2458532D01*
X-974848Y-2482475D01*
X-982004Y-2509180D01*
Y-2536827D01*
X-974848Y-2563532D01*
X-961025Y-2587475D01*
X-941475Y-2607024D01*
X-917533Y-2620847D01*
X-890828Y-2628003D01*
X-863181D01*
X-836476Y-2620847D01*
X-812533Y-2607024D01*
X-792983Y-2587475D01*
X-779160Y-2563532D01*
X-772004Y-2536827D01*
Y-2509180D01*
X-779160Y-2482475D01*
X-792983Y-2458532D01*
X-812533Y-2438983D01*
X-836476Y-2425159D01*
X-863181Y-2418004D01*
D02*
G37*
G36*
X-1117181D02*
X-1144828D01*
X-1171533Y-2425159D01*
X-1195475Y-2438983D01*
X-1215025Y-2458532D01*
X-1228848Y-2482475D01*
X-1236004Y-2509180D01*
Y-2536827D01*
X-1228848Y-2563532D01*
X-1215025Y-2587475D01*
X-1195475Y-2607024D01*
X-1171533Y-2620847D01*
X-1144828Y-2628003D01*
X-1117181D01*
X-1090476Y-2620847D01*
X-1066533Y-2607024D01*
X-1046983Y-2587475D01*
X-1033160Y-2563532D01*
X-1026004Y-2536827D01*
Y-2509180D01*
X-1033160Y-2482475D01*
X-1046983Y-2458532D01*
X-1066533Y-2438983D01*
X-1090476Y-2425159D01*
X-1117181Y-2418004D01*
D02*
G37*
G36*
X-3605177D02*
X-3632824D01*
X-3659529Y-2425159D01*
X-3683472Y-2438983D01*
X-3703022Y-2458532D01*
X-3716845Y-2482475D01*
X-3724001Y-2509180D01*
Y-2536827D01*
X-3716845Y-2563532D01*
X-3703022Y-2587475D01*
X-3683472Y-2607024D01*
X-3659529Y-2620847D01*
X-3632824Y-2628003D01*
X-3605177D01*
X-3578472Y-2620847D01*
X-3554530Y-2607024D01*
X-3534980Y-2587475D01*
X-3521157Y-2563532D01*
X-3514001Y-2536827D01*
Y-2509180D01*
X-3521157Y-2482475D01*
X-3534980Y-2458532D01*
X-3554530Y-2438983D01*
X-3578472Y-2425159D01*
X-3605177Y-2418004D01*
D02*
G37*
G36*
X-3859177D02*
X-3886824D01*
X-3913529Y-2425159D01*
X-3937472Y-2438983D01*
X-3957022Y-2458532D01*
X-3970845Y-2482475D01*
X-3978001Y-2509180D01*
Y-2536827D01*
X-3970845Y-2563532D01*
X-3957022Y-2587475D01*
X-3937472Y-2607024D01*
X-3913529Y-2620847D01*
X-3886824Y-2628003D01*
X-3859177D01*
X-3832472Y-2620847D01*
X-3808530Y-2607024D01*
X-3788980Y-2587475D01*
X-3775157Y-2563532D01*
X-3768001Y-2536827D01*
Y-2509180D01*
X-3775157Y-2482475D01*
X-3788980Y-2458532D01*
X-3808530Y-2438983D01*
X-3832472Y-2425159D01*
X-3859177Y-2418004D01*
D02*
G37*
G36*
X-4113177D02*
X-4140824D01*
X-4167529Y-2425159D01*
X-4191472Y-2438983D01*
X-4211022Y-2458532D01*
X-4224845Y-2482475D01*
X-4232001Y-2509180D01*
Y-2536827D01*
X-4224845Y-2563532D01*
X-4211022Y-2587475D01*
X-4191472Y-2607024D01*
X-4167529Y-2620847D01*
X-4140824Y-2628003D01*
X-4113177D01*
X-4086472Y-2620847D01*
X-4062530Y-2607024D01*
X-4042980Y-2587475D01*
X-4029157Y-2563532D01*
X-4022001Y-2536827D01*
Y-2509180D01*
X-4029157Y-2482475D01*
X-4042980Y-2458532D01*
X-4062530Y-2438983D01*
X-4086472Y-2425159D01*
X-4113177Y-2418004D01*
D02*
G37*
G36*
X-4367177D02*
X-4394824D01*
X-4421529Y-2425159D01*
X-4445472Y-2438983D01*
X-4465022Y-2458532D01*
X-4478845Y-2482475D01*
X-4486001Y-2509180D01*
Y-2536827D01*
X-4478845Y-2563532D01*
X-4465022Y-2587475D01*
X-4445472Y-2607024D01*
X-4421529Y-2620847D01*
X-4394824Y-2628003D01*
X-4367177D01*
X-4340472Y-2620847D01*
X-4316530Y-2607024D01*
X-4296980Y-2587475D01*
X-4283157Y-2563532D01*
X-4276001Y-2536827D01*
Y-2509180D01*
X-4283157Y-2482475D01*
X-4296980Y-2458532D01*
X-4316530Y-2438983D01*
X-4340472Y-2425159D01*
X-4367177Y-2418004D01*
D02*
G37*
G36*
X568951Y-2695000D02*
X551049D01*
X534509Y-2701851D01*
X521851Y-2714510D01*
X515000Y-2731049D01*
Y-2748951D01*
X521851Y-2765491D01*
X534509Y-2778149D01*
X551049Y-2785000D01*
X568951D01*
X585490Y-2778149D01*
X598149Y-2765491D01*
X605000Y-2748951D01*
Y-2731049D01*
X598149Y-2714510D01*
X585490Y-2701851D01*
X568951Y-2695000D01*
D02*
G37*
G36*
X-264004Y-2672004D02*
X-474004D01*
Y-2882003D01*
X-264004D01*
Y-2672004D01*
D02*
G37*
G36*
X-3514001D02*
X-3724001D01*
Y-2882003D01*
X-3514001D01*
Y-2672004D01*
D02*
G37*
G36*
X568951Y-2805000D02*
X551049D01*
X534509Y-2811851D01*
X521851Y-2824509D01*
X515000Y-2841049D01*
Y-2858951D01*
X521851Y-2875490D01*
X534509Y-2888149D01*
X551049Y-2895000D01*
X568951D01*
X585490Y-2888149D01*
X598149Y-2875490D01*
X605000Y-2858951D01*
Y-2841049D01*
X598149Y-2824509D01*
X585490Y-2811851D01*
X568951Y-2805000D01*
D02*
G37*
%LPD*%
G36*
X109343Y136810D02*
X102342Y133910D01*
X93921Y125490D01*
X-743921D01*
X-752342Y133910D01*
X-759343Y136810D01*
X-756816Y149510D01*
X106816D01*
X109343Y136810D01*
D02*
G37*
G36*
X159343Y-538190D02*
X152342Y-541090D01*
X143921Y-549510D01*
X-893921D01*
X-902342Y-541090D01*
X-909343Y-538190D01*
X-906817Y-525490D01*
X156817D01*
X159343Y-538190D01*
D02*
G37*
G36*
X-40657Y-613190D02*
X-47658Y-616090D01*
X-56079Y-624510D01*
X-906816D01*
X-909343Y-611810D01*
X-902342Y-608910D01*
X-893921Y-600490D01*
X-43184D01*
X-40657Y-613190D01*
D02*
G37*
D44*
X-1351716Y375000D02*
X-1326716Y350000D01*
X-2625000Y375000D02*
X-1351716D01*
X-908118Y475000D02*
X-883118Y450000D01*
X-2225000Y475000D02*
X-908118D01*
X-883118Y450000D02*
X-875000D01*
X-775000Y100000D02*
X125000D01*
X-1050000Y175000D02*
X233000D01*
X654000Y596000D01*
X-725000Y50000D02*
X-220941D01*
X-220941Y50000D01*
X-675000Y0D02*
X375000D01*
X-625000Y-50000D02*
X125000D01*
X-575000Y-100000D02*
X275000D01*
X-220941Y50000D02*
X250000D01*
X-3431962Y-990412D02*
X-3425000Y-997374D01*
X-3431962Y-990412D02*
Y-985000D01*
X-3425000Y-1200000D02*
Y-997374D01*
X-1500000Y-325000D02*
X-275000D01*
X-225000Y-375000D01*
X-1350000Y-675000D02*
X-1300000Y-725000D01*
X-875000D01*
X-2725000Y425000D02*
X-1300000D01*
X450000Y75000D02*
Y125000D01*
X375000Y0D02*
X450000Y75000D01*
X275000Y75000D02*
Y125000D01*
X250000Y50000D02*
X275000Y75000D01*
X-975000Y-500000D02*
X300000D01*
X-925000Y-575000D02*
X175000D01*
X-1925000Y525000D02*
X-925000D01*
X-1250000Y-800000D02*
X-175000D01*
X-1175000Y-650000D02*
X-25000D01*
X-1100000Y-875000D02*
X-950000D01*
X-1450000Y-450000D02*
X-75000D01*
D45*
X-1475000Y825000D02*
X-1300000Y1000000D01*
X755345D02*
X951430Y803916D01*
X-1300000Y1000000D02*
X755345D01*
X951430Y803916D02*
X2199916D01*
X2025000Y-2300000D02*
X2105000Y-2220000D01*
X2920000D01*
D48*
X988708Y923917D02*
D03*
X1853705D02*
D03*
D49*
X988708Y503903D02*
D03*
X1853705D02*
D03*
D50*
X2118998Y-2777003D02*
D03*
Y-2523003D02*
D03*
X2372998Y-2777003D02*
D03*
Y-2523003D02*
D03*
X2626998Y-2777003D02*
D03*
Y-2523003D02*
D03*
X2880998D02*
D03*
X-369004D02*
D03*
X-623004D02*
D03*
Y-2777003D02*
D03*
X-877004Y-2523003D02*
D03*
Y-2777003D02*
D03*
X-1131004Y-2523003D02*
D03*
Y-2777003D02*
D03*
X-3619001Y-2523003D02*
D03*
X-3873001D02*
D03*
Y-2777003D02*
D03*
X-4127001Y-2523003D02*
D03*
Y-2777003D02*
D03*
X-4381001Y-2523003D02*
D03*
Y-2777003D02*
D03*
D51*
X2880998D02*
D03*
X-369004D02*
D03*
X-3619001D02*
D03*
D52*
X2200000Y550000D02*
D03*
Y804000D02*
D03*
X654000Y850000D02*
D03*
X400000Y596000D02*
D03*
Y850000D02*
D03*
X146000Y596000D02*
D03*
Y850000D02*
D03*
D53*
X2200000Y296000D02*
D03*
D54*
X654000Y596000D02*
D03*
D55*
X-3950000Y-700028D02*
D03*
Y-450013D02*
D03*
Y-200029D02*
D03*
Y599987D02*
D03*
Y349972D02*
D03*
Y849971D02*
D03*
X2450000Y800034D02*
D03*
Y550025D02*
D03*
Y300013D02*
D03*
Y50023D02*
D03*
Y-199986D02*
D03*
Y-449976D02*
D03*
D56*
X-1326716Y350000D02*
D03*
X475000Y-300000D02*
D03*
X-1750000Y-150000D02*
D03*
Y-25000D02*
D03*
X525000Y-225000D02*
D03*
X-875000Y450000D02*
D03*
X-1450000Y650000D02*
D03*
X-775000Y100000D02*
D03*
X525000Y-125000D02*
D03*
X-975000Y125000D02*
D03*
X-1050000Y175000D02*
D03*
Y75000D02*
D03*
X125000Y100000D02*
D03*
X-725000Y50000D02*
D03*
X-675000Y0D02*
D03*
X-625000Y-50000D02*
D03*
X-575000Y-100000D02*
D03*
X1140000Y-600000D02*
D03*
Y-460000D02*
D03*
Y-290000D02*
D03*
X1130000Y-160000D02*
D03*
X-330000Y540000D02*
D03*
X-410000Y-230000D02*
D03*
X-2225000Y475000D02*
D03*
X-3431962Y-985000D02*
D03*
X-3425000Y-1200000D02*
D03*
X-1500000Y-325000D02*
D03*
X-1350000Y-675000D02*
D03*
X-425000Y425000D02*
D03*
X-950000Y750000D02*
D03*
X-1149999Y850001D02*
D03*
X-1319998Y794998D02*
D03*
X-1720002Y645002D02*
D03*
X-2000000Y325000D02*
D03*
X-1400000Y250000D02*
D03*
X-650000Y-400000D02*
D03*
X-300000Y-175000D02*
D03*
X-245002Y645002D02*
D03*
X675000Y-425000D02*
D03*
X775000D02*
D03*
Y-325000D02*
D03*
X675000D02*
D03*
X1275000Y-1375000D02*
D03*
Y-1475000D02*
D03*
X1125000D02*
D03*
X950000Y-1775000D02*
D03*
X-1099998Y624998D02*
D03*
X-1025000Y425000D02*
D03*
X875000Y-125000D02*
D03*
X-2725000Y425000D02*
D03*
X-2625000Y375000D02*
D03*
X450000Y125000D02*
D03*
X275000D02*
D03*
Y-100000D02*
D03*
X125000Y-50000D02*
D03*
X300000Y-500000D02*
D03*
X175000Y-575000D02*
D03*
X-1300000Y425000D02*
D03*
X-1925000Y525000D02*
D03*
X-925000D02*
D03*
X-875000Y-725000D02*
D03*
X-175000Y-800000D02*
D03*
X-1250000D02*
D03*
X-1175000Y-650000D02*
D03*
X-925000Y-575000D02*
D03*
X-25000Y-650000D02*
D03*
X-950000Y-875000D02*
D03*
X-1100000D02*
D03*
X-225000Y-375000D02*
D03*
X-1450000Y-450000D02*
D03*
X-75000D02*
D03*
X-975000Y-500000D02*
D03*
D57*
X-2540000Y-2680000D02*
D03*
X-3110000Y200000D02*
D03*
X1930000Y-2050000D02*
D03*
X790000Y-2510000D02*
D03*
X-280000Y-2080000D02*
D03*
X-1320000Y-2050000D02*
D03*
Y-2190000D02*
D03*
X-3500000Y-2090000D02*
D03*
X-3600000Y-2200000D02*
D03*
X-3620000Y-1830000D02*
D03*
X-3780000D02*
D03*
X-3700000D02*
D03*
X-3620000Y-1760000D02*
D03*
X-3780000D02*
D03*
X-3700000D02*
D03*
X-3540000D02*
D03*
Y-1830000D02*
D03*
X2970000D02*
D03*
X2890000D02*
D03*
X2730000D02*
D03*
X2810000D02*
D03*
X2890000Y-1760000D02*
D03*
X2730000D02*
D03*
X2810000D02*
D03*
X2970000D02*
D03*
X-370000Y-1830000D02*
D03*
X-530000D02*
D03*
X-450000D02*
D03*
X-370000Y-1760000D02*
D03*
X-530000D02*
D03*
X-450000D02*
D03*
X-290000D02*
D03*
Y-1830000D02*
D03*
X-150000Y-2450000D02*
D03*
X-1475000Y825000D02*
D03*
X1125000Y-1750000D02*
D03*
X1275000Y-1600000D02*
D03*
X1125000D02*
D03*
X1325000Y-2150000D02*
D03*
Y-2050000D02*
D03*
X1425000Y-2150000D02*
D03*
Y-2050000D02*
D03*
X2025000Y-2300000D02*
D03*
X1050000Y-1875000D02*
D03*
X-3300000Y-2200000D02*
D03*
X-2270000Y-1580000D02*
D03*
X-2150000Y-1460000D02*
D03*
X-2270000D02*
D03*
X-2150000Y-1340000D02*
D03*
X-2270000D02*
D03*
X-1900000Y-2260000D02*
D03*
X-1810000Y-2200000D02*
D03*
X-1980000D02*
D03*
X560000Y-2740000D02*
D03*
Y-2850000D02*
D03*
X510000Y-2510000D02*
D03*
Y-2400000D02*
D03*
X630000Y-2290000D02*
D03*
X530000D02*
D03*
X430000D02*
D03*
X330000D02*
D03*
X230000D02*
D03*
X-4460000Y-1650000D02*
D03*
X-4145000Y-1645000D02*
D03*
X-4540000Y-1650000D02*
D03*
Y-1750000D02*
D03*
Y-1550000D02*
D03*
X-1175000Y-1645000D02*
D03*
X-880000Y-1640000D02*
D03*
X-1280000Y-1650000D02*
D03*
Y-1750000D02*
D03*
Y-1550000D02*
D03*
X1960000D02*
D03*
Y-1750000D02*
D03*
Y-1650000D02*
D03*
X2370000Y-1640000D02*
D03*
X2060000Y-1650000D02*
D03*
X3010000Y-2120000D02*
D03*
X2920000Y-2220000D02*
D03*
X-300000Y-2225000D02*
D03*
X-3544997Y225000D02*
D03*
X-3100000Y-350000D02*
D03*
X-1019260Y-1255740D02*
D03*
X-4275000Y-1275000D02*
D03*
X-4475000Y-1950000D02*
D03*
X-1825000Y-2550000D02*
D03*
X-1975000D02*
D03*
X-1925000Y-2700000D02*
D03*
X-2625000Y-2275000D02*
D03*
Y-2200000D02*
D03*
X-2450000Y-2300000D02*
D03*
X-2250000D02*
D03*
Y-2175000D02*
D03*
X-2450000D02*
D03*
X-1680003Y-2019997D02*
D03*
X1650001Y-1450001D02*
D03*
X2235000Y-1265000D02*
D03*
X1659767Y-2760233D02*
D03*
X315235Y-2855235D02*
D03*
X620000Y-1650000D02*
D03*
X940000Y-1540000D02*
D03*
X1750000Y250000D02*
D03*
X1000002Y310001D02*
D03*
X-4490000Y-2285000D02*
D03*
%TF.MD5,3ae5a6a11395f00d025c1c25612a3436*%
M02*
